  0
SECTION
  2
HEADER
  9
$ACADVER
  1
AC1009
  9
$INSBASE
 10
0.0
 20
0.0
 30
0.0
  9
$EXTMIN
 10
0.0
 20
0.0
 30
0.0
  9
$EXTMAX
 10
0.0
 20
0.0
 30
0.0
  0
ENDSEC
  0
SECTION
  2
TABLES
  0
TABLE
  2
VPORT
 70
0
  0
ENDTAB
  0
TABLE
  2
LTYPE
 70
1
  0
LTYPE
  2
CONTINUOUS
 70
0
  3
Solid line
 72
65
 73
0
 40
0.0
  0
ENDTAB
  0
TABLE
  2
LAYER
 70
1
  0
LAYER
  2
0
 70
64
 62
7
  6
continuous
  0
ENDTAB
  0
TABLE
  2
STYLE
 70
1
  0
STYLE
  2
STANDARD
 70
0
 40
0
 41
1.0
 50
0.0
 71
0
 42
1
 3
ARIAL.TTF
 4

  0
ENDTAB
  0
TABLE
  2
VIEW
 70
0
  0
ENDTAB
  0
ENDSEC
  0
SECTION
  2
BLOCKS
  0
BLOCK
  8
0
  2
POCKET003001
 70
0
 10
0.0
 20
0.0
 30
0.0
  3
POCKET003001
  0
LINE
  8
0
 62
0
 10
-29.0
 20
-40.0
 30
0.0
 11
-18.5
 21
-40.0
 31
0.0
  0
LINE
  8
0
 62
0
 10
-18.5
 20
-40.0
 30
0.0
 11
18.5
 21
-40.0
 31
0.0
  0
LINE
  8
0
 62
0
 10
18.5
 20
-40.0
 30
0.0
 11
29.0
 21
-40.0
 31
0.0
  0
LINE
  8
0
 62
0
 10
-18.5
 20
-40.0
 30
0.0
 11
-18.5
 21
-35.0
 31
0.0
  0
LINE
  8
0
 62
0
 10
-18.5
 20
-35.0
 30
0.0
 11
-24.0
 21
-35.0
 31
0.0
  0
LINE
  8
0
 62
0
 10
-24.0
 20
-35.0
 30
0.0
 11
-24.0
 21
0.0
 31
0.0
  0
LINE
  8
0
 62
0
 10
-24.0
 20
8.40779078595e-45
 30
0.0
 11
-17.0
 21
8.40779078595e-45
 31
0.0
  0
LINE
  8
0
 62
0
 10
-17.0
 20
-1.75162308041e-46
 30
0.0
 11
-17.0
 21
5.0
 31
0.0
  0
LINE
  8
0
 62
0
 10
-17.0
 20
5.0
 30
0.0
 11
-29.0
 21
5.0
 31
0.0
  0
LINE
  8
0
 62
0
 10
-29.0
 20
5.0
 30
0.0
 11
-29.0
 21
-40.0
 31
0.0
  0
LINE
  8
0
 62
0
 10
-18.5
 20
-35.0
 30
0.0
 11
18.5
 21
-35.0
 31
0.0
  0
LINE
  8
0
 62
0
 10
18.5
 20
-40.0
 30
0.0
 11
18.5
 21
-35.0
 31
0.0
  0
LINE
  8
0
 62
0
 10
18.5
 20
-40.0
 30
0.0
 11
18.5
 21
-35.0
 31
0.0
  0
LINE
  8
0
 62
0
 10
17.0
 20
-1.75162308041e-46
 30
0.0
 11
17.0
 21
5.0
 31
0.0
  0
LINE
  8
0
 62
0
 10
17.0
 20
8.40779078595e-45
 30
0.0
 11
24.0
 21
8.40779078595e-45
 31
0.0
  0
LINE
  8
0
 62
0
 10
24.0
 20
8.40779078595e-45
 30
0.0
 11
24.0
 21
-35.0
 31
0.0
  0
LINE
  8
0
 62
0
 10
24.0
 20
-35.0
 30
0.0
 11
18.5
 21
-35.0
 31
0.0
  0
LINE
  8
0
 62
0
 10
29.0
 20
-40.0
 30
0.0
 11
29.0
 21
5.0
 31
0.0
  0
LINE
  8
0
 62
0
 10
29.0
 20
5.0
 30
0.0
 11
17.0
 21
5.0
 31
0.0
  0
LINE
  8
0
 62
0
 10
-24.0
 20
-1.36002320517e-14
 30
0.0
 11
-17.0
 21
-1.36002320517e-14
 31
0.0
  0
LINE
  8
0
 62
0
 10
9.5
 20
5.0
 30
0.0
 11
17.0
 21
5.0
 31
0.0
  0
LINE
  8
0
 62
0
 10
9.5
 20
5.0
 30
0.0
 11
-9.5
 21
5.0
 31
0.0
  0
LINE
  8
0
 62
0
 10
-9.5
 20
5.0
 30
0.0
 11
-17.0
 21
5.0
 31
0.0
  0
LINE
  8
0
 62
0
 10
-9.5
 20
-1.36002320517e-14
 30
0.0
 11
-17.0
 21
-1.36002320517e-14
 31
0.0
  0
LINE
  8
0
 62
0
 10
-9.5
 20
-1.36002320517e-14
 30
0.0
 11
9.5
 21
-1.36002320517e-14
 31
0.0
  0
LINE
  8
0
 62
0
 10
9.5
 20
-1.36002320517e-14
 30
0.0
 11
17.0
 21
-1.36002320517e-14
 31
0.0
  0
LINE
  8
0
 62
0
 10
24.0
 20
-1.36002320517e-14
 30
0.0
 11
24.0
 21
-35.0
 31
0.0
  0
CIRCLE
  8
0
 62
0
 10
-18.5
 20
-9.0
 30
0.0
 40
2.5
  0
CIRCLE
  8
0
 62
0
 10
18.5
 20
-9.0
 30
0.0
 40
2.5
  0
CIRCLE
  8
0
 62
0
 10
18.5
 20
-30.0
 30
0.0
 40
2.5
  0
CIRCLE
  8
0
 62
0
 10
-18.5
 20
-30.0
 30
0.0
 40
2.5
  0
LINE
  8
0
 62
0
 10
17.0
 20
-1.36002320517e-14
 30
0.0
 11
17.0
 21
5.0
 31
0.0
  0
LINE
  8
0
 62
0
 10
-9.5
 20
-1.36002320517e-14
 30
0.0
 11
-9.5
 21
5.0
 31
0.0
  0
LINE
  8
0
 62
0
 10
9.5
 20
-1.75162308041e-46
 30
0.0
 11
9.5
 21
5.0
 31
0.0
  0
LINE
  8
0
 62
0
 10
-9.5
 20
-1.75162308041e-46
 30
0.0
 11
-9.5
 21
5.0
 31
0.0
  0
LINE
  8
0
 62
0
 10
-9.5
 20
8.40779078595e-45
 30
0.0
 11
9.5
 21
8.40779078595e-45
 31
0.0
  0
ENDBLK
  0
ENDSEC
  0
SECTION
  2
ENTITIES
  0
INSERT
  2
POCKET003001
  8
0
 10
0.0
 20
0.0
 30
0.0
  0
ENDSEC
  0
EOF
