<?xml version="1.0" encoding="UTF-8" standalone="no"?>
<!-- Created with Inkscape (http://www.inkscape.org/) -->

<svg
   xmlns:freecad="http://www.freecadweb.org/wiki/index.php?title=Svg_Namespace"
   xmlns:dc="http://purl.org/dc/elements/1.1/"
   xmlns:cc="http://creativecommons.org/ns#"
   xmlns:rdf="http://www.w3.org/1999/02/22-rdf-syntax-ns#"
   xmlns:svg="http://www.w3.org/2000/svg"
   xmlns="http://www.w3.org/2000/svg"
   xmlns:sodipodi="http://sodipodi.sourceforge.net/DTD/sodipodi-0.dtd"
   xmlns:inkscape="http://www.inkscape.org/namespaces/inkscape"
   width="297mm"
   height="210mm"
   viewBox="0 0 297 210"
   id="svg5211"
   version="1.1"
   inkscape:version="0.91pre2 r"
   sodipodi:docname="mesa_cnc_visaolateral.svg">
  <defs
     id="defs5213" />
  <sodipodi:namedview
     id="base"
     pagecolor="#ffffff"
     bordercolor="#666666"
     borderopacity="1.0"
     inkscape:pageopacity="0.0"
     inkscape:pageshadow="2"
     inkscape:document-units="mm"
     inkscape:current-layer="layer1"
     showgrid="false"
     fit-margin-top="10"
     fit-margin-left="0"
     fit-margin-right="0"
     fit-margin-bottom="0"
     inkscape:window-width="1366"
     inkscape:window-height="717"
     inkscape:window-x="0"
     inkscape:window-y="0"
     inkscape:window-maximized="1"
     inkscape:zoom="0.89707532"
     inkscape:cx="790.79031"
     inkscape:cy="177.7918" />
  <!-- Working space 20 10 287 200 -->
  <!-- Title block 107 164 287 200 -->
  <metadata
     id="metadata5216">
    <rdf:RDF>
      <cc:Work
         rdf:about="">
        <dc:format>image/svg+xml</dc:format>
        <dc:type
           rdf:resource="http://purl.org/dc/dcmitype/StillImage" />
        <dc:title />
      </cc:Work>
    </rdf:RDF>
  </metadata>
  <g
     inkscape:label="Ebene 1"
     inkscape:groupmode="layer"
     id="layer1">
    <rect
       id="zeichenrahmen"
       y="10"
       x="20"
       height="190"
       width="267"
       style="fill:none;stroke:#000000;stroke-width:0.35;stroke-linecap:miter;stroke-miterlimit:4" />
    <!-- width-30, height-20 -->
    <g
       id="View002"
       transform="rotate(90,155,90) translate(155,90) scale(0.5,0.5)">
      <g
         stroke="rgb(0, 0, 0)"
         stroke-width="0.3"
         stroke-linecap="butt"
         stroke-linejoin="miter"
         stroke-dasharray="0.2,0.1"
         fill="none"
         transform="scale(1,-1)"
         id="g125">
        <path
           id="1"
           d=" M 0 -180 L 10 -180 " />
        <path
           id="2"
           d=" M 0 180 L 10 180 " />
        <path
           id="3"
           d=" M 0 180 L 0 -180 " />
        <path
           d="M0,152 L0,151.925  L0,151.703  L0,151.345  L0,150.87  L0,150.302  L0,149.668  L0,149  L0,148.332  L0,147.698  L0,147.13  L0,146.655  L0,146.297  L0,146.075  L0,146 "
           id="path130" />
        <path
           d="M0,146 L0,146.075  L0,146.297  L0,146.655  L0,147.13  L0,147.698  L0,148.332  L0,149  L0,149.668  L0,150.302  L0,150.87  L0,151.345  L0,151.703  L0,151.925  L0,152 "
           id="path132" />
        <path
           d="M0,152 L0,151.925  L0,151.703  L0,151.345  L0,150.87  L0,150.302  L0,149.668  L0,149  L0,148.332  L0,147.698  L0,147.13  L0,146.655  L0,146.297  L0,146.075  L0,146 "
           id="path134" />
        <path
           d="M0,146 L0,146.075  L0,146.297  L0,146.655  L0,147.13  L0,147.698  L0,148.332  L0,149  L0,149.668  L0,150.302  L0,150.87  L0,151.345  L0,151.703  L0,151.925  L0,152 "
           id="path136" />
        <path
           d="M0,-146 L0,-146.075  L0,-146.297  L0,-146.655  L0,-147.13  L0,-147.698  L0,-148.332  L0,-149  L0,-149.668  L0,-150.302  L0,-150.87  L0,-151.345  L0,-151.703  L0,-151.925  L0,-152 "
           id="path138" />
        <path
           d="M0,-152 L0,-151.925  L0,-151.703  L0,-151.345  L0,-150.87  L0,-150.302  L0,-149.668  L0,-149  L0,-148.332  L0,-147.698  L0,-147.13  L0,-146.655  L0,-146.297  L0,-146.075  L0,-146 "
           id="path140" />
        <path
           d="M0,-146 L0,-146.075  L0,-146.297  L0,-146.655  L0,-147.13  L0,-147.698  L0,-148.332  L0,-149  L0,-149.668  L0,-150.302  L0,-150.87  L0,-151.345  L0,-151.703  L0,-151.925  L0,-152 "
           id="path142" />
        <path
           d="M0,-152 L0,-151.925  L0,-151.703  L0,-151.345  L0,-150.87  L0,-150.302  L0,-149.668  L0,-149  L0,-148.332  L0,-147.698  L0,-147.13  L0,-146.655  L0,-146.297  L0,-146.075  L0,-146 "
           id="path144" />
        <path
           d="M0,-124 L0,-124.125  L0,-124.495  L0,-125.091  L0,-125.883  L0,-126.831  L0,-127.887  L0,-129  L0,-130.113  L0,-131.169  L0,-132.117  L0,-132.909  L0,-133.505  L0,-133.875  L0,-134 "
           id="path146" />
        <path
           d="M0,-134 L0,-133.875  L0,-133.505  L0,-132.909  L0,-132.117  L0,-131.169  L0,-130.113  L0,-129  L0,-127.887  L0,-126.831  L0,-125.883  L0,-125.091  L0,-124.495  L0,-124.125  L0,-124 "
           id="path148" />
        <path
           d="M0,-124 L0,-124.125  L0,-124.495  L0,-125.091  L0,-125.883  L0,-126.831  L0,-127.887  L0,-129  L0,-130.113  L0,-131.169  L0,-132.117  L0,-132.909  L0,-133.505  L0,-133.875  L0,-134 "
           id="path150" />
        <path
           d="M0,-134 L0,-133.875  L0,-133.505  L0,-132.909  L0,-132.117  L0,-131.169  L0,-130.113  L0,-129  L0,-127.887  L0,-126.831  L0,-125.883  L0,-125.091  L0,-124.495  L0,-124.125  L0,-124 "
           id="path152" />
        <path
           d="M0,-124 L0,-124.125  L0,-124.495  L0,-125.091  L0,-125.883  L0,-126.831  L0,-127.887  L0,-129  L0,-130.113  L0,-131.169  L0,-132.117  L0,-132.909  L0,-133.505  L0,-133.875  L0,-134 "
           id="path154" />
        <path
           d="M0,-134 L0,-133.875  L0,-133.505  L0,-132.909  L0,-132.117  L0,-131.169  L0,-130.113  L0,-129  L0,-127.887  L0,-126.831  L0,-125.883  L0,-125.091  L0,-124.495  L0,-124.125  L0,-124 "
           id="path156" />
        <path
           d="M0,-89 L0,-89.1254  L0,-89.4952  L0,-90.0908  L0,-90.8826  L0,-91.8306  L0,-92.8874  L0,-94  L0,-95.1126  L0,-96.1694  L0,-97.1174  L0,-97.9092  L0,-98.5048  L0,-98.8746  L0,-99 "
           id="path158" />
        <path
           d="M0,-99 L0,-98.8746  L0,-98.5048  L0,-97.9092  L0,-97.1174  L0,-96.1694  L0,-95.1126  L0,-94  L0,-92.8874  L0,-91.8306  L0,-90.8826  L0,-90.0908  L0,-89.4952  L0,-89.1254  L0,-89 "
           id="path160" />
        <path
           d="M0,-89 L0,-89.1254  L0,-89.4952  L0,-90.0908  L0,-90.8826  L0,-91.8306  L0,-92.8874  L0,-94  L0,-95.1126  L0,-96.1694  L0,-97.1174  L0,-97.9092  L0,-98.5048  L0,-98.8746  L0,-99 "
           id="path162" />
        <path
           d="M0,-99 L0,-98.8746  L0,-98.5048  L0,-97.9092  L0,-97.1174  L0,-96.1694  L0,-95.1126  L0,-94  L0,-92.8874  L0,-91.8306  L0,-90.8826  L0,-90.0908  L0,-89.4952  L0,-89.1254  L0,-89 "
           id="path164" />
        <path
           d="M0,-89 L0,-89.1254  L0,-89.4952  L0,-90.0908  L0,-90.8826  L0,-91.8306  L0,-92.8874  L0,-94  L0,-95.1126  L0,-96.1694  L0,-97.1174  L0,-97.9092  L0,-98.5048  L0,-98.8746  L0,-99 "
           id="path166" />
        <path
           d="M0,-99 L0,-98.8746  L0,-98.5048  L0,-97.9092  L0,-97.1174  L0,-96.1694  L0,-95.1126  L0,-94  L0,-92.8874  L0,-91.8306  L0,-90.8826  L0,-90.0908  L0,-89.4952  L0,-89.1254  L0,-89 "
           id="path168" />
        <path
           d="M0,-89 L0,-89.1254  L0,-89.4952  L0,-90.0908  L0,-90.8826  L0,-91.8306  L0,-92.8874  L0,-94  L0,-95.1126  L0,-96.1694  L0,-97.1174  L0,-97.9092  L0,-98.5048  L0,-98.8746  L0,-99 "
           id="path170" />
        <path
           d="M0,-99 L0,-98.8746  L0,-98.5048  L0,-97.9092  L0,-97.1174  L0,-96.1694  L0,-95.1126  L0,-94  L0,-92.8874  L0,-91.8306  L0,-90.8826  L0,-90.0908  L0,-89.4952  L0,-89.1254  L0,-89 "
           id="path172" />
        <path
           d="M0,99 L0,98.8746  L0,98.5048  L0,97.9092  L0,97.1174  L0,96.1694  L0,95.1126  L0,94  L0,92.8874  L0,91.8306  L0,90.8826  L0,90.0908  L0,89.4952  L0,89.1254  L0,89 "
           id="path174" />
        <path
           d="M0,89 L0,89.1254  L0,89.4952  L0,90.0908  L0,90.8826  L0,91.8306  L0,92.8874  L0,94  L0,95.1126  L0,96.1694  L0,97.1174  L0,97.9092  L0,98.5048  L0,98.8746  L0,99 "
           id="path176" />
        <path
           d="M0,99 L0,98.8746  L0,98.5048  L0,97.9092  L0,97.1174  L0,96.1694  L0,95.1126  L0,94  L0,92.8874  L0,91.8306  L0,90.8826  L0,90.0908  L0,89.4952  L0,89.1254  L0,89 "
           id="path178" />
        <path
           d="M0,89 L0,89.1254  L0,89.4952  L0,90.0908  L0,90.8826  L0,91.8306  L0,92.8874  L0,94  L0,95.1126  L0,96.1694  L0,97.1174  L0,97.9092  L0,98.5048  L0,98.8746  L0,99 "
           id="path180" />
        <path
           d="M0,-13.75 L0,-13.8754  L0,-14.2452  L0,-14.8408  L0,-15.6326  L0,-16.5806  L0,-17.6374  L0,-18.75  L0,-19.8626  L0,-20.9194  L0,-21.8674  L0,-22.6592  L0,-23.2548  L0,-23.6246  L0,-23.75 "
           id="path182" />
        <path
           d="M0,-23.75 L0,-23.6246  L0,-23.2548  L0,-22.6592  L0,-21.8674  L0,-20.9194  L0,-19.8626  L0,-18.75  L0,-17.6374  L0,-16.5806  L0,-15.6326  L0,-14.8408  L0,-14.2452  L0,-13.8754  L0,-13.75 "
           id="path184" />
        <path
           d="M0,-13.75 L0,-13.8754  L0,-14.2452  L0,-14.8408  L0,-15.6326  L0,-16.5806  L0,-17.6374  L0,-18.75  L0,-19.8626  L0,-20.9194  L0,-21.8674  L0,-22.6592  L0,-23.2548  L0,-23.6246  L0,-23.75 "
           id="path186" />
        <path
           d="M0,-23.75 L0,-23.6246  L0,-23.2548  L0,-22.6592  L0,-21.8674  L0,-20.9194  L0,-19.8626  L0,-18.75  L0,-17.6374  L0,-16.5806  L0,-15.6326  L0,-14.8408  L0,-14.2452  L0,-13.8754  L0,-13.75 "
           id="path188" />
        <path
           d="M0,23.75 L0,23.6246  L0,23.2548  L0,22.6592  L0,21.8674  L0,20.9194  L0,19.8626  L0,18.75  L0,17.6374  L0,16.5806  L0,15.6326  L0,14.8408  L0,14.2452  L0,13.8754  L0,13.75 "
           id="path190" />
        <path
           d="M0,13.75 L0,13.8754  L0,14.2452  L0,14.8408  L0,15.6326  L0,16.5806  L0,17.6374  L0,18.75  L0,19.8626  L0,20.9194  L0,21.8674  L0,22.6592  L0,23.2548  L0,23.6246  L0,23.75 "
           id="path192" />
        <path
           d="M0,99 L0,98.8746  L0,98.5048  L0,97.9092  L0,97.1174  L0,96.1694  L0,95.1126  L0,94  L0,92.8874  L0,91.8306  L0,90.8826  L0,90.0908  L0,89.4952  L0,89.1254  L0,89 "
           id="path194" />
        <path
           d="M0,89 L0,89.1254  L0,89.4952  L0,90.0908  L0,90.8826  L0,91.8306  L0,92.8874  L0,94  L0,95.1126  L0,96.1694  L0,97.1174  L0,97.9092  L0,98.5048  L0,98.8746  L0,99 "
           id="path196" />
        <path
           d="M0,99 L0,98.8746  L0,98.5048  L0,97.9092  L0,97.1174  L0,96.1694  L0,95.1126  L0,94  L0,92.8874  L0,91.8306  L0,90.8826  L0,90.0908  L0,89.4952  L0,89.1254  L0,89 "
           id="path198" />
        <path
           d="M0,89 L0,89.1254  L0,89.4952  L0,90.0908  L0,90.8826  L0,91.8306  L0,92.8874  L0,94  L0,95.1126  L0,96.1694  L0,97.1174  L0,97.9092  L0,98.5048  L0,98.8746  L0,99 "
           id="path200" />
        <path
           d="M0,134 L0,133.875  L0,133.505  L0,132.909  L0,132.117  L0,131.169  L0,130.113  L0,129  L0,127.887  L0,126.831  L0,125.883  L0,125.091  L0,124.495  L0,124.125  L0,124 "
           id="path202" />
        <path
           d="M0,124 L0,124.125  L0,124.495  L0,125.091  L0,125.883  L0,126.831  L0,127.887  L0,129  L0,130.113  L0,131.169  L0,132.117  L0,132.909  L0,133.505  L0,133.875  L0,134 "
           id="path204" />
        <path
           d="M0,23.75 L0,23.6246  L0,23.2548  L0,22.6592  L0,21.8674  L0,20.9194  L0,19.8626  L0,18.75  L0,17.6374  L0,16.5806  L0,15.6326  L0,14.8408  L0,14.2452  L0,13.8754  L0,13.75 "
           id="path206" />
        <path
           d="M0,13.75 L0,13.8754  L0,14.2452  L0,14.8408  L0,15.6326  L0,16.5806  L0,17.6374  L0,18.75  L0,19.8626  L0,20.9194  L0,21.8674  L0,22.6592  L0,23.2548  L0,23.6246  L0,23.75 "
           id="path208" />
        <path
           d="M0,134 L0,133.875  L0,133.505  L0,132.909  L0,132.117  L0,131.169  L0,130.113  L0,129  L0,127.887  L0,126.831  L0,125.883  L0,125.091  L0,124.495  L0,124.125  L0,124 "
           id="path210" />
        <path
           d="M0,124 L0,124.125  L0,124.495  L0,125.091  L0,125.883  L0,126.831  L0,127.887  L0,129  L0,130.113  L0,131.169  L0,132.117  L0,132.909  L0,133.505  L0,133.875  L0,134 "
           id="path212" />
        <path
           d="M0,134 L0,133.875  L0,133.505  L0,132.909  L0,132.117  L0,131.169  L0,130.113  L0,129  L0,127.887  L0,126.831  L0,125.883  L0,125.091  L0,124.495  L0,124.125  L0,124 "
           id="path214" />
        <path
           d="M0,124 L0,124.125  L0,124.495  L0,125.091  L0,125.883  L0,126.831  L0,127.887  L0,129  L0,130.113  L0,131.169  L0,132.117  L0,132.909  L0,133.505  L0,133.875  L0,134 "
           id="path216" />
        <path
           d="M0,134 L0,133.875  L0,133.505  L0,132.909  L0,132.117  L0,131.169  L0,130.113  L0,129  L0,127.887  L0,126.831  L0,125.883  L0,125.091  L0,124.495  L0,124.125  L0,124 "
           id="path218" />
        <path
           d="M0,124 L0,124.125  L0,124.495  L0,125.091  L0,125.883  L0,126.831  L0,127.887  L0,129  L0,130.113  L0,131.169  L0,132.117  L0,132.909  L0,133.505  L0,133.875  L0,134 "
           id="path220" />
        <path
           d="M0,-124 L0,-124.125  L0,-124.495  L0,-125.091  L0,-125.883  L0,-126.831  L0,-127.887  L0,-129  L0,-130.113  L0,-131.169  L0,-132.117  L0,-132.909  L0,-133.505  L0,-133.875  L0,-134 "
           id="path222" />
        <path
           d="M0,-134 L0,-133.875  L0,-133.505  L0,-132.909  L0,-132.117  L0,-131.169  L0,-130.113  L0,-129  L0,-127.887  L0,-126.831  L0,-125.883  L0,-125.091  L0,-124.495  L0,-124.125  L0,-124 "
           id="path224" />
        <path
           id="52"
           d=" M 10 180 L 10 -180 " />
        <path
           d="M10,152 L10,151.925  L10,151.703  L10,151.345  L10,150.87  L10,150.302  L10,149.668  L10,149  L10,148.332  L10,147.698  L10,147.13  L10,146.655  L10,146.297  L10,146.075  L10,146 "
           id="path227" />
        <path
           d="M10,146 L10,146.075  L10,146.297  L10,146.655  L10,147.13  L10,147.698  L10,148.332  L10,149  L10,149.668  L10,150.302  L10,150.87  L10,151.345  L10,151.703  L10,151.925  L10,152 "
           id="path229" />
        <path
           d="M10,152 L10,151.925  L10,151.703  L10,151.345  L10,150.87  L10,150.302  L10,149.668  L10,149  L10,148.332  L10,147.698  L10,147.13  L10,146.655  L10,146.297  L10,146.075  L10,146 "
           id="path231" />
        <path
           d="M10,146 L10,146.075  L10,146.297  L10,146.655  L10,147.13  L10,147.698  L10,148.332  L10,149  L10,149.668  L10,150.302  L10,150.87  L10,151.345  L10,151.703  L10,151.925  L10,152 "
           id="path233" />
        <path
           d="M10,97 L10,96.9248  L10,96.7029  L10,96.3455  L10,95.8705  L10,95.3017  L10,94.6676  L10,94  L10,93.3324  L10,92.6983  L10,92.1295  L10,91.6545  L10,91.2971  L10,91.0752  L10,91 "
           id="path235" />
        <path
           d="M10,91 L10,91.0752  L10,91.2971  L10,91.6545  L10,92.1295  L10,92.6983  L10,93.3324  L10,94  L10,94.6676  L10,95.3017  L10,95.8705  L10,96.3455  L10,96.7029  L10,96.9248  L10,97 "
           id="path237" />
        <path
           d="M10,132 L10,131.925  L10,131.703  L10,131.345  L10,130.87  L10,130.302  L10,129.668  L10,129  L10,128.332  L10,127.698  L10,127.13  L10,126.655  L10,126.297  L10,126.075  L10,126 "
           id="path239" />
        <path
           d="M10,126 L10,126.075  L10,126.297  L10,126.655  L10,127.13  L10,127.698  L10,128.332  L10,129  L10,129.668  L10,130.302  L10,130.87  L10,131.345  L10,131.703  L10,131.925  L10,132 "
           id="path241" />
        <path
           d="M10,132 L10,131.925  L10,131.703  L10,131.345  L10,130.87  L10,130.302  L10,129.668  L10,129  L10,128.332  L10,127.698  L10,127.13  L10,126.655  L10,126.297  L10,126.075  L10,126 "
           id="path243" />
        <path
           d="M10,126 L10,126.075  L10,126.297  L10,126.655  L10,127.13  L10,127.698  L10,128.332  L10,129  L10,129.668  L10,130.302  L10,130.87  L10,131.345  L10,131.703  L10,131.925  L10,132 "
           id="path245" />
        <path
           d="M10,97 L10,96.9248  L10,96.7029  L10,96.3455  L10,95.8705  L10,95.3017  L10,94.6676  L10,94  L10,93.3324  L10,92.6983  L10,92.1295  L10,91.6545  L10,91.2971  L10,91.0752  L10,91 "
           id="path247" />
        <path
           d="M10,91 L10,91.0752  L10,91.2971  L10,91.6545  L10,92.1295  L10,92.6983  L10,93.3324  L10,94  L10,94.6676  L10,95.3017  L10,95.8705  L10,96.3455  L10,96.7029  L10,96.9248  L10,97 "
           id="path249" />
        <path
           d="M10,-126 L10,-126.075  L10,-126.297  L10,-126.655  L10,-127.13  L10,-127.698  L10,-128.332  L10,-129  L10,-129.668  L10,-130.302  L10,-130.87  L10,-131.345  L10,-131.703  L10,-131.925  L10,-132 "
           id="path251" />
        <path
           d="M10,-132 L10,-131.925  L10,-131.703  L10,-131.345  L10,-130.87  L10,-130.302  L10,-129.668  L10,-129  L10,-128.332  L10,-127.698  L10,-127.13  L10,-126.655  L10,-126.297  L10,-126.075  L10,-126 "
           id="path253" />
        <path
           d="M10,-91 L10,-91.0752  L10,-91.2971  L10,-91.6545  L10,-92.1295  L10,-92.6983  L10,-93.3324  L10,-94  L10,-94.6676  L10,-95.3017  L10,-95.8705  L10,-96.3455  L10,-96.7029  L10,-96.9248  L10,-97 "
           id="path255" />
        <path
           d="M10,-97 L10,-96.9248  L10,-96.7029  L10,-96.3455  L10,-95.8705  L10,-95.3017  L10,-94.6676  L10,-94  L10,-93.3324  L10,-92.6983  L10,-92.1295  L10,-91.6545  L10,-91.2971  L10,-91.0752  L10,-91 "
           id="path257" />
        <path
           d="M10,-91 L10,-91.0752  L10,-91.2971  L10,-91.6545  L10,-92.1295  L10,-92.6983  L10,-93.3324  L10,-94  L10,-94.6676  L10,-95.3017  L10,-95.8705  L10,-96.3455  L10,-96.7029  L10,-96.9248  L10,-97 "
           id="path259" />
        <path
           d="M10,-97 L10,-96.9248  L10,-96.7029  L10,-96.3455  L10,-95.8705  L10,-95.3017  L10,-94.6676  L10,-94  L10,-93.3324  L10,-92.6983  L10,-92.1295  L10,-91.6545  L10,-91.2971  L10,-91.0752  L10,-91 "
           id="path261" />
        <path
           d="M10,-126 L10,-126.075  L10,-126.297  L10,-126.655  L10,-127.13  L10,-127.698  L10,-128.332  L10,-129  L10,-129.668  L10,-130.302  L10,-130.87  L10,-131.345  L10,-131.703  L10,-131.925  L10,-132 "
           id="path263" />
        <path
           d="M10,-132 L10,-131.925  L10,-131.703  L10,-131.345  L10,-130.87  L10,-130.302  L10,-129.668  L10,-129  L10,-128.332  L10,-127.698  L10,-127.13  L10,-126.655  L10,-126.297  L10,-126.075  L10,-126 "
           id="path265" />
        <path
           d="M10,132 L10,131.925  L10,131.703  L10,131.345  L10,130.87  L10,130.302  L10,129.668  L10,129  L10,128.332  L10,127.698  L10,127.13  L10,126.655  L10,126.297  L10,126.075  L10,126 "
           id="path267" />
        <path
           d="M10,126 L10,126.075  L10,126.297  L10,126.655  L10,127.13  L10,127.698  L10,128.332  L10,129  L10,129.668  L10,130.302  L10,130.87  L10,131.345  L10,131.703  L10,131.925  L10,132 "
           id="path269" />
        <path
           d="M10,97 L10,96.9248  L10,96.7029  L10,96.3455  L10,95.8705  L10,95.3017  L10,94.6676  L10,94  L10,93.3324  L10,92.6983  L10,92.1295  L10,91.6545  L10,91.2971  L10,91.0752  L10,91 "
           id="path271" />
        <path
           d="M10,91 L10,91.0752  L10,91.2971  L10,91.6545  L10,92.1295  L10,92.6983  L10,93.3324  L10,94  L10,94.6676  L10,95.3017  L10,95.8705  L10,96.3455  L10,96.7029  L10,96.9248  L10,97 "
           id="path273" />
        <path
           d="M10,97 L10,96.9248  L10,96.7029  L10,96.3455  L10,95.8705  L10,95.3017  L10,94.6676  L10,94  L10,93.3324  L10,92.6983  L10,92.1295  L10,91.6545  L10,91.2971  L10,91.0752  L10,91 "
           id="path275" />
        <path
           d="M10,91 L10,91.0752  L10,91.2971  L10,91.6545  L10,92.1295  L10,92.6983  L10,93.3324  L10,94  L10,94.6676  L10,95.3017  L10,95.8705  L10,96.3455  L10,96.7029  L10,96.9248  L10,97 "
           id="path277" />
        <path
           d="M10,132 L10,131.925  L10,131.703  L10,131.345  L10,130.87  L10,130.302  L10,129.668  L10,129  L10,128.332  L10,127.698  L10,127.13  L10,126.655  L10,126.297  L10,126.075  L10,126 "
           id="path279" />
        <path
           d="M10,126 L10,126.075  L10,126.297  L10,126.655  L10,127.13  L10,127.698  L10,128.332  L10,129  L10,129.668  L10,130.302  L10,130.87  L10,131.345  L10,131.703  L10,131.925  L10,132 "
           id="path281" />
        <path
           d="M10,-126 L10,-126.075  L10,-126.297  L10,-126.655  L10,-127.13  L10,-127.698  L10,-128.332  L10,-129  L10,-129.668  L10,-130.302  L10,-130.87  L10,-131.345  L10,-131.703  L10,-131.925  L10,-132 "
           id="path283" />
        <path
           d="M10,-132 L10,-131.925  L10,-131.703  L10,-131.345  L10,-130.87  L10,-130.302  L10,-129.668  L10,-129  L10,-128.332  L10,-127.698  L10,-127.13  L10,-126.655  L10,-126.297  L10,-126.075  L10,-126 "
           id="path285" />
        <path
           d="M10,-126 L10,-126.075  L10,-126.297  L10,-126.655  L10,-127.13  L10,-127.698  L10,-128.332  L10,-129  L10,-129.668  L10,-130.302  L10,-130.87  L10,-131.345  L10,-131.703  L10,-131.925  L10,-132 "
           id="path287" />
        <path
           d="M10,-132 L10,-131.925  L10,-131.703  L10,-131.345  L10,-130.87  L10,-130.302  L10,-129.668  L10,-129  L10,-128.332  L10,-127.698  L10,-127.13  L10,-126.655  L10,-126.297  L10,-126.075  L10,-126 "
           id="path289" />
        <path
           d="M10,-91 L10,-91.0752  L10,-91.2971  L10,-91.6545  L10,-92.1295  L10,-92.6983  L10,-93.3324  L10,-94  L10,-94.6676  L10,-95.3017  L10,-95.8705  L10,-96.3455  L10,-96.7029  L10,-96.9248  L10,-97 "
           id="path291" />
        <path
           d="M10,-97 L10,-96.9248  L10,-96.7029  L10,-96.3455  L10,-95.8705  L10,-95.3017  L10,-94.6676  L10,-94  L10,-93.3324  L10,-92.6983  L10,-92.1295  L10,-91.6545  L10,-91.2971  L10,-91.0752  L10,-91 "
           id="path293" />
        <path
           d="M10,-91 L10,-91.0752  L10,-91.2971  L10,-91.6545  L10,-92.1295  L10,-92.6983  L10,-93.3324  L10,-94  L10,-94.6676  L10,-95.3017  L10,-95.8705  L10,-96.3455  L10,-96.7029  L10,-96.9248  L10,-97 "
           id="path295" />
        <path
           d="M10,-97 L10,-96.9248  L10,-96.7029  L10,-96.3455  L10,-95.8705  L10,-95.3017  L10,-94.6676  L10,-94  L10,-93.3324  L10,-92.6983  L10,-92.1295  L10,-91.6545  L10,-91.2971  L10,-91.0752  L10,-91 "
           id="path297" />
        <path
           d="M10,-16.25 L10,-16.3127  L10,-16.4976  L10,-16.7954  L10,-17.1913  L10,-17.6653  L10,-18.1937  L10,-18.75  L10,-19.3063  L10,-19.8347  L10,-20.3087  L10,-20.7046  L10,-21.0024  L10,-21.1873  L10,-21.25 "
           id="path299" />
        <path
           d="M10,-21.25 L10,-21.1873  L10,-21.0024  L10,-20.7046  L10,-20.3087  L10,-19.8347  L10,-19.3063  L10,-18.75  L10,-18.1937  L10,-17.6653  L10,-17.1913  L10,-16.7954  L10,-16.4976  L10,-16.3127  L10,-16.25 "
           id="path301" />
        <path
           d="M10,-16.25 L10,-16.3127  L10,-16.4976  L10,-16.7954  L10,-17.1913  L10,-17.6653  L10,-18.1937  L10,-18.75  L10,-19.3063  L10,-19.8347  L10,-20.3087  L10,-20.7046  L10,-21.0024  L10,-21.1873  L10,-21.25 "
           id="path303" />
        <path
           d="M10,-21.25 L10,-21.1873  L10,-21.0024  L10,-20.7046  L10,-20.3087  L10,-19.8347  L10,-19.3063  L10,-18.75  L10,-18.1937  L10,-17.6653  L10,-17.1913  L10,-16.7954  L10,-16.4976  L10,-16.3127  L10,-16.25 "
           id="path305" />
        <path
           d="M10,21.25 L10,21.1873  L10,21.0024  L10,20.7046  L10,20.3087  L10,19.8347  L10,19.3063  L10,18.75  L10,18.1937  L10,17.6653  L10,17.1913  L10,16.7954  L10,16.4976  L10,16.3127  L10,16.25 "
           id="path307" />
        <path
           d="M10,16.25 L10,16.3127  L10,16.4976  L10,16.7954  L10,17.1913  L10,17.6653  L10,18.1937  L10,18.75  L10,19.3063  L10,19.8347  L10,20.3087  L10,20.7046  L10,21.0024  L10,21.1873  L10,21.25 "
           id="path309" />
        <path
           d="M10,21.25 L10,21.1873  L10,21.0024  L10,20.7046  L10,20.3087  L10,19.8347  L10,19.3063  L10,18.75  L10,18.1937  L10,17.6653  L10,17.1913  L10,16.7954  L10,16.4976  L10,16.3127  L10,16.25 "
           id="path311" />
        <path
           d="M10,16.25 L10,16.3127  L10,16.4976  L10,16.7954  L10,17.1913  L10,17.6653  L10,18.1937  L10,18.75  L10,19.3063  L10,19.8347  L10,20.3087  L10,20.7046  L10,21.0024  L10,21.1873  L10,21.25 "
           id="path313" />
        <path
           d="M10,-146 L10,-146.075  L10,-146.297  L10,-146.655  L10,-147.13  L10,-147.698  L10,-148.332  L10,-149  L10,-149.668  L10,-150.302  L10,-150.87  L10,-151.345  L10,-151.703  L10,-151.925  L10,-152 "
           id="path315" />
        <path
           d="M10,-152 L10,-151.925  L10,-151.703  L10,-151.345  L10,-150.87  L10,-150.302  L10,-149.668  L10,-149  L10,-148.332  L10,-147.698  L10,-147.13  L10,-146.655  L10,-146.297  L10,-146.075  L10,-146 "
           id="path317" />
        <path
           d="M10,-146 L10,-146.075  L10,-146.297  L10,-146.655  L10,-147.13  L10,-147.698  L10,-148.332  L10,-149  L10,-149.668  L10,-150.302  L10,-150.87  L10,-151.345  L10,-151.703  L10,-151.925  L10,-152 "
           id="path319" />
        <path
           d="M10,-152 L10,-151.925  L10,-151.703  L10,-151.345  L10,-150.87  L10,-150.302  L10,-149.668  L10,-149  L10,-148.332  L10,-147.698  L10,-147.13  L10,-146.655  L10,-146.297  L10,-146.075  L10,-146 "
           id="path321" />
        <path
           id="101"
           d=" M 10 152 L 0 152 " />
        <path
           id="102"
           d=" M 10 152 L 0 152 " />
        <path
           id="103"
           d=" M 10 -146 L 0 -146 " />
        <path
           id="104"
           d=" M 10 -146 L 0 -146 " />
        <path
           id="105"
           d=" M 0 -124 L 6 -124 " />
        <path
           d="M6,-124 L6,-124.125  L6,-124.495  L6,-125.091  L6,-125.883  L6,-126.831  L6,-127.887  L6,-129  L6,-130.113  L6,-131.169  L6,-132.117  L6,-132.909  L6,-133.505  L6,-133.875  L6,-134 "
           id="path328" />
        <path
           d="M6,-134 L6,-133.875  L6,-133.505  L6,-132.909  L6,-132.117  L6,-131.169  L6,-130.113  L6,-129  L6,-127.887  L6,-126.831  L6,-125.883  L6,-125.091  L6,-124.495  L6,-124.125  L6,-124 "
           id="path330" />
        <path
           id="108"
           d=" M 0 -124 L 6 -124 " />
        <path
           d="M6,-124 L6,-124.125  L6,-124.495  L6,-125.091  L6,-125.883  L6,-126.831  L6,-127.887  L6,-129  L6,-130.113  L6,-131.169  L6,-132.117  L6,-132.909  L6,-133.505  L6,-133.875  L6,-134 "
           id="path333" />
        <path
           d="M6,-134 L6,-133.875  L6,-133.505  L6,-132.909  L6,-132.117  L6,-131.169  L6,-130.113  L6,-129  L6,-127.887  L6,-126.831  L6,-125.883  L6,-125.091  L6,-124.495  L6,-124.125  L6,-124 "
           id="path335" />
        <path
           id="111"
           d=" M 0 -124 L 6 -124 " />
        <path
           d="M6,-124 L6,-124.125  L6,-124.495  L6,-125.091  L6,-125.883  L6,-126.831  L6,-127.887  L6,-129  L6,-130.113  L6,-131.169  L6,-132.117  L6,-132.909  L6,-133.505  L6,-133.875  L6,-134 "
           id="path338" />
        <path
           d="M6,-134 L6,-133.875  L6,-133.505  L6,-132.909  L6,-132.117  L6,-131.169  L6,-130.113  L6,-129  L6,-127.887  L6,-126.831  L6,-125.883  L6,-125.091  L6,-124.495  L6,-124.125  L6,-124 "
           id="path340" />
        <path
           id="114"
           d=" M 0 -89 L 6 -89 " />
        <path
           d="M6,-89 L6,-89.1254  L6,-89.4952  L6,-90.0908  L6,-90.8826  L6,-91.8306  L6,-92.8874  L6,-94  L6,-95.1126  L6,-96.1694  L6,-97.1174  L6,-97.9092  L6,-98.5048  L6,-98.8746  L6,-99 "
           id="path343" />
        <path
           d="M6,-99 L6,-98.8746  L6,-98.5048  L6,-97.9092  L6,-97.1174  L6,-96.1694  L6,-95.1126  L6,-94  L6,-92.8874  L6,-91.8306  L6,-90.8826  L6,-90.0908  L6,-89.4952  L6,-89.1254  L6,-89 "
           id="path345" />
        <path
           id="117"
           d=" M 0 -89 L 6 -89 " />
        <path
           d="M6,-89 L6,-89.1254  L6,-89.4952  L6,-90.0908  L6,-90.8826  L6,-91.8306  L6,-92.8874  L6,-94  L6,-95.1126  L6,-96.1694  L6,-97.1174  L6,-97.9092  L6,-98.5048  L6,-98.8746  L6,-99 "
           id="path348" />
        <path
           d="M6,-99 L6,-98.8746  L6,-98.5048  L6,-97.9092  L6,-97.1174  L6,-96.1694  L6,-95.1126  L6,-94  L6,-92.8874  L6,-91.8306  L6,-90.8826  L6,-90.0908  L6,-89.4952  L6,-89.1254  L6,-89 "
           id="path350" />
        <path
           id="120"
           d=" M 0 -89 L 6 -89 " />
        <path
           d="M6,-89 L6,-89.1254  L6,-89.4952  L6,-90.0908  L6,-90.8826  L6,-91.8306  L6,-92.8874  L6,-94  L6,-95.1126  L6,-96.1694  L6,-97.1174  L6,-97.9092  L6,-98.5048  L6,-98.8746  L6,-99 "
           id="path353" />
        <path
           d="M6,-99 L6,-98.8746  L6,-98.5048  L6,-97.9092  L6,-97.1174  L6,-96.1694  L6,-95.1126  L6,-94  L6,-92.8874  L6,-91.8306  L6,-90.8826  L6,-90.0908  L6,-89.4952  L6,-89.1254  L6,-89 "
           id="path355" />
        <path
           id="123"
           d=" M 0 -89 L 6 -89 " />
        <path
           d="M6,-89 L6,-89.1254  L6,-89.4952  L6,-90.0908  L6,-90.8826  L6,-91.8306  L6,-92.8874  L6,-94  L6,-95.1126  L6,-96.1694  L6,-97.1174  L6,-97.9092  L6,-98.5048  L6,-98.8746  L6,-99 "
           id="path358" />
        <path
           d="M6,-99 L6,-98.8746  L6,-98.5048  L6,-97.9092  L6,-97.1174  L6,-96.1694  L6,-95.1126  L6,-94  L6,-92.8874  L6,-91.8306  L6,-90.8826  L6,-90.0908  L6,-89.4952  L6,-89.1254  L6,-89 "
           id="path360" />
        <path
           id="126"
           d=" M 0 99 L 6 99 " />
        <path
           d="M6,99 L6,98.8746  L6,98.5048  L6,97.9092  L6,97.1174  L6,96.1694  L6,95.1126  L6,94  L6,92.8874  L6,91.8306  L6,90.8826  L6,90.0908  L6,89.4952  L6,89.1254  L6,89 "
           id="path363" />
        <path
           d="M6,89 L6,89.1254  L6,89.4952  L6,90.0908  L6,90.8826  L6,91.8306  L6,92.8874  L6,94  L6,95.1126  L6,96.1694  L6,97.1174  L6,97.9092  L6,98.5048  L6,98.8746  L6,99 "
           id="path365" />
        <path
           id="129"
           d=" M 0 99 L 6 99 " />
        <path
           d="M6,99 L6,98.8746  L6,98.5048  L6,97.9092  L6,97.1174  L6,96.1694  L6,95.1126  L6,94  L6,92.8874  L6,91.8306  L6,90.8826  L6,90.0908  L6,89.4952  L6,89.1254  L6,89 "
           id="path368" />
        <path
           d="M6,89 L6,89.1254  L6,89.4952  L6,90.0908  L6,90.8826  L6,91.8306  L6,92.8874  L6,94  L6,95.1126  L6,96.1694  L6,97.1174  L6,97.9092  L6,98.5048  L6,98.8746  L6,99 "
           id="path370" />
        <path
           id="132"
           d=" M 0 -13.75 L 6 -13.75 " />
        <path
           d="M6,-13.75 L6,-13.8754  L6,-14.2452  L6,-14.8408  L6,-15.6326  L6,-16.5806  L6,-17.6374  L6,-18.75  L6,-19.8626  L6,-20.9194  L6,-21.8674  L6,-22.6592  L6,-23.2548  L6,-23.6246  L6,-23.75 "
           id="path373" />
        <path
           d="M6,-23.75 L6,-23.6246  L6,-23.2548  L6,-22.6592  L6,-21.8674  L6,-20.9194  L6,-19.8626  L6,-18.75  L6,-17.6374  L6,-16.5806  L6,-15.6326  L6,-14.8408  L6,-14.2452  L6,-13.8754  L6,-13.75 "
           id="path375" />
        <path
           id="135"
           d=" M 0 -13.75 L 6 -13.75 " />
        <path
           d="M6,-13.75 L6,-13.8754  L6,-14.2452  L6,-14.8408  L6,-15.6326  L6,-16.5806  L6,-17.6374  L6,-18.75  L6,-19.8626  L6,-20.9194  L6,-21.8674  L6,-22.6592  L6,-23.2548  L6,-23.6246  L6,-23.75 "
           id="path378" />
        <path
           d="M6,-23.75 L6,-23.6246  L6,-23.2548  L6,-22.6592  L6,-21.8674  L6,-20.9194  L6,-19.8626  L6,-18.75  L6,-17.6374  L6,-16.5806  L6,-15.6326  L6,-14.8408  L6,-14.2452  L6,-13.8754  L6,-13.75 "
           id="path380" />
        <path
           id="138"
           d=" M 0 23.75 L 6 23.75 " />
        <path
           d="M6,23.75 L6,23.6246  L6,23.2548  L6,22.6592  L6,21.8674  L6,20.9194  L6,19.8626  L6,18.75  L6,17.6374  L6,16.5806  L6,15.6326  L6,14.8408  L6,14.2452  L6,13.8754  L6,13.75 "
           id="path383" />
        <path
           d="M6,13.75 L6,13.8754  L6,14.2452  L6,14.8408  L6,15.6326  L6,16.5806  L6,17.6374  L6,18.75  L6,19.8626  L6,20.9194  L6,21.8674  L6,22.6592  L6,23.2548  L6,23.6246  L6,23.75 "
           id="path385" />
        <path
           id="141"
           d=" M 0 99 L 6 99 " />
        <path
           d="M6,99 L6,98.8746  L6,98.5048  L6,97.9092  L6,97.1174  L6,96.1694  L6,95.1126  L6,94  L6,92.8874  L6,91.8306  L6,90.8826  L6,90.0908  L6,89.4952  L6,89.1254  L6,89 "
           id="path388" />
        <path
           d="M6,89 L6,89.1254  L6,89.4952  L6,90.0908  L6,90.8826  L6,91.8306  L6,92.8874  L6,94  L6,95.1126  L6,96.1694  L6,97.1174  L6,97.9092  L6,98.5048  L6,98.8746  L6,99 "
           id="path390" />
        <path
           id="144"
           d=" M 0 99 L 6 99 " />
        <path
           d="M6,99 L6,98.8746  L6,98.5048  L6,97.9092  L6,97.1174  L6,96.1694  L6,95.1126  L6,94  L6,92.8874  L6,91.8306  L6,90.8826  L6,90.0908  L6,89.4952  L6,89.1254  L6,89 "
           id="path393" />
        <path
           d="M6,89 L6,89.1254  L6,89.4952  L6,90.0908  L6,90.8826  L6,91.8306  L6,92.8874  L6,94  L6,95.1126  L6,96.1694  L6,97.1174  L6,97.9092  L6,98.5048  L6,98.8746  L6,99 "
           id="path395" />
        <path
           id="147"
           d=" M 0 134 L 6 134 " />
        <path
           d="M6,134 L6,133.875  L6,133.505  L6,132.909  L6,132.117  L6,131.169  L6,130.113  L6,129  L6,127.887  L6,126.831  L6,125.883  L6,125.091  L6,124.495  L6,124.125  L6,124 "
           id="path398" />
        <path
           d="M6,124 L6,124.125  L6,124.495  L6,125.091  L6,125.883  L6,126.831  L6,127.887  L6,129  L6,130.113  L6,131.169  L6,132.117  L6,132.909  L6,133.505  L6,133.875  L6,134 "
           id="path400" />
        <path
           id="150"
           d=" M 0 23.75 L 6 23.75 " />
        <path
           d="M6,23.75 L6,23.6246  L6,23.2548  L6,22.6592  L6,21.8674  L6,20.9194  L6,19.8626  L6,18.75  L6,17.6374  L6,16.5806  L6,15.6326  L6,14.8408  L6,14.2452  L6,13.8754  L6,13.75 "
           id="path403" />
        <path
           d="M6,13.75 L6,13.8754  L6,14.2452  L6,14.8408  L6,15.6326  L6,16.5806  L6,17.6374  L6,18.75  L6,19.8626  L6,20.9194  L6,21.8674  L6,22.6592  L6,23.2548  L6,23.6246  L6,23.75 "
           id="path405" />
        <path
           id="153"
           d=" M 0 134 L 6 134 " />
        <path
           d="M6,134 L6,133.875  L6,133.505  L6,132.909  L6,132.117  L6,131.169  L6,130.113  L6,129  L6,127.887  L6,126.831  L6,125.883  L6,125.091  L6,124.495  L6,124.125  L6,124 "
           id="path408" />
        <path
           d="M6,124 L6,124.125  L6,124.495  L6,125.091  L6,125.883  L6,126.831  L6,127.887  L6,129  L6,130.113  L6,131.169  L6,132.117  L6,132.909  L6,133.505  L6,133.875  L6,134 "
           id="path410" />
        <path
           id="156"
           d=" M 0 134 L 6 134 " />
        <path
           d="M6,134 L6,133.875  L6,133.505  L6,132.909  L6,132.117  L6,131.169  L6,130.113  L6,129  L6,127.887  L6,126.831  L6,125.883  L6,125.091  L6,124.495  L6,124.125  L6,124 "
           id="path413" />
        <path
           d="M6,124 L6,124.125  L6,124.495  L6,125.091  L6,125.883  L6,126.831  L6,127.887  L6,129  L6,130.113  L6,131.169  L6,132.117  L6,132.909  L6,133.505  L6,133.875  L6,134 "
           id="path415" />
        <path
           id="159"
           d=" M 0 134 L 6 134 " />
        <path
           d="M6,134 L6,133.875  L6,133.505  L6,132.909  L6,132.117  L6,131.169  L6,130.113  L6,129  L6,127.887  L6,126.831  L6,125.883  L6,125.091  L6,124.495  L6,124.125  L6,124 "
           id="path418" />
        <path
           d="M6,124 L6,124.125  L6,124.495  L6,125.091  L6,125.883  L6,126.831  L6,127.887  L6,129  L6,130.113  L6,131.169  L6,132.117  L6,132.909  L6,133.505  L6,133.875  L6,134 "
           id="path420" />
        <path
           id="162"
           d=" M 0 -124 L 6 -124 " />
        <path
           d="M6,-124 L6,-124.125  L6,-124.495  L6,-125.091  L6,-125.883  L6,-126.831  L6,-127.887  L6,-129  L6,-130.113  L6,-131.169  L6,-132.117  L6,-132.909  L6,-133.505  L6,-133.875  L6,-134 "
           id="path423" />
        <path
           d="M6,-134 L6,-133.875  L6,-133.505  L6,-132.909  L6,-132.117  L6,-131.169  L6,-130.113  L6,-129  L6,-127.887  L6,-126.831  L6,-125.883  L6,-125.091  L6,-124.495  L6,-124.125  L6,-124 "
           id="path425" />
        <path
           id="165"
           d=" M 10 97 L 6 97 " />
        <path
           d="M6,97 L6,96.9248  L6,96.7029  L6,96.3455  L6,95.8705  L6,95.3017  L6,94.6676  L6,94  L6,93.3324  L6,92.6983  L6,92.1295  L6,91.6545  L6,91.2971  L6,91.0752  L6,91 "
           id="path428" />
        <path
           d="M6,91 L6,91.0752  L6,91.2971  L6,91.6545  L6,92.1295  L6,92.6983  L6,93.3324  L6,94  L6,94.6676  L6,95.3017  L6,95.8705  L6,96.3455  L6,96.7029  L6,96.9248  L6,97 "
           id="path430" />
        <path
           id="168"
           d=" M 10 132 L 6 132 " />
        <path
           d="M6,132 L6,131.925  L6,131.703  L6,131.345  L6,130.87  L6,130.302  L6,129.668  L6,129  L6,128.332  L6,127.698  L6,127.13  L6,126.655  L6,126.297  L6,126.075  L6,126 "
           id="path433" />
        <path
           d="M6,126 L6,126.075  L6,126.297  L6,126.655  L6,127.13  L6,127.698  L6,128.332  L6,129  L6,129.668  L6,130.302  L6,130.87  L6,131.345  L6,131.703  L6,131.925  L6,132 "
           id="path435" />
        <path
           id="171"
           d=" M 10 132 L 6 132 " />
        <path
           d="M6,132 L6,131.925  L6,131.703  L6,131.345  L6,130.87  L6,130.302  L6,129.668  L6,129  L6,128.332  L6,127.698  L6,127.13  L6,126.655  L6,126.297  L6,126.075  L6,126 "
           id="path438" />
        <path
           d="M6,126 L6,126.075  L6,126.297  L6,126.655  L6,127.13  L6,127.698  L6,128.332  L6,129  L6,129.668  L6,130.302  L6,130.87  L6,131.345  L6,131.703  L6,131.925  L6,132 "
           id="path440" />
        <path
           id="174"
           d=" M 10 97 L 6 97 " />
        <path
           d="M6,97 L6,96.9248  L6,96.7029  L6,96.3455  L6,95.8705  L6,95.3017  L6,94.6676  L6,94  L6,93.3324  L6,92.6983  L6,92.1295  L6,91.6545  L6,91.2971  L6,91.0752  L6,91 "
           id="path443" />
        <path
           d="M6,91 L6,91.0752  L6,91.2971  L6,91.6545  L6,92.1295  L6,92.6983  L6,93.3324  L6,94  L6,94.6676  L6,95.3017  L6,95.8705  L6,96.3455  L6,96.7029  L6,96.9248  L6,97 "
           id="path445" />
        <path
           id="177"
           d=" M 10 -126 L 6 -126 " />
        <path
           d="M6,-126 L6,-126.075  L6,-126.297  L6,-126.655  L6,-127.13  L6,-127.698  L6,-128.332  L6,-129  L6,-129.668  L6,-130.302  L6,-130.87  L6,-131.345  L6,-131.703  L6,-131.925  L6,-132 "
           id="path448" />
        <path
           d="M6,-132 L6,-131.925  L6,-131.703  L6,-131.345  L6,-130.87  L6,-130.302  L6,-129.668  L6,-129  L6,-128.332  L6,-127.698  L6,-127.13  L6,-126.655  L6,-126.297  L6,-126.075  L6,-126 "
           id="path450" />
        <path
           id="180"
           d=" M 10 -91 L 6 -91 " />
        <path
           d="M6,-91 L6,-91.0752  L6,-91.2971  L6,-91.6545  L6,-92.1295  L6,-92.6983  L6,-93.3324  L6,-94  L6,-94.6676  L6,-95.3017  L6,-95.8705  L6,-96.3455  L6,-96.7029  L6,-96.9248  L6,-97 "
           id="path453" />
        <path
           d="M6,-97 L6,-96.9248  L6,-96.7029  L6,-96.3455  L6,-95.8705  L6,-95.3017  L6,-94.6676  L6,-94  L6,-93.3324  L6,-92.6983  L6,-92.1295  L6,-91.6545  L6,-91.2971  L6,-91.0752  L6,-91 "
           id="path455" />
        <path
           id="183"
           d=" M 10 -91 L 6 -91 " />
        <path
           d="M6,-91 L6,-91.0752  L6,-91.2971  L6,-91.6545  L6,-92.1295  L6,-92.6983  L6,-93.3324  L6,-94  L6,-94.6676  L6,-95.3017  L6,-95.8705  L6,-96.3455  L6,-96.7029  L6,-96.9248  L6,-97 "
           id="path458" />
        <path
           d="M6,-97 L6,-96.9248  L6,-96.7029  L6,-96.3455  L6,-95.8705  L6,-95.3017  L6,-94.6676  L6,-94  L6,-93.3324  L6,-92.6983  L6,-92.1295  L6,-91.6545  L6,-91.2971  L6,-91.0752  L6,-91 "
           id="path460" />
        <path
           id="186"
           d=" M 10 -126 L 6 -126 " />
        <path
           d="M6,-126 L6,-126.075  L6,-126.297  L6,-126.655  L6,-127.13  L6,-127.698  L6,-128.332  L6,-129  L6,-129.668  L6,-130.302  L6,-130.87  L6,-131.345  L6,-131.703  L6,-131.925  L6,-132 "
           id="path463" />
        <path
           d="M6,-132 L6,-131.925  L6,-131.703  L6,-131.345  L6,-130.87  L6,-130.302  L6,-129.668  L6,-129  L6,-128.332  L6,-127.698  L6,-127.13  L6,-126.655  L6,-126.297  L6,-126.075  L6,-126 "
           id="path465" />
        <path
           id="189"
           d=" M 10 132 L 6 132 " />
        <path
           d="M6,132 L6,131.925  L6,131.703  L6,131.345  L6,130.87  L6,130.302  L6,129.668  L6,129  L6,128.332  L6,127.698  L6,127.13  L6,126.655  L6,126.297  L6,126.075  L6,126 "
           id="path468" />
        <path
           d="M6,126 L6,126.075  L6,126.297  L6,126.655  L6,127.13  L6,127.698  L6,128.332  L6,129  L6,129.668  L6,130.302  L6,130.87  L6,131.345  L6,131.703  L6,131.925  L6,132 "
           id="path470" />
        <path
           id="192"
           d=" M 10 97 L 6 97 " />
        <path
           d="M6,97 L6,96.9248  L6,96.7029  L6,96.3455  L6,95.8705  L6,95.3017  L6,94.6676  L6,94  L6,93.3324  L6,92.6983  L6,92.1295  L6,91.6545  L6,91.2971  L6,91.0752  L6,91 "
           id="path473" />
        <path
           d="M6,91 L6,91.0752  L6,91.2971  L6,91.6545  L6,92.1295  L6,92.6983  L6,93.3324  L6,94  L6,94.6676  L6,95.3017  L6,95.8705  L6,96.3455  L6,96.7029  L6,96.9248  L6,97 "
           id="path475" />
        <path
           id="195"
           d=" M 10 97 L 6 97 " />
        <path
           d="M6,97 L6,96.9248  L6,96.7029  L6,96.3455  L6,95.8705  L6,95.3017  L6,94.6676  L6,94  L6,93.3324  L6,92.6983  L6,92.1295  L6,91.6545  L6,91.2971  L6,91.0752  L6,91 "
           id="path478" />
        <path
           d="M6,91 L6,91.0752  L6,91.2971  L6,91.6545  L6,92.1295  L6,92.6983  L6,93.3324  L6,94  L6,94.6676  L6,95.3017  L6,95.8705  L6,96.3455  L6,96.7029  L6,96.9248  L6,97 "
           id="path480" />
        <path
           id="198"
           d=" M 10 132 L 6 132 " />
        <path
           d="M6,132 L6,131.925  L6,131.703  L6,131.345  L6,130.87  L6,130.302  L6,129.668  L6,129  L6,128.332  L6,127.698  L6,127.13  L6,126.655  L6,126.297  L6,126.075  L6,126 "
           id="path483" />
        <path
           d="M6,126 L6,126.075  L6,126.297  L6,126.655  L6,127.13  L6,127.698  L6,128.332  L6,129  L6,129.668  L6,130.302  L6,130.87  L6,131.345  L6,131.703  L6,131.925  L6,132 "
           id="path485" />
        <path
           id="201"
           d=" M 10 -126 L 6 -126 " />
        <path
           d="M6,-126 L6,-126.075  L6,-126.297  L6,-126.655  L6,-127.13  L6,-127.698  L6,-128.332  L6,-129  L6,-129.668  L6,-130.302  L6,-130.87  L6,-131.345  L6,-131.703  L6,-131.925  L6,-132 "
           id="path488" />
        <path
           d="M6,-132 L6,-131.925  L6,-131.703  L6,-131.345  L6,-130.87  L6,-130.302  L6,-129.668  L6,-129  L6,-128.332  L6,-127.698  L6,-127.13  L6,-126.655  L6,-126.297  L6,-126.075  L6,-126 "
           id="path490" />
        <path
           id="204"
           d=" M 10 -126 L 6 -126 " />
        <path
           d="M6,-126 L6,-126.075  L6,-126.297  L6,-126.655  L6,-127.13  L6,-127.698  L6,-128.332  L6,-129  L6,-129.668  L6,-130.302  L6,-130.87  L6,-131.345  L6,-131.703  L6,-131.925  L6,-132 "
           id="path493" />
        <path
           d="M6,-132 L6,-131.925  L6,-131.703  L6,-131.345  L6,-130.87  L6,-130.302  L6,-129.668  L6,-129  L6,-128.332  L6,-127.698  L6,-127.13  L6,-126.655  L6,-126.297  L6,-126.075  L6,-126 "
           id="path495" />
        <path
           id="207"
           d=" M 10 -91 L 6 -91 " />
        <path
           d="M6,-91 L6,-91.0752  L6,-91.2971  L6,-91.6545  L6,-92.1295  L6,-92.6983  L6,-93.3324  L6,-94  L6,-94.6676  L6,-95.3017  L6,-95.8705  L6,-96.3455  L6,-96.7029  L6,-96.9248  L6,-97 "
           id="path498" />
        <path
           d="M6,-97 L6,-96.9248  L6,-96.7029  L6,-96.3455  L6,-95.8705  L6,-95.3017  L6,-94.6676  L6,-94  L6,-93.3324  L6,-92.6983  L6,-92.1295  L6,-91.6545  L6,-91.2971  L6,-91.0752  L6,-91 "
           id="path500" />
        <path
           id="210"
           d=" M 10 -91 L 6 -91 " />
        <path
           d="M6,-91 L6,-91.0752  L6,-91.2971  L6,-91.6545  L6,-92.1295  L6,-92.6983  L6,-93.3324  L6,-94  L6,-94.6676  L6,-95.3017  L6,-95.8705  L6,-96.3455  L6,-96.7029  L6,-96.9248  L6,-97 "
           id="path503" />
        <path
           d="M6,-97 L6,-96.9248  L6,-96.7029  L6,-96.3455  L6,-95.8705  L6,-95.3017  L6,-94.6676  L6,-94  L6,-93.3324  L6,-92.6983  L6,-92.1295  L6,-91.6545  L6,-91.2971  L6,-91.0752  L6,-91 "
           id="path505" />
        <path
           id="213"
           d=" M 10 -16.25 L 6 -16.25 " />
        <path
           d="M6,-16.25 L6,-16.3127  L6,-16.4976  L6,-16.7954  L6,-17.1913  L6,-17.6653  L6,-18.1937  L6,-18.75  L6,-19.3063  L6,-19.8347  L6,-20.3087  L6,-20.7046  L6,-21.0024  L6,-21.1873  L6,-21.25 "
           id="path508" />
        <path
           d="M6,-21.25 L6,-21.1873  L6,-21.0024  L6,-20.7046  L6,-20.3087  L6,-19.8347  L6,-19.3063  L6,-18.75  L6,-18.1937  L6,-17.6653  L6,-17.1913  L6,-16.7954  L6,-16.4976  L6,-16.3127  L6,-16.25 "
           id="path510" />
        <path
           id="216"
           d=" M 10 -16.25 L 6 -16.25 " />
        <path
           d="M6,-16.25 L6,-16.3127  L6,-16.4976  L6,-16.7954  L6,-17.1913  L6,-17.6653  L6,-18.1937  L6,-18.75  L6,-19.3063  L6,-19.8347  L6,-20.3087  L6,-20.7046  L6,-21.0024  L6,-21.1873  L6,-21.25 "
           id="path513" />
        <path
           d="M6,-21.25 L6,-21.1873  L6,-21.0024  L6,-20.7046  L6,-20.3087  L6,-19.8347  L6,-19.3063  L6,-18.75  L6,-18.1937  L6,-17.6653  L6,-17.1913  L6,-16.7954  L6,-16.4976  L6,-16.3127  L6,-16.25 "
           id="path515" />
        <path
           id="219"
           d=" M 10 21.25 L 6 21.25 " />
        <path
           d="M6,21.25 L6,21.1873  L6,21.0024  L6,20.7046  L6,20.3087  L6,19.8347  L6,19.3063  L6,18.75  L6,18.1937  L6,17.6653  L6,17.1913  L6,16.7954  L6,16.4976  L6,16.3127  L6,16.25 "
           id="path518" />
        <path
           d="M6,16.25 L6,16.3127  L6,16.4976  L6,16.7954  L6,17.1913  L6,17.6653  L6,18.1937  L6,18.75  L6,19.3063  L6,19.8347  L6,20.3087  L6,20.7046  L6,21.0024  L6,21.1873  L6,21.25 "
           id="path520" />
        <path
           id="222"
           d=" M 10 21.25 L 6 21.25 " />
        <path
           d="M6,21.25 L6,21.1873  L6,21.0024  L6,20.7046  L6,20.3087  L6,19.8347  L6,19.3063  L6,18.75  L6,18.1937  L6,17.6653  L6,17.1913  L6,16.7954  L6,16.4976  L6,16.3127  L6,16.25 "
           id="path523" />
        <path
           d="M6,16.25 L6,16.3127  L6,16.4976  L6,16.7954  L6,17.1913  L6,17.6653  L6,18.1937  L6,18.75  L6,19.3063  L6,19.8347  L6,20.3087  L6,20.7046  L6,21.0024  L6,21.1873  L6,21.25 "
           id="path525" />
      </g>
      <g
         stroke="rgb(0, 0, 0)"
         stroke-width="0.3"
         stroke-linecap="butt"
         stroke-linejoin="miter"
         stroke-dasharray="0.02,0.1"
         fill="none"
         transform="scale(1,-1)"
         id="g527">
        <path
           id="path529"
           d=" M 0 146 L 10 146 " />
        <path
           id="path531"
           d=" M 0 146 L 10 146 " />
        <path
           id="path533"
           d=" M 0 -152 L 10 -152 " />
        <path
           id="4"
           d=" M 0 -152 L 10 -152 " />
        <path
           id="5"
           d=" M 6 -134 L 0 -134 " />
        <path
           id="6"
           d=" M 6 -134 L 0 -134 " />
        <path
           id="7"
           d=" M 6 -134 L 0 -134 " />
        <path
           id="8"
           d=" M 6 -99 L 0 -99 " />
        <path
           id="9"
           d=" M 6 -99 L 0 -99 " />
        <path
           id="10"
           d=" M 6 -99 L 0 -99 " />
        <path
           id="11"
           d=" M 6 -99 L 0 -99 " />
        <path
           id="12"
           d=" M 6 89 L 0 89 " />
        <path
           id="13"
           d=" M 6 89 L 0 89 " />
        <path
           id="14"
           d=" M 6 -23.75 L 0 -23.75 " />
        <path
           id="15"
           d=" M 6 -23.75 L 0 -23.75 " />
        <path
           id="16"
           d=" M 6 13.75 L 0 13.75 " />
        <path
           id="17"
           d=" M 6 89 L 0 89 " />
        <path
           id="18"
           d=" M 6 89 L 0 89 " />
        <path
           id="19"
           d=" M 6 124 L 0 124 " />
        <path
           id="20"
           d=" M 6 13.75 L 0 13.75 " />
        <path
           id="21"
           d=" M 6 124 L 0 124 " />
        <path
           id="22"
           d=" M 6 124 L 0 124 " />
        <path
           id="23"
           d=" M 6 124 L 0 124 " />
        <path
           id="24"
           d=" M 6 -134 L 0 -134 " />
        <path
           id="25"
           d=" M 6 91 L 10 91 " />
        <path
           id="26"
           d=" M 6 126 L 10 126 " />
        <path
           id="27"
           d=" M 6 126 L 10 126 " />
        <path
           id="28"
           d=" M 6 91 L 10 91 " />
        <path
           id="29"
           d=" M 6 -132 L 10 -132 " />
        <path
           id="30"
           d=" M 6 -97 L 10 -97 " />
        <path
           id="31"
           d=" M 6 -97 L 10 -97 " />
        <path
           id="32"
           d=" M 6 -132 L 10 -132 " />
        <path
           id="33"
           d=" M 6 126 L 10 126 " />
        <path
           id="34"
           d=" M 6 91 L 10 91 " />
        <path
           id="35"
           d=" M 6 91 L 10 91 " />
        <path
           id="36"
           d=" M 6 126 L 10 126 " />
        <path
           id="37"
           d=" M 6 -132 L 10 -132 " />
        <path
           id="38"
           d=" M 6 -132 L 10 -132 " />
        <path
           id="39"
           d=" M 6 -97 L 10 -97 " />
        <path
           id="40"
           d=" M 6 -97 L 10 -97 " />
        <path
           id="41"
           d=" M 6 -21.25 L 10 -21.25 " />
        <path
           id="42"
           d=" M 6 -21.25 L 10 -21.25 " />
        <path
           id="43"
           d=" M 6 16.25 L 10 16.25 " />
        <path
           id="44"
           d=" M 6 16.25 L 10 16.25 " />
      </g>
      <g
         stroke="rgb(0, 0, 0)"
         stroke-width="0.7"
         stroke-linecap="butt"
         stroke-linejoin="miter"
         fill="none"
         transform="scale(1,-1)"
         id="g576">
        <path
           id="path578"
           d=" M 0 -180 L 10 -180 " />
        <path
           id="path580"
           d=" M 0 180 L 10 180 " />
        <path
           id="path582"
           d=" M 0 -180 L 0 180 " />
        <path
           id="path584"
           d=" M 10 -180 L 10 180 " />
      </g>
    </g>
    <g
       id="g586">
      <line
         x1="143.125000"
         y1="88.000000"
         x2="143.125000"
         y2="84.574062"
         style="stroke:rgb(0,0,255);stroke-width:0.30"
         id="line588" />
      <line
         x1="148.062300"
         y1="88.000000"
         x2="148.062300"
         y2="84.574062"
         style="stroke:rgb(0,0,255);stroke-width:0.30"
         id="line590" />
      <line
         x1="143.125000"
         y1="85.574062"
         x2="148.062300"
         y2="85.574062"
         style="stroke:rgb(0,0,255);stroke-width:0.30"
         id="line592" />
      <polygon
         points="143.125000,85.574062 140.125000,84.574062 139.125000,85.574062 140.125000,86.574062"
         style="fill:rgb(0,0,255);stroke:rgb(0,0,255);stroke-width:0"
         id="polygon594" />
      <polygon
         points="148.062300,85.574062 151.062300,86.574062 152.062300,85.574062 151.062300,84.574062"
         style="fill:rgb(0,0,255);stroke:rgb(0,0,255);stroke-width:0"
         id="polygon596" />
      <text
         x="141.542916"
         y="82.280756"
         font-family="Verdana"
         font-size="3.6"
         fill="rgb(255,0,0)"
         text-anchor="inherit"
         id="text598">10mm</text>
    </g>
    <g
       id="g600">
      <line
         x1="161.875000"
         y1="88.000000"
         x2="161.875000"
         y2="84.717394"
         style="stroke:rgb(0,0,255);stroke-width:0.30"
         id="line602" />
      <line
         x1="166.875000"
         y1="88.000000"
         x2="166.875000"
         y2="84.717394"
         style="stroke:rgb(0,0,255);stroke-width:0.30"
         id="line604" />
      <line
         x1="161.875000"
         y1="85.717394"
         x2="166.875000"
         y2="85.717394"
         style="stroke:rgb(0,0,255);stroke-width:0.30"
         id="line606" />
      <polygon
         points="161.875000,85.717394 158.875000,84.717394 157.875000,85.717394 158.875000,86.717394"
         style="fill:rgb(0,0,255);stroke:rgb(0,0,255);stroke-width:0"
         id="polygon608" />
      <polygon
         points="166.875000,85.717394 169.875000,86.717394 170.875000,85.717394 169.875000,84.717394"
         style="fill:rgb(0,0,255);stroke:rgb(0,0,255);stroke-width:0"
         id="polygon610" />
      <text
         x="160.629764"
         y="82.495215"
         font-family="Verdana"
         font-size="3.6"
         fill="rgb(255,0,0)"
         text-anchor="inherit"
         id="text612">10mm</text>
    </g>
    <g
       id="g614">
      <line
         x1="247.000000"
         y1="90.000000"
         x2="250.354778"
         y2="90.000000"
         style="stroke:rgb(0,0,255);stroke-width:0.30"
         id="line616" />
      <line
         x1="247.000000"
         y1="95.000000"
         x2="250.354778"
         y2="95.000000"
         style="stroke:rgb(0,0,255);stroke-width:0.30"
         id="line618" />
      <line
         x1="249.354778"
         y1="90.000000"
         x2="249.354778"
         y2="95.000000"
         style="stroke:rgb(0,0,255);stroke-width:0.30"
         id="line620" />
      <polygon
         points="249.354778,90.000000 250.354778,87.000000 249.354778,86.000000 248.354778,87.000000"
         style="fill:rgb(0,0,255);stroke:rgb(0,0,255);stroke-width:0"
         id="polygon622" />
      <polygon
         points="249.354778,95.000000 248.354778,98.000000 249.354778,99.000000 250.354778,98.000000"
         style="fill:rgb(0,0,255);stroke:rgb(0,0,255);stroke-width:0"
         id="polygon624" />
      <text
         x="254.246909"
         y="96.691524"
         font-family="Verdana"
         font-size="3.6"
         fill="rgb(255,0,0)"
         text-anchor="inherit"
         transform="rotate(-90.000000 254.246909,96.691524)"
         id="text626">10mm</text>
    </g>
    <g
       id="g628">
      <line
         x1="88.000000"
         y1="88.000000"
         x2="88.000000"
         y2="84.871066"
         style="stroke:rgb(0,0,255);stroke-width:0.30"
         id="line630" />
      <line
         x1="93.000000"
         y1="88.000000"
         x2="93.000000"
         y2="84.871066"
         style="stroke:rgb(0,0,255);stroke-width:0.30"
         id="line632" />
      <line
         x1="88.000000"
         y1="85.871066"
         x2="93.000000"
         y2="85.871066"
         style="stroke:rgb(0,0,255);stroke-width:0.30"
         id="line634" />
      <polygon
         points="88.000000,85.871066 85.000000,84.871066 84.000000,85.871066 85.000000,86.871066"
         style="fill:rgb(0,0,255);stroke:rgb(0,0,255);stroke-width:0"
         id="polygon636" />
      <polygon
         points="93.000000,85.871066 96.000000,86.871066 97.000000,85.871066 96.000000,84.871066"
         style="fill:rgb(0,0,255);stroke:rgb(0,0,255);stroke-width:0"
         id="polygon638" />
      <text
         x="86.060209"
         y="83.790489"
         font-family="Verdana"
         font-size="3.6"
         fill="rgb(255,0,0)"
         text-anchor="inherit"
         id="text640">10mm</text>
    </g>
    <g
       id="g642">
      <line
         x1="105.500000"
         y1="88.000000"
         x2="105.500000"
         y2="84.904278"
         style="stroke:rgb(0,0,255);stroke-width:0.30"
         id="line644" />
      <line
         x1="110.500000"
         y1="88.000000"
         x2="110.500000"
         y2="84.904278"
         style="stroke:rgb(0,0,255);stroke-width:0.30"
         id="line646" />
      <line
         x1="105.500000"
         y1="85.904278"
         x2="110.500000"
         y2="85.904278"
         style="stroke:rgb(0,0,255);stroke-width:0.30"
         id="line648" />
      <polygon
         points="105.500000,85.904278 102.500000,84.904278 101.500000,85.904278 102.500000,86.904278"
         style="fill:rgb(0,0,255);stroke:rgb(0,0,255);stroke-width:0"
         id="polygon650" />
      <polygon
         points="110.500000,85.904278 113.500000,86.904278 114.500000,85.904278 113.500000,84.904278"
         style="fill:rgb(0,0,255);stroke:rgb(0,0,255);stroke-width:0"
         id="polygon652" />
      <text
         x="104.500681"
         y="83.753202"
         font-family="Verdana"
         font-size="3.6"
         fill="rgb(255,0,0)"
         text-anchor="inherit"
         id="text654">10mm</text>
    </g>
    <g
       id="g656">
      <line
         x1="199.500000"
         y1="88.000000"
         x2="199.500000"
         y2="85.046101"
         style="stroke:rgb(0,0,255);stroke-width:0.30"
         id="line658" />
      <line
         x1="204.500000"
         y1="88.000000"
         x2="204.500000"
         y2="85.046101"
         style="stroke:rgb(0,0,255);stroke-width:0.30"
         id="line660" />
      <line
         x1="199.500000"
         y1="86.046101"
         x2="204.500000"
         y2="86.046101"
         style="stroke:rgb(0,0,255);stroke-width:0.30"
         id="line662" />
      <polygon
         points="199.500000,86.046101 196.500000,85.046101 195.500000,86.046101 196.500000,87.046101"
         style="fill:rgb(0,0,255);stroke:rgb(0,0,255);stroke-width:0"
         id="polygon664" />
      <polygon
         points="204.500000,86.046101 207.500000,87.046101 208.500000,86.046101 207.500000,85.046101"
         style="fill:rgb(0,0,255);stroke:rgb(0,0,255);stroke-width:0"
         id="polygon666" />
      <text
         x="197.860425"
         y="84.069777"
         font-family="Verdana"
         font-size="3.6"
         fill="rgb(255,0,0)"
         text-anchor="inherit"
         id="text668">10mm</text>
    </g>
    <g
       id="g670">
      <line
         x1="217.000000"
         y1="88.000000"
         x2="217.000000"
         y2="85.110519"
         style="stroke:rgb(0,0,255);stroke-width:0.30"
         id="line672" />
      <line
         x1="222.000000"
         y1="88.000000"
         x2="222.000000"
         y2="85.110519"
         style="stroke:rgb(0,0,255);stroke-width:0.30"
         id="line674" />
      <line
         x1="217.000000"
         y1="86.110519"
         x2="222.000000"
         y2="86.110519"
         style="stroke:rgb(0,0,255);stroke-width:0.30"
         id="line676" />
      <polygon
         points="217.000000,86.110519 214.000000,85.110519 213.000000,86.110519 214.000000,87.110519"
         style="fill:rgb(0,0,255);stroke:rgb(0,0,255);stroke-width:0"
         id="polygon678" />
      <polygon
         points="222.000000,86.110519 225.000000,87.110519 226.000000,86.110519 225.000000,85.110519"
         style="fill:rgb(0,0,255);stroke:rgb(0,0,255);stroke-width:0"
         id="polygon680" />
      <text
         x="215.878638"
         y="84.375780"
         font-family="Verdana"
         font-size="3.6"
         fill="rgb(255,0,0)"
         text-anchor="inherit"
         id="text682">10mm</text>
    </g>
    <g
       id="g684">
      <line
         x1="89.000000"
         y1="97.000000"
         x2="89.000000"
         y2="99.533178"
         style="stroke:rgb(0,0,255);stroke-width:0.30"
         id="line686" />
      <line
         x1="92.000000"
         y1="97.000000"
         x2="92.000000"
         y2="99.533178"
         style="stroke:rgb(0,0,255);stroke-width:0.30"
         id="line688" />
      <line
         x1="89.000000"
         y1="98.533178"
         x2="92.000000"
         y2="98.533178"
         style="stroke:rgb(0,0,255);stroke-width:0.30"
         id="line690" />
      <polygon
         points="89.000000,98.533178 86.000000,97.533178 85.000000,98.533178 86.000000,99.533178"
         style="fill:rgb(0,0,255);stroke:rgb(0,0,255);stroke-width:0"
         id="polygon692" />
      <polygon
         points="92.000000,98.533178 95.000000,99.533178 96.000000,98.533178 95.000000,97.533178"
         style="fill:rgb(0,0,255);stroke:rgb(0,0,255);stroke-width:0"
         id="polygon694" />
      <text
         x="88.009095"
         y="103.621746"
         font-family="Verdana"
         font-size="3.6"
         fill="rgb(255,0,0)"
         text-anchor="inherit"
         id="text696">6mm</text>
    </g>
    <g
       id="g698">
      <line
         x1="106.500000"
         y1="97.000000"
         x2="106.500000"
         y2="99.591003"
         style="stroke:rgb(0,0,255);stroke-width:0.30"
         id="line700" />
      <line
         x1="109.500000"
         y1="97.000000"
         x2="109.500000"
         y2="99.591003"
         style="stroke:rgb(0,0,255);stroke-width:0.30"
         id="line702" />
      <line
         x1="106.500000"
         y1="98.591003"
         x2="109.500000"
         y2="98.591003"
         style="stroke:rgb(0,0,255);stroke-width:0.30"
         id="line704" />
      <polygon
         points="106.500000,98.591003 103.500000,97.591003 102.500000,98.591003 103.500000,99.591003"
         style="fill:rgb(0,0,255);stroke:rgb(0,0,255);stroke-width:0"
         id="polygon706" />
      <polygon
         points="109.500000,98.591003 112.500000,99.591003 113.500000,98.591003 112.500000,97.591003"
         style="fill:rgb(0,0,255);stroke:rgb(0,0,255);stroke-width:0"
         id="polygon708" />
      <text
         x="105.516544"
         y="103.418204"
         font-family="Verdana"
         font-size="3.6"
         fill="rgb(255,0,0)"
         text-anchor="inherit"
         id="text710">6mm</text>
    </g>
    <g
       id="g712">
      <line
         x1="144.375000"
         y1="97.000000"
         x2="144.375000"
         y2="99.785789"
         style="stroke:rgb(0,0,255);stroke-width:0.30"
         id="line714" />
      <line
         x1="146.875000"
         y1="97.000000"
         x2="146.875000"
         y2="99.785789"
         style="stroke:rgb(0,0,255);stroke-width:0.30"
         id="line716" />
      <line
         x1="144.375000"
         y1="98.785789"
         x2="146.875000"
         y2="98.785789"
         style="stroke:rgb(0,0,255);stroke-width:0.30"
         id="line718" />
      <polygon
         points="144.375000,98.785789 141.375000,97.785789 140.375000,98.785789 141.375000,99.785789"
         style="fill:rgb(0,0,255);stroke:rgb(0,0,255);stroke-width:0"
         id="polygon720" />
      <polygon
         points="146.875000,98.785789 149.875000,99.785789 150.875000,98.785789 149.875000,97.785789"
         style="fill:rgb(0,0,255);stroke:rgb(0,0,255);stroke-width:0"
         id="polygon722" />
      <text
         x="143.481114"
         y="103.437751"
         font-family="Verdana"
         font-size="3.6"
         fill="rgb(255,0,0)"
         text-anchor="inherit"
         id="text724">5mm</text>
    </g>
    <g
       id="g726">
      <line
         x1="163.125000"
         y1="97.000000"
         x2="163.125000"
         y2="99.880126"
         style="stroke:rgb(0,0,255);stroke-width:0.30"
         id="line728" />
      <line
         x1="165.625000"
         y1="97.000000"
         x2="165.625000"
         y2="99.880126"
         style="stroke:rgb(0,0,255);stroke-width:0.30"
         id="line730" />
      <line
         x1="163.125000"
         y1="98.880126"
         x2="165.625000"
         y2="98.880126"
         style="stroke:rgb(0,0,255);stroke-width:0.30"
         id="line732" />
      <polygon
         points="163.125000,98.880126 160.125000,97.880126 159.125000,98.880126 160.125000,99.880126"
         style="fill:rgb(0,0,255);stroke:rgb(0,0,255);stroke-width:0"
         id="polygon734" />
      <polygon
         points="165.625000,98.880126 168.625000,99.880126 169.625000,98.880126 168.625000,97.880126"
         style="fill:rgb(0,0,255);stroke:rgb(0,0,255);stroke-width:0"
         id="polygon736" />
      <text
         x="162.232796"
         y="103.459837"
         font-family="Verdana"
         font-size="3.6"
         fill="rgb(255,0,0)"
         text-anchor="inherit"
         id="text738">5mm</text>
    </g>
    <g
       id="g740">
      <line
         x1="200.500000"
         y1="97.000000"
         x2="200.500000"
         y2="100.005027"
         style="stroke:rgb(0,0,255);stroke-width:0.30"
         id="line742" />
      <line
         x1="203.500000"
         y1="97.000000"
         x2="203.500000"
         y2="100.005027"
         style="stroke:rgb(0,0,255);stroke-width:0.30"
         id="line744" />
      <line
         x1="200.500000"
         y1="99.005027"
         x2="203.500000"
         y2="99.005027"
         style="stroke:rgb(0,0,255);stroke-width:0.30"
         id="line746" />
      <polygon
         points="200.500000,99.005027 197.500000,98.005027 196.500000,99.005027 197.500000,100.005027"
         style="fill:rgb(0,0,255);stroke:rgb(0,0,255);stroke-width:0"
         id="polygon748" />
      <polygon
         points="203.500000,99.005027 206.500000,100.005027 207.500000,99.005027 206.500000,98.005027"
         style="fill:rgb(0,0,255);stroke:rgb(0,0,255);stroke-width:0"
         id="polygon750" />
      <text
         x="199.508869"
         y="103.418204"
         font-family="Verdana"
         font-size="3.6"
         fill="rgb(255,0,0)"
         text-anchor="inherit"
         id="text752">6mm</text>
    </g>
    <g
       id="g754">
      <line
         x1="218.000000"
         y1="97.000000"
         x2="218.000000"
         y2="100.157684"
         style="stroke:rgb(0,0,255);stroke-width:0.30"
         id="line756" />
      <line
         x1="221.000000"
         y1="97.000000"
         x2="221.000000"
         y2="100.157684"
         style="stroke:rgb(0,0,255);stroke-width:0.30"
         id="line758" />
      <line
         x1="218.000000"
         y1="99.157684"
         x2="221.000000"
         y2="99.157684"
         style="stroke:rgb(0,0,255);stroke-width:0.30"
         id="line760" />
      <polygon
         points="218.000000,99.157684 215.000000,98.157684 214.000000,99.157684 215.000000,100.157684"
         style="fill:rgb(0,0,255);stroke:rgb(0,0,255);stroke-width:0"
         id="polygon762" />
      <polygon
         points="221.000000,99.157684 224.000000,100.157684 225.000000,99.157684 224.000000,98.157684"
         style="fill:rgb(0,0,255);stroke:rgb(0,0,255);stroke-width:0"
         id="polygon764" />
      <text
         x="216.934340"
         y="103.390865"
         font-family="Verdana"
         font-size="3.6"
         fill="rgb(255,0,0)"
         text-anchor="inherit"
         id="text766">6mm</text>
    </g>
    <g
       transform="scale(0.500000,0.500000)"
       stroke="rgb(0,0,255)"
       stroke-width="0.600000"
       id="g768">
      <path
         d="M 176.000000,186.000000 L 180.000000,186.000000 M 184.000000,186.000000 L 196.000000,186.000000 M 200.000000,186.000000 L 204.000000,186.000000 M 208.000000,186.000000 L 220.000000,186.000000 M 224.000000,186.000000 L 228.000000,186.000000 M 232.000000,186.000000 L 244.000000,186.000000 M 248.000000,186.000000 L 252.000000,186.000000 M 256.000000,186.000000 L 268.000000,186.000000 M 272.000000,186.000000 L 276.000000,186.000000 M 280.000000,186.000000 L 292.000000,186.000000 M 296.000000,186.000000 L 300.000000,186.000000 M 304.000000,186.000000 L 316.000000,186.000000 M 320.000000,186.000000 L 324.000000,186.000000 M 328.000000,186.000000 L 340.000000,186.000000 M 344.000000,186.000000 L 348.000000,186.000000 M 352.000000,186.000000 L 364.000000,186.000000 M 368.000000,186.000000 L 372.000000,186.000000 M 376.000000,186.000000 L 388.000000,186.000000 M 392.000000,186.000000 L 396.000000,186.000000 M 400.000000,186.000000 L 412.000000,186.000000 M 416.000000,186.000000 L 420.000000,186.000000 M 424.000000,186.000000 L 436.000000,186.000000 M 440.000000,186.000000 L 444.000000,186.000000 M 448.000000,186.000000 L 453.013602,186.000000 "
         id="path770" />
      <path
         d="M 176.000000,186.000000 L 172.000000,186.000000 M 168.000000,186.000000 L 156.000000,186.000000 M 152.000000,186.000000 L 148.000000,186.000000 M 144.000000,186.000000 L 132.000000,186.000000 M 128.000000,186.000000 L 124.814944,186.000000 "
         id="path772" />
    </g>
    <g
       id="g774">
      <line
         x1="63.000000"
         y1="90.000000"
         x2="53.804981"
         y2="90.000000"
         style="stroke:rgb(0,0,255);stroke-width:0.30"
         id="line776" />
      <line
         x1="60.407472"
         y1="93.000000"
         x2="53.804981"
         y2="93.000000"
         style="stroke:rgb(0,0,255);stroke-width:0.30"
         id="line778" />
      <line
         x1="54.804981"
         y1="90.000000"
         x2="54.804981"
         y2="93.000000"
         style="stroke:rgb(0,0,255);stroke-width:0.30"
         id="line780" />
      <polygon
         points="54.804981,90.000000 55.804981,87.000000 54.804981,86.000000 53.804981,87.000000"
         style="fill:rgb(0,0,255);stroke:rgb(0,0,255);stroke-width:0"
         id="polygon782" />
      <polygon
         points="54.804981,93.000000 53.804981,96.000000 54.804981,97.000000 55.804981,96.000000"
         style="fill:rgb(0,0,255);stroke:rgb(0,0,255);stroke-width:0"
         id="polygon784" />
      <text
         x="52.752645"
         y="92.051085"
         font-family="Verdana"
         font-size="3.6"
         fill="rgb(255,0,0)"
         text-anchor="inherit"
         transform="rotate(-90.000000 52.752645,92.051085)"
         id="text786">6mm</text>
    </g>
    <g
       id="g788">
      <line
         x1="63.000000"
         y1="95.000000"
         x2="42.099063"
         y2="95.000000"
         style="stroke:rgb(0,0,255);stroke-width:0.30"
         id="line790" />
      <line
         x1="60.407472"
         y1="93.000000"
         x2="42.099063"
         y2="93.000000"
         style="stroke:rgb(0,0,255);stroke-width:0.30"
         id="line792" />
      <line
         x1="43.099063"
         y1="95.000000"
         x2="43.099063"
         y2="93.000000"
         style="stroke:rgb(0,0,255);stroke-width:0.30"
         id="line794" />
      <polygon
         points="43.099063,95.000000 42.099063,98.000000 43.099063,99.000000 44.099063,98.000000"
         style="fill:rgb(0,0,255);stroke:rgb(0,0,255);stroke-width:0"
         id="polygon796" />
      <polygon
         points="43.099063,93.000000 44.099063,90.000000 43.099063,89.000000 42.099063,90.000000"
         style="fill:rgb(0,0,255);stroke:rgb(0,0,255);stroke-width:0"
         id="polygon798" />
      <text
         x="41.274764"
         y="97.599995"
         font-family="Verdana"
         font-size="3.6"
         fill="rgb(255,0,0)"
         text-anchor="inherit"
         transform="rotate(-90.000000 41.274764,97.599995)"
         id="text800">4mm</text>
    </g>
    <g
       id="g802">
      <line
         x1="79.000000"
         y1="97.000000"
         x2="79.000000"
         y2="101.734101"
         style="stroke:rgb(0,0,255);stroke-width:0.30"
         id="line804" />
      <line
         x1="82.000000"
         y1="97.000000"
         x2="82.000000"
         y2="101.734101"
         style="stroke:rgb(0,0,255);stroke-width:0.30"
         id="line806" />
      <line
         x1="79.000000"
         y1="100.734101"
         x2="82.000000"
         y2="100.734101"
         style="stroke:rgb(0,0,255);stroke-width:0.30"
         id="line808" />
      <polygon
         points="79.000000,100.734101 76.000000,99.734101 75.000000,100.734101 76.000000,101.734101"
         style="fill:rgb(0,0,255);stroke:rgb(0,0,255);stroke-width:0"
         id="polygon810" />
      <polygon
         points="82.000000,100.734101 85.000000,101.734101 86.000000,100.734101 85.000000,99.734101"
         style="fill:rgb(0,0,255);stroke:rgb(0,0,255);stroke-width:0"
         id="polygon812" />
      <text
         x="76.164482"
         y="105.535695"
         font-family="Verdana"
         font-size="3.6"
         fill="rgb(255,0,0)"
         text-anchor="inherit"
         id="text814">6mm</text>
    </g>
    <g
       id="g816">
      <line
         x1="228.000000"
         y1="97.000000"
         x2="228.000000"
         y2="106.001004"
         style="stroke:rgb(0,0,255);stroke-width:0.30"
         id="line818" />
      <line
         x1="231.000000"
         y1="97.000000"
         x2="231.000000"
         y2="106.001004"
         style="stroke:rgb(0,0,255);stroke-width:0.30"
         id="line820" />
      <line
         x1="228.000000"
         y1="105.001004"
         x2="231.000000"
         y2="105.001004"
         style="stroke:rgb(0,0,255);stroke-width:0.30"
         id="line822" />
      <polygon
         points="228.000000,105.001004 225.000000,104.001004 224.000000,105.001004 225.000000,106.001004"
         style="fill:rgb(0,0,255);stroke:rgb(0,0,255);stroke-width:0"
         id="polygon824" />
      <polygon
         points="231.000000,105.001004 234.000000,106.001004 235.000000,105.001004 234.000000,104.001004"
         style="fill:rgb(0,0,255);stroke:rgb(0,0,255);stroke-width:0"
         id="polygon826" />
      <text
         x="225.383176"
         y="110.081410"
         font-family="Verdana"
         font-size="3.6"
         fill="rgb(255,0,0)"
         text-anchor="inherit"
         id="text828">6mm</text>
    </g>
    <g
       transform="translate(86.98623,-87.001852)"
       id="schriftfeldrahmen"
       style="fill:none;stroke:#000000;stroke-width:0.34999999;stroke-miterlimit:4">
      <rect
         id="schriftfeld-aussen"
         width="180"
         height="36"
         x="20"
         y="251" />
      <path
         inkscape:connector-curvature="0"
         id="schriftfeld-h1"
         d="m 20,260 180,0" />
      <path
         inkscape:connector-curvature="0"
         d="m 89,269 111,0"
         id="schriftfeld-h2" />
      <path
         inkscape:connector-curvature="0"
         id="schriftfeld-h3"
         d="m 149,278 51,0" />
      <path
         inkscape:connector-curvature="0"
         id="schriftfeld-v1"
         d="m 89,251 0,36" />
      <path
         inkscape:connector-curvature="0"
         d="m 45,251 0,9"
         id="schriftfeld-v2" />
      <path
         inkscape:connector-curvature="0"
         id="schriftfeld-v3"
         d="m 132,251 0,9" />
      <path
         inkscape:connector-curvature="0"
         id="schriftfeld-v5"
         d="m 89,251 0,36" />
      <path
         inkscape:connector-curvature="0"
         d="m 149,260 0,27"
         id="schriftfeld-v6" />
      <path
         inkscape:connector-curvature="0"
         id="schriftfeld-v7"
         d="m 156,278 0,9" />
      <path
         inkscape:connector-curvature="0"
         d="m 181,278 0,9"
         id="schriftfeld-v8" />
      <path
         inkscape:connector-curvature="0"
         id="schriftfeld-v9"
         d="m 191,278 0,9" />
    </g>
    <g
       transform="translate(86.98623,-87.001852)"
       id="schriftfeldtext2"
       style="font-style:normal;font-weight:normal;font-size:2px;line-height:125%;font-family:osifont;text-align:start;letter-spacing:0px;word-spacing:0px;writing-mode:lr-tb;text-anchor:start;fill:#000000;fill-opacity:1;stroke:none"
       xml:space="preserve"><text
         y="253"
         x="21"
         id="text24"><tspan
           id="tspan5781"
           y="253"
           x="21">Responsible department</tspan></text>
<text
         x="46"
         y="253"
         id="text27"><tspan
           id="tspan5783"
           x="46"
           y="253">Technical reference</tspan></text>
<text
         y="253"
         x="90"
         id="text30"><tspan
           y="253"
           x="90"
           id="tspan5785">Created by</tspan></text>
<text
         y="253"
         x="132.74214"
         id="text36"><tspan
           y="253"
           x="132.74214"
           id="tspan5789">Classification/key words</tspan></text>
<text
         x="21"
         y="262"
         id="text39"><tspan
           x="21"
           y="262"
           id="tspan5791">Legal owner</tspan></text>
<text
         y="262"
         x="90"
         id="text42"><tspan
           id="tspan5793"
           y="262"
           x="90">Document type</tspan></text>
<text
         x="150"
         y="262"
         id="text45"><tspan
           x="150"
           y="262"
           id="tspan5795">Document status</tspan></text>
<text
         x="90"
         y="271"
         id="text48"><tspan
           x="90"
           y="271"
           id="tspan5797">Title, Supplementary title</tspan></text>
<text
         y="271"
         x="150"
         id="text51"><tspan
           id="tspan5799"
           y="271"
           x="150">Identification number</tspan></text>
<text
         x="150"
         y="280"
         id="text54"><tspan
           x="150"
           y="280"
           id="tspan5801">Rev.</tspan></text>
<text
         y="280"
         x="157"
         id="text57"><tspan
           id="tspan5803"
           y="280"
           x="157">Date of issue</tspan></text>
<text
         x="182"
         y="280"
         id="text60"><tspan
           x="182"
           y="280"
           id="tspan5805">Language</tspan></text>
<text
         y="280"
         x="192"
         id="text63"><tspan
           id="tspan5807"
           y="280"
           x="192">Seg./Sh.</tspan></text>
</g>    <text
       sodipodi:linespacing="125%"
       style="font-style:normal;font-weight:normal;font-size:4px;line-height:125%;font-family:osifont;text-align:start;letter-spacing:0px;word-spacing:0px;writing-mode:lr-tb;text-anchor:start;fill:#000000;fill-opacity:1;stroke:none"
       freecad:editable="IdNumber"
       x="236.98625"
       y="188.99815"
       id="text82">
      <tspan
         x="236.98625"
         y="188.99815"
         id="tspan5829">0001</tspan>
    </text>
    <text
       xml:space="preserve"
       style="font-style:normal;font-weight:normal;font-size:4.93888903px;line-height:125%;font-family:sans-serif;text-align:start;letter-spacing:0px;word-spacing:0px;writing-mode:lr-tb;text-anchor:start;fill:#000000;fill-opacity:1;stroke:none;stroke-width:1px;stroke-linecap:butt;stroke-linejoin:miter;stroke-opacity:1"
       x="182.45576"
       y="171.30205"
       id="text4752"
       sodipodi:linespacing="125%"><tspan
         sodipodi:role="line"
         id="tspan4754"
         x="182.45576"
         y="171.30205">Alan C. Assis</tspan></text>
    <text
       xml:space="preserve"
       style="font-style:normal;font-weight:normal;font-size:3.88055563px;line-height:125%;font-family:sans-serif;text-align:start;letter-spacing:0px;word-spacing:0px;writing-mode:lr-tb;text-anchor:start;fill:#000000;fill-opacity:1;stroke:none;stroke-width:1px;stroke-linecap:butt;stroke-linejoin:miter;stroke-opacity:1"
       x="244.19691"
       y="197.90645"
       id="text4756"
       sodipodi:linespacing="125%"><tspan
         sodipodi:role="line"
         id="tspan4758"
         x="244.19691"
         y="197.90645">2015-03-19</tspan></text>
    <text
       xml:space="preserve"
       style="font-style:normal;font-weight:normal;font-size:4.93888903px;line-height:125%;font-family:sans-serif;letter-spacing:0px;word-spacing:0px;fill:#000000;fill-opacity:1;stroke:none;stroke-width:1px;stroke-linecap:butt;stroke-linejoin:miter;stroke-opacity:1"
       x="182.45015"
       y="193.81729"
       id="text4727"
       sodipodi:linespacing="125%"><tspan
         sodipodi:role="line"
         id="tspan4729"
         x="182.45015"
         y="193.81729">Mesa CNC</tspan></text>
    <text
       xml:space="preserve"
       style="font-style:normal;font-weight:normal;font-size:3.88055563px;line-height:125%;font-family:sans-serif;letter-spacing:0px;word-spacing:0px;fill:#000000;fill-opacity:1;stroke:none;stroke-width:1px;stroke-linecap:butt;stroke-linejoin:miter;stroke-opacity:1"
       x="220.38702"
       y="170.90257"
       id="text4731"
       sodipodi:linespacing="125%"><tspan
         sodipodi:role="line"
         id="tspan4733"
         x="220.38702"
         y="170.90257">Alumnio 7075 ou 6061</tspan></text>
    <text
       xml:space="preserve"
       style="font-style:normal;font-weight:normal;font-size:4.93888903px;line-height:125%;font-family:sans-serif;letter-spacing:0px;word-spacing:0px;fill:#000000;fill-opacity:1;stroke:none;stroke-width:1px;stroke-linecap:butt;stroke-linejoin:miter;stroke-opacity:1"
       x="132.55891"
       y="170.46654"
       id="text4735"
       sodipodi:linespacing="125%"><tspan
         sodipodi:role="line"
         id="tspan4737"
         x="132.55891"
         y="170.46654"
         style="font-size:3.88055563px">Tolerncia:+/-0.1mm</tspan></text>
  </g>
</svg>
