<?xml version="1.0" encoding="UTF-8" standalone="no"?>
<!-- Created with Inkscape (http://www.inkscape.org/) -->

<svg
   xmlns:freecad="http://www.freecadweb.org/wiki/index.php?title=Svg_Namespace"
   xmlns:dc="http://purl.org/dc/elements/1.1/"
   xmlns:cc="http://creativecommons.org/ns#"
   xmlns:rdf="http://www.w3.org/1999/02/22-rdf-syntax-ns#"
   xmlns:svg="http://www.w3.org/2000/svg"
   xmlns="http://www.w3.org/2000/svg"
   xmlns:sodipodi="http://sodipodi.sourceforge.net/DTD/sodipodi-0.dtd"
   xmlns:inkscape="http://www.inkscape.org/namespaces/inkscape"
   width="297mm"
   height="210mm"
   viewBox="0 0 297 210"
   id="svg5211"
   version="1.1"
   inkscape:version="0.91pre2 r"
   sodipodi:docname="mesa_cnc_visaosuperior.svg">
  <defs
     id="defs5213" />
  <sodipodi:namedview
     id="base"
     pagecolor="#ffffff"
     bordercolor="#666666"
     borderopacity="1.0"
     inkscape:pageopacity="0.0"
     inkscape:pageshadow="2"
     inkscape:document-units="mm"
     inkscape:current-layer="layer1"
     showgrid="false"
     fit-margin-top="10"
     fit-margin-left="0"
     fit-margin-right="0"
     fit-margin-bottom="0"
     inkscape:window-width="1366"
     inkscape:window-height="717"
     inkscape:window-x="0"
     inkscape:window-y="0"
     inkscape:window-maximized="1"
     inkscape:zoom="0.63432804"
     inkscape:cx="539.364"
     inkscape:cy="345.67288" />
  <!-- Working space 20 10 287 200 -->
  <!-- Title block 107 164 287 200 -->
  <metadata
     id="metadata5216">
    <rdf:RDF>
      <cc:Work
         rdf:about="">
        <dc:format>image/svg+xml</dc:format>
        <dc:type
           rdf:resource="http://purl.org/dc/dcmitype/StillImage" />
        <dc:title />
      </cc:Work>
    </rdf:RDF>
  </metadata>
  <g
     inkscape:label="Ebene 1"
     inkscape:groupmode="layer"
     id="layer1">
    <rect
       id="zeichenrahmen"
       y="10"
       x="20"
       height="190"
       width="267"
       style="fill:none;stroke:#000000;stroke-width:0.35;stroke-linecap:miter;stroke-miterlimit:4" />
    <!-- width-30, height-20 -->
    <g
       id="View001"
       transform="rotate(0,150,90) translate(150,90) scale(0.35,0.35)">
      <g
         stroke="rgb(0, 0, 0)"
         stroke-width="1"
         stroke-linecap="butt"
         stroke-linejoin="miter"
         fill="none"
         transform="scale(1,-1)"
         id="g125">
        <path
           id="1"
           d=" M 180 180 L -180 180 " />
        <path
           id="2"
           d=" M 180 -180 L 180 180 " />
        <path
           id="3"
           d=" M -180 180 L -180 -180 " />
        <path
           id="4"
           d=" M -180 -180 L 180 -180 " />
        <circle
           cx="-149"
           cy="152"
           r="3"
           id="circle131"
           d="m -146,152 a 3,3 0 0 1 -3,3 3,3 0 0 1 -3,-3 3,3 0 0 1 3,-3 3,3 0 0 1 3,3 z" />
        <circle
           cx="-149"
           cy="-152"
           r="3"
           id="circle133"
           d="m -146,-152 a 3,3 0 0 1 -3,3 3,3 0 0 1 -3,-3 3,3 0 0 1 3,-3 3,3 0 0 1 3,3 z" />
        <circle
           cx="149"
           cy="-152"
           r="3"
           id="circle135"
           d="m 152,-152 a 3,3 0 0 1 -3,3 3,3 0 0 1 -3,-3 3,3 0 0 1 3,-3 3,3 0 0 1 3,3 z" />
        <circle
           cx="149"
           cy="152"
           r="3"
           id="circle137"
           d="m 152,152 a 3,3 0 0 1 -3,3 3,3 0 0 1 -3,-3 3,3 0 0 1 3,-3 3,3 0 0 1 3,3 z" />
        <circle
           cx="129"
           cy="106"
           r="5"
           id="circle139"
           d="m 134,106 a 5,5 0 0 1 -5,5 5,5 0 0 1 -5,-5 5,5 0 0 1 5,-5 5,5 0 0 1 5,5 z" />
        <circle
           cx="129"
           cy="-141"
           r="5"
           id="circle141"
           d="m 134,-141 a 5,5 0 0 1 -5,5 5,5 0 0 1 -5,-5 5,5 0 0 1 5,-5 5,5 0 0 1 5,5 z" />
        <circle
           cx="129"
           cy="141"
           r="5"
           id="circle143"
           d="m 134,141 a 5,5 0 0 1 -5,5 5,5 0 0 1 -5,-5 5,5 0 0 1 5,-5 5,5 0 0 1 5,5 z" />
        <circle
           cx="94"
           cy="-141"
           r="5"
           id="circle145"
           d="m 99,-141 a 5,5 0 0 1 -5,5 5,5 0 0 1 -5,-5 5,5 0 0 1 5,-5 5,5 0 0 1 5,5 z" />
        <circle
           cx="94"
           cy="-106"
           r="5"
           id="circle147"
           d="m 99,-106 a 5,5 0 0 1 -5,5 5,5 0 0 1 -5,-5 5,5 0 0 1 5,-5 5,5 0 0 1 5,5 z" />
        <circle
           cx="94"
           cy="106"
           r="5"
           id="circle149"
           d="m 99,106 a 5,5 0 0 1 -5,5 5,5 0 0 1 -5,-5 5,5 0 0 1 5,-5 5,5 0 0 1 5,5 z" />
        <circle
           cx="94"
           cy="141"
           r="5"
           id="circle151"
           d="m 99,141 a 5,5 0 0 1 -5,5 5,5 0 0 1 -5,-5 5,5 0 0 1 5,-5 5,5 0 0 1 5,5 z" />
        <circle
           cx="-94"
           cy="-106"
           r="5"
           id="circle153"
           d="m -89,-106 a 5,5 0 0 1 -5,5 5,5 0 0 1 -5,-5 5,5 0 0 1 5,-5 5,5 0 0 1 5,5 z" />
        <circle
           cx="-94"
           cy="106"
           r="5"
           id="circle155"
           d="m -89,106 a 5,5 0 0 1 -5,5 5,5 0 0 1 -5,-5 5,5 0 0 1 5,-5 5,5 0 0 1 5,5 z" />
        <circle
           cx="18.75"
           cy="10.75"
           r="5"
           id="circle157"
           d="m 23.75,10.75 a 5,5 0 0 1 -5,5 5,5 0 0 1 -5,-5 5,5 0 0 1 5,-5 5,5 0 0 1 5,5 z" />
        <circle
           cx="18.75"
           cy="-10.75"
           r="5"
           id="circle159"
           d="m 23.75,-10.75 a 5,5 0 0 1 -5,5 5,5 0 0 1 -5,-5 5,5 0 0 1 5,-5 5,5 0 0 1 5,5 z" />
        <circle
           cx="-18.75"
           cy="-10.75"
           r="5"
           id="circle161"
           d="m -13.75,-10.75 a 5,5 0 0 1 -5,5 5,5 0 0 1 -5,-5 5,5 0 0 1 5,-5 5,5 0 0 1 5,5 z" />
        <circle
           cx="-94"
           cy="-141"
           r="5"
           id="circle163"
           d="m -89,-141 a 5,5 0 0 1 -5,5 5,5 0 0 1 -5,-5 5,5 0 0 1 5,-5 5,5 0 0 1 5,5 z" />
        <circle
           cx="-94"
           cy="141"
           r="5"
           id="circle165"
           d="m -89,141 a 5,5 0 0 1 -5,5 5,5 0 0 1 -5,-5 5,5 0 0 1 5,-5 5,5 0 0 1 5,5 z" />
        <circle
           cx="-129"
           cy="-141"
           r="5"
           id="circle167"
           d="m -124,-141 a 5,5 0 0 1 -5,5 5,5 0 0 1 -5,-5 5,5 0 0 1 5,-5 5,5 0 0 1 5,5 z" />
        <circle
           cx="-18.75"
           cy="10.75"
           r="5"
           id="circle169"
           d="m -13.75,10.75 a 5,5 0 0 1 -5,5 5,5 0 0 1 -5,-5 5,5 0 0 1 5,-5 5,5 0 0 1 5,5 z" />
        <circle
           cx="-129"
           cy="106"
           r="5"
           id="circle171"
           d="m -124,106 a 5,5 0 0 1 -5,5 5,5 0 0 1 -5,-5 5,5 0 0 1 5,-5 5,5 0 0 1 5,5 z" />
        <circle
           cx="-129"
           cy="141"
           r="5"
           id="circle173"
           d="m -124,141 a 5,5 0 0 1 -5,5 5,5 0 0 1 -5,-5 5,5 0 0 1 5,-5 5,5 0 0 1 5,5 z" />
        <circle
           cx="-129"
           cy="-106"
           r="5"
           id="circle175"
           d="m -124,-106 a 5,5 0 0 1 -5,5 5,5 0 0 1 -5,-5 5,5 0 0 1 5,-5 5,5 0 0 1 5,5 z" />
        <circle
           cx="129"
           cy="-106"
           r="5"
           id="circle177"
           d="m 134,-106 a 5,5 0 0 1 -5,5 5,5 0 0 1 -5,-5 5,5 0 0 1 5,-5 5,5 0 0 1 5,5 z" />
        <circle
           cx="-94"
           cy="106"
           r="3"
           id="circle179"
           d="m -91,106 a 3,3 0 0 1 -3,3 3,3 0 0 1 -3,-3 3,3 0 0 1 3,-3 3,3 0 0 1 3,3 z" />
        <circle
           cx="-129"
           cy="106"
           r="3"
           id="circle181"
           d="m -126,106 a 3,3 0 0 1 -3,3 3,3 0 0 1 -3,-3 3,3 0 0 1 3,-3 3,3 0 0 1 3,3 z" />
        <circle
           cx="-129"
           cy="141"
           r="3"
           id="circle183"
           d="m -126,141 a 3,3 0 0 1 -3,3 3,3 0 0 1 -3,-3 3,3 0 0 1 3,-3 3,3 0 0 1 3,3 z" />
        <circle
           cx="-94"
           cy="141"
           r="3"
           id="circle185"
           d="m -91,141 a 3,3 0 0 1 -3,3 3,3 0 0 1 -3,-3 3,3 0 0 1 3,-3 3,3 0 0 1 3,3 z" />
        <circle
           cx="129"
           cy="106"
           r="3"
           id="circle187"
           d="m 132,106 a 3,3 0 0 1 -3,3 3,3 0 0 1 -3,-3 3,3 0 0 1 3,-3 3,3 0 0 1 3,3 z" />
        <circle
           cx="94"
           cy="106"
           r="3"
           id="circle189"
           d="m 97,106 a 3,3 0 0 1 -3,3 3,3 0 0 1 -3,-3 3,3 0 0 1 3,-3 3,3 0 0 1 3,3 z" />
        <circle
           cx="94"
           cy="141"
           r="3"
           id="circle191"
           d="m 97,141 a 3,3 0 0 1 -3,3 3,3 0 0 1 -3,-3 3,3 0 0 1 3,-3 3,3 0 0 1 3,3 z" />
        <circle
           cx="129"
           cy="141"
           r="3"
           id="circle193"
           d="m 132,141 a 3,3 0 0 1 -3,3 3,3 0 0 1 -3,-3 3,3 0 0 1 3,-3 3,3 0 0 1 3,3 z" />
        <circle
           cx="-129"
           cy="-141"
           r="3"
           id="circle195"
           d="m -126,-141 a 3,3 0 0 1 -3,3 3,3 0 0 1 -3,-3 3,3 0 0 1 3,-3 3,3 0 0 1 3,3 z" />
        <circle
           cx="-94"
           cy="-141"
           r="3"
           id="circle197"
           d="m -91,-141 a 3,3 0 0 1 -3,3 3,3 0 0 1 -3,-3 3,3 0 0 1 3,-3 3,3 0 0 1 3,3 z" />
        <circle
           cx="-94"
           cy="-106"
           r="3"
           id="circle199"
           d="m -91,-106 a 3,3 0 0 1 -3,3 3,3 0 0 1 -3,-3 3,3 0 0 1 3,-3 3,3 0 0 1 3,3 z" />
        <circle
           cx="-129"
           cy="-106"
           r="3"
           id="circle201"
           d="m -126,-106 a 3,3 0 0 1 -3,3 3,3 0 0 1 -3,-3 3,3 0 0 1 3,-3 3,3 0 0 1 3,3 z" />
        <circle
           cx="129"
           cy="-106"
           r="3"
           id="circle203"
           d="m 132,-106 a 3,3 0 0 1 -3,3 3,3 0 0 1 -3,-3 3,3 0 0 1 3,-3 3,3 0 0 1 3,3 z" />
        <circle
           cx="129"
           cy="-141"
           r="3"
           id="circle205"
           d="m 132,-141 a 3,3 0 0 1 -3,3 3,3 0 0 1 -3,-3 3,3 0 0 1 3,-3 3,3 0 0 1 3,3 z" />
        <circle
           cx="94"
           cy="-106"
           r="3"
           id="circle207"
           d="m 97,-106 a 3,3 0 0 1 -3,3 3,3 0 0 1 -3,-3 3,3 0 0 1 3,-3 3,3 0 0 1 3,3 z" />
        <circle
           cx="94"
           cy="-141"
           r="3"
           id="circle209"
           d="m 97,-141 a 3,3 0 0 1 -3,3 3,3 0 0 1 -3,-3 3,3 0 0 1 3,-3 3,3 0 0 1 3,3 z" />
        <circle
           cx="18.75"
           cy="-10.75"
           r="2.5"
           id="circle211"
           d="m 21.25,-10.75 a 2.5,2.5 0 0 1 -2.5,2.5 2.5,2.5 0 0 1 -2.5,-2.5 2.5,2.5 0 0 1 2.5,-2.5 2.5,2.5 0 0 1 2.5,2.5 z" />
        <circle
           cx="18.75"
           cy="10.75"
           r="2.5"
           id="circle213"
           d="m 21.25,10.75 a 2.5,2.5 0 0 1 -2.5,2.5 2.5,2.5 0 0 1 -2.5,-2.5 2.5,2.5 0 0 1 2.5,-2.5 2.5,2.5 0 0 1 2.5,2.5 z" />
        <circle
           cx="-18.75"
           cy="10.75"
           r="2.5"
           id="circle215"
           d="m -16.25,10.75 a 2.5,2.5 0 0 1 -2.5,2.5 2.5,2.5 0 0 1 -2.5,-2.5 2.5,2.5 0 0 1 2.5,-2.5 2.5,2.5 0 0 1 2.5,2.5 z" />
        <circle
           cx="-18.75"
           cy="-10.75"
           r="2.5"
           id="circle217"
           d="m -16.25,-10.75 a 2.5,2.5 0 0 1 -2.5,2.5 2.5,2.5 0 0 1 -2.5,-2.5 2.5,2.5 0 0 1 2.5,-2.5 2.5,2.5 0 0 1 2.5,2.5 z" />
      </g>
    </g>
    <g
       id="g219">
      <circle
         cx="143.437500"
         cy="86.237500"
         r="0.500000"
         stroke="none"
         fill="rgb(0,0,255)"
         id="circle221" />
      <line
         x1="137.425304"
         y1="76.793466"
         x2="144.377294"
         y2="87.713741"
         style="stroke:rgb(0,0,255);stroke-width:0.30"
         id="line223" />
      <polygon
         points="142.497706,84.761259 141.730196,81.693536 140.349605,81.386995 140.043064,82.767586"
         style="fill:rgb(0,0,255);stroke:rgb(0,0,255);stroke-width:0"
         id="polygon225" />
      <polygon
         points="144.377294,87.713741 145.144804,90.781464 146.525395,91.088005 146.831936,89.707414"
         style="fill:rgb(0,0,255);stroke:rgb(0,0,255);stroke-width:0"
         id="polygon227" />
      <line
         x1="137.425304"
         y1="76.793466"
         x2="118.896049"
         y2="76.793466"
         style="stroke:rgb(0,0,255);stroke-width:0.30"
         id="line229" />
      <text
         x="119.870084"
         y="74.757687"
         font-family="Verdana"
         font-size="3.6"
         fill="rgb(255,0,0)"
         text-anchor="inherit"
         id="text231">4 x 10mm</text>
      <!--3.5-->
      <!--Ø%3.3f-->
    </g>
    <g
       transform="scale(0.350000,0.350000)"
       stroke="rgb(0,0,255)"
       stroke-width="0.857143"
       id="g233">
      <path
         d="M 412.321429,246.392857 L 418.035714,246.392857 M 423.750000,246.392857 L 440.892857,246.392857 M 446.607143,246.392857 L 452.321429,246.392857 M 458.035714,246.392857 L 464.996052,246.392857 "
         id="path235" />
      <path
         d="M 412.321429,246.392857 L 406.607143,246.392857 M 400.892857,246.392857 L 391.761380,246.392857 "
         id="path237" />
    </g>
    <g
       transform="scale(0.350000,0.350000)"
       stroke="rgb(0,0,255)"
       stroke-width="0.857143"
       id="g239">
      <path
         d="M 409.821429,267.892857 L 415.535714,267.892857 M 421.250000,267.892857 L 438.392857,267.892857 M 444.107143,267.892857 L 449.821429,267.892857 M 455.535714,267.892857 L 465.395108,267.892857 "
         id="path241" />
      <path
         d="M 409.821429,267.892857 L 404.107143,267.892857 M 398.392857,267.892857 L 391.595732,267.892857 "
         id="path243" />
    </g>
    <g
       transform="scale(0.350000,0.350000)"
       stroke="rgb(0,0,255)"
       stroke-width="0.857143"
       id="g245">
      <path
         d="M 447.321429,246.392857 L 447.321429,252.107143 M 447.321429,257.821429 L 447.321429,274.964286 "
         id="path247" />
      <path
         d="M 447.321429,246.392857 L 447.321429,240.678571 "
         id="path249" />
    </g>
    <g
       transform="scale(0.350000,0.350000)"
       stroke="rgb(0,0,255)"
       stroke-width="0.857143"
       id="g251">
      <path
         d="M 409.821429,246.392857 L 409.821429,252.107143 M 409.821429,257.821429 L 409.821429,274.964286 "
         id="path253" />
      <path
         d="M 409.821429,246.392857 L 409.821429,240.678571 "
         id="path255" />
    </g>
    <g
       transform="scale(0.350000,0.350000)"
       stroke="rgb(0,0,255)"
       stroke-width="0.857143"
       id="g257">
      <path
         d="M 299.571429,116.142857 L 305.285714,116.142857 M 311.000000,116.142857 L 328.142857,116.142857 M 333.857143,116.142857 L 339.571429,116.142857 M 345.285714,116.142857 L 362.428571,116.142857 M 368.142857,116.142857 L 373.857143,116.142857 M 379.571429,116.142857 L 396.714286,116.142857 M 402.428571,116.142857 L 408.142857,116.142857 M 413.857143,116.142857 L 431.000000,116.142857 M 436.714286,116.142857 L 442.428571,116.142857 M 448.142857,116.142857 L 465.285714,116.142857 M 471.000000,116.142857 L 476.714286,116.142857 M 482.428571,116.142857 L 499.571429,116.142857 M 505.285714,116.142857 L 511.000000,116.142857 M 516.714286,116.142857 L 533.857143,116.142857 M 539.571429,116.142857 L 545.285714,116.142857 M 551.000000,116.142857 L 568.142857,116.142857 "
         id="path259" />
      <path
         d="M 299.571429,116.142857 L 293.857143,116.142857 M 288.142857,116.142857 L 282.165600,116.142857 "
         id="path261" />
    </g>
    <g
       transform="scale(0.350000,0.350000)"
       stroke="rgb(0,0,255)"
       stroke-width="0.857143"
       id="g263">
      <path
         d="M 299.571429,151.142857 L 305.285714,151.142857 M 311.000000,151.142857 L 328.142857,151.142857 M 333.857143,151.142857 L 339.571429,151.142857 M 345.285714,151.142857 L 362.428571,151.142857 M 368.142857,151.142857 L 373.857143,151.142857 M 379.571429,151.142857 L 396.714286,151.142857 M 402.428571,151.142857 L 408.142857,151.142857 M 413.857143,151.142857 L 431.000000,151.142857 M 436.714286,151.142857 L 442.428571,151.142857 M 448.142857,151.142857 L 465.285714,151.142857 M 471.000000,151.142857 L 476.714286,151.142857 M 482.428571,151.142857 L 499.571429,151.142857 M 505.285714,151.142857 L 511.000000,151.142857 M 516.714286,151.142857 L 533.857143,151.142857 M 539.571429,151.142857 L 545.285714,151.142857 M 551.000000,151.142857 L 568.142857,151.142857 "
         id="path265" />
      <path
         d="M 299.571429,151.142857 L 293.857143,151.142857 M 288.142857,151.142857 L 282.742238,151.142857 "
         id="path267" />
    </g>
    <g
       transform="scale(0.350000,0.350000)"
       stroke="rgb(0,0,255)"
       stroke-width="0.857143"
       id="g269">
      <path
         d="M 299.571429,116.142857 L 299.571429,121.857143 M 299.571429,127.571429 L 299.571429,144.714286 M 299.571429,150.428571 L 299.571429,156.142857 M 299.571429,161.857143 L 299.571429,179.000000 M 299.571429,184.714286 L 299.571429,190.428571 M 299.571429,196.142857 L 299.571429,213.285714 M 299.571429,219.000000 L 299.571429,224.714286 M 299.571429,230.428571 L 299.571429,247.571429 M 299.571429,253.285714 L 299.571429,259.000000 M 299.571429,264.714286 L 299.571429,281.857143 M 299.571429,287.571429 L 299.571429,293.285714 M 299.571429,299.000000 L 299.571429,316.142857 M 299.571429,321.857143 L 299.571429,327.571429 M 299.571429,333.285714 L 299.571429,350.428571 M 299.571429,356.142857 L 299.571429,361.857143 M 299.571429,367.571429 L 299.571429,384.714286 M 299.571429,390.428571 L 299.571429,396.142857 M 299.571429,401.857143 L 299.571429,414.297527 "
         id="path271" />
      <path
         d="M 299.571429,116.142857 L 299.571429,110.428571 M 299.571429,104.714286 L 299.571429,97.180901 "
         id="path273" />
    </g>
    <g
       transform="scale(0.350000,0.350000)"
       stroke="rgb(0,0,255)"
       stroke-width="0.857143"
       id="g275">
      <path
         d="M 334.571429,116.142857 L 334.571429,121.857143 M 334.571429,127.571429 L 334.571429,144.714286 M 334.571429,150.428571 L 334.571429,156.142857 M 334.571429,161.857143 L 334.571429,179.000000 M 334.571429,184.714286 L 334.571429,190.428571 M 334.571429,196.142857 L 334.571429,213.285714 M 334.571429,219.000000 L 334.571429,224.714286 M 334.571429,230.428571 L 334.571429,247.571429 M 334.571429,253.285714 L 334.571429,259.000000 M 334.571429,264.714286 L 334.571429,281.857143 M 334.571429,287.571429 L 334.571429,293.285714 M 334.571429,299.000000 L 334.571429,316.142857 M 334.571429,321.857143 L 334.571429,327.571429 M 334.571429,333.285714 L 334.571429,350.428571 M 334.571429,356.142857 L 334.571429,361.857143 M 334.571429,367.571429 L 334.571429,384.714286 M 334.571429,390.428571 L 334.571429,396.142857 M 334.571429,401.857143 L 334.571429,414.243791 "
         id="path277" />
      <path
         d="M 334.571429,116.142857 L 334.571429,110.428571 M 334.571429,104.714286 L 334.571429,97.469688 "
         id="path279" />
    </g>
    <g
       transform="scale(0.350000,0.350000)"
       stroke="rgb(0,0,255)"
       stroke-width="0.857143"
       id="g281">
      <path
         d="M 522.571429,116.142857 L 522.571429,121.857143 M 522.571429,127.571429 L 522.571429,144.714286 M 522.571429,150.428571 L 522.571429,156.142857 M 522.571429,161.857143 L 522.571429,179.000000 M 522.571429,184.714286 L 522.571429,190.428571 M 522.571429,196.142857 L 522.571429,213.285714 M 522.571429,219.000000 L 522.571429,224.714286 M 522.571429,230.428571 L 522.571429,247.571429 M 522.571429,253.285714 L 522.571429,259.000000 M 522.571429,264.714286 L 522.571429,281.857143 M 522.571429,287.571429 L 522.571429,293.285714 M 522.571429,299.000000 L 522.571429,316.142857 M 522.571429,321.857143 L 522.571429,327.571429 M 522.571429,333.285714 L 522.571429,350.428571 M 522.571429,356.142857 L 522.571429,361.857143 M 522.571429,367.571429 L 522.571429,384.714286 M 522.571429,390.428571 L 522.571429,396.142857 M 522.571429,401.857143 L 522.571429,415.064501 "
         id="path283" />
      <path
         d="M 522.571429,116.142857 L 522.571429,110.428571 M 522.571429,104.714286 L 522.571429,97.273706 "
         id="path285" />
    </g>
    <g
       transform="scale(0.350000,0.350000)"
       stroke="rgb(0,0,255)"
       stroke-width="0.857143"
       id="g287">
      <path
         d="M 557.571429,116.142857 L 557.571429,121.857143 M 557.571429,127.571429 L 557.571429,144.714286 M 557.571429,150.428571 L 557.571429,156.142857 M 557.571429,161.857143 L 557.571429,179.000000 M 557.571429,184.714286 L 557.571429,190.428571 M 557.571429,196.142857 L 557.571429,213.285714 M 557.571429,219.000000 L 557.571429,224.714286 M 557.571429,230.428571 L 557.571429,247.571429 M 557.571429,253.285714 L 557.571429,259.000000 M 557.571429,264.714286 L 557.571429,281.857143 M 557.571429,287.571429 L 557.571429,293.285714 M 557.571429,299.000000 L 557.571429,316.142857 M 557.571429,321.857143 L 557.571429,327.571429 M 557.571429,333.285714 L 557.571429,350.428571 M 557.571429,356.142857 L 557.571429,361.857143 M 557.571429,367.571429 L 557.571429,384.714286 M 557.571429,390.428571 L 557.571429,396.142857 M 557.571429,401.857143 L 557.571429,414.494069 "
         id="path289" />
      <path
         d="M 557.571429,116.142857 L 557.571429,110.428571 M 557.571429,104.714286 L 557.571429,95.924131 "
         id="path291" />
    </g>
    <g
       transform="scale(0.350000,0.350000)"
       stroke="rgb(0,0,255)"
       stroke-width="0.857143"
       id="g293">
      <path
         d="M 299.571429,363.142857 L 305.285714,363.142857 M 311.000000,363.142857 L 328.142857,363.142857 M 333.857143,363.142857 L 339.571429,363.142857 M 345.285714,363.142857 L 362.428571,363.142857 M 368.142857,363.142857 L 373.857143,363.142857 M 379.571429,363.142857 L 396.714286,363.142857 M 402.428571,363.142857 L 408.142857,363.142857 M 413.857143,363.142857 L 431.000000,363.142857 M 436.714286,363.142857 L 442.428571,363.142857 M 448.142857,363.142857 L 465.285714,363.142857 M 471.000000,363.142857 L 476.714286,363.142857 M 482.428571,363.142857 L 499.571429,363.142857 M 505.285714,363.142857 L 511.000000,363.142857 M 516.714286,363.142857 L 533.857143,363.142857 M 539.571429,363.142857 L 545.285714,363.142857 M 551.000000,363.142857 L 568.142857,363.142857 "
         id="path295" />
      <path
         d="M 299.571429,363.142857 L 293.857143,363.142857 M 288.142857,363.142857 L 281.082100,363.142857 "
         id="path297" />
    </g>
    <g
       transform="scale(0.350000,0.350000)"
       stroke="rgb(0,0,255)"
       stroke-width="0.857143"
       id="g299">
      <path
         d="M 299.571429,398.142857 L 305.285714,398.142857 M 311.000000,398.142857 L 328.142857,398.142857 M 333.857143,398.142857 L 339.571429,398.142857 M 345.285714,398.142857 L 362.428571,398.142857 M 368.142857,398.142857 L 373.857143,398.142857 M 379.571429,398.142857 L 396.714286,398.142857 M 402.428571,398.142857 L 408.142857,398.142857 M 413.857143,398.142857 L 431.000000,398.142857 M 436.714286,398.142857 L 442.428571,398.142857 M 448.142857,398.142857 L 465.285714,398.142857 M 471.000000,398.142857 L 476.714286,398.142857 M 482.428571,398.142857 L 499.571429,398.142857 M 505.285714,398.142857 L 511.000000,398.142857 M 516.714286,398.142857 L 533.857143,398.142857 M 539.571429,398.142857 L 545.285714,398.142857 M 551.000000,398.142857 L 568.142857,398.142857 "
         id="path301" />
      <path
         d="M 299.571429,398.142857 L 293.857143,398.142857 M 288.142857,398.142857 L 282.023522,398.142857 "
         id="path303" />
    </g>
    <g
       transform="scale(0.350000,0.350000)"
       stroke="rgb(0,0,255)"
       stroke-width="0.857143"
       id="g305">
      <path
         d="M 279.571429,105.142857 L 285.285714,105.142857 M 291.000000,105.142857 L 308.142857,105.142857 M 313.857143,105.142857 L 319.571429,105.142857 M 325.285714,105.142857 L 342.428571,105.142857 M 348.142857,105.142857 L 353.857143,105.142857 M 359.571429,105.142857 L 376.714286,105.142857 M 382.428571,105.142857 L 388.142857,105.142857 M 393.857143,105.142857 L 411.000000,105.142857 M 416.714286,105.142857 L 422.428571,105.142857 M 428.142857,105.142857 L 445.285714,105.142857 M 451.000000,105.142857 L 456.714286,105.142857 M 462.428571,105.142857 L 479.571429,105.142857 M 485.285714,105.142857 L 491.000000,105.142857 M 496.714286,105.142857 L 513.857143,105.142857 M 519.571429,105.142857 L 525.285714,105.142857 M 531.000000,105.142857 L 548.142857,105.142857 M 553.857143,105.142857 L 559.571429,105.142857 M 565.285714,105.142857 L 582.428571,105.142857 "
         id="path307" />
      <path
         d="M 279.571429,105.142857 L 273.857143,105.142857 "
         id="path309" />
    </g>
    <g
       transform="scale(0.350000,0.350000)"
       stroke="rgb(0,0,255)"
       stroke-width="0.857143"
       id="g311">
      <path
         d="M 279.571429,409.142857 L 285.285714,409.142857 M 291.000000,409.142857 L 308.142857,409.142857 M 313.857143,409.142857 L 319.571429,409.142857 M 325.285714,409.142857 L 342.428571,409.142857 M 348.142857,409.142857 L 353.857143,409.142857 M 359.571429,409.142857 L 376.714286,409.142857 M 382.428571,409.142857 L 388.142857,409.142857 M 393.857143,409.142857 L 411.000000,409.142857 M 416.714286,409.142857 L 422.428571,409.142857 M 428.142857,409.142857 L 445.285714,409.142857 M 451.000000,409.142857 L 456.714286,409.142857 M 462.428571,409.142857 L 479.571429,409.142857 M 485.285714,409.142857 L 491.000000,409.142857 M 496.714286,409.142857 L 513.857143,409.142857 M 519.571429,409.142857 L 525.285714,409.142857 M 531.000000,409.142857 L 548.142857,409.142857 M 553.857143,409.142857 L 559.571429,409.142857 M 565.285714,409.142857 L 582.428571,409.142857 "
         id="path313" />
      <path
         d="M 279.571429,409.142857 L 273.857143,409.142857 "
         id="path315" />
    </g>
    <g
       transform="scale(0.350000,0.350000)"
       stroke="rgb(0,0,255)"
       stroke-width="0.857143"
       id="g317">
      <path
         d="M 279.571429,105.142857 L 279.571429,110.857143 M 279.571429,116.571429 L 279.571429,133.714286 M 279.571429,139.428571 L 279.571429,145.142857 M 279.571429,150.857143 L 279.571429,168.000000 M 279.571429,173.714286 L 279.571429,179.428571 M 279.571429,185.142857 L 279.571429,202.285714 M 279.571429,208.000000 L 279.571429,213.714286 M 279.571429,219.428571 L 279.571429,236.571429 M 279.571429,242.285714 L 279.571429,248.000000 M 279.571429,253.714286 L 279.571429,270.857143 M 279.571429,276.571429 L 279.571429,282.285714 M 279.571429,288.000000 L 279.571429,305.142857 M 279.571429,310.857143 L 279.571429,316.571429 M 279.571429,322.285714 L 279.571429,339.428571 M 279.571429,345.142857 L 279.571429,350.857143 M 279.571429,356.571429 L 279.571429,373.714286 M 279.571429,379.428571 L 279.571429,385.142857 M 279.571429,390.857143 L 279.571429,408.000000 M 279.571429,413.714286 L 279.571429,419.428571 "
         id="path319" />
      <path
         d="M 279.571429,105.142857 L 279.571429,99.428571 "
         id="path321" />
    </g>
    <g
       transform="scale(0.350000,0.350000)"
       stroke="rgb(0,0,255)"
       stroke-width="0.857143"
       id="g323">
      <path
         d="M 577.571429,105.142857 L 577.571429,110.857143 M 577.571429,116.571429 L 577.571429,133.714286 M 577.571429,139.428571 L 577.571429,145.142857 M 577.571429,150.857143 L 577.571429,168.000000 M 577.571429,173.714286 L 577.571429,179.428571 M 577.571429,185.142857 L 577.571429,202.285714 M 577.571429,208.000000 L 577.571429,213.714286 M 577.571429,219.428571 L 577.571429,236.571429 M 577.571429,242.285714 L 577.571429,248.000000 M 577.571429,253.714286 L 577.571429,270.857143 M 577.571429,276.571429 L 577.571429,282.285714 M 577.571429,288.000000 L 577.571429,305.142857 M 577.571429,310.857143 L 577.571429,316.571429 M 577.571429,322.285714 L 577.571429,339.428571 M 577.571429,345.142857 L 577.571429,350.857143 M 577.571429,356.571429 L 577.571429,373.714286 M 577.571429,379.428571 L 577.571429,385.142857 M 577.571429,390.857143 L 577.571429,408.000000 M 577.571429,413.714286 L 577.571429,419.412311 "
         id="path325" />
      <path
         d="M 577.571429,105.142857 L 577.571429,99.428571 "
         id="path327" />
    </g>
    <g
       id="g329">
      <circle
         cx="97.850000"
         cy="36.800000"
         r="0.500000"
         stroke="none"
         fill="rgb(0,0,255)"
         id="circle331" />
      <line
         x1="89.266996"
         y1="20.892276"
         x2="98.348584"
         y2="37.724075"
         style="stroke:rgb(0,0,255);stroke-width:0.30"
         id="line333" />
      <polygon
         points="97.351416,35.875925 96.806961,32.760870 95.452048,32.355641 95.046819,33.710554"
         style="fill:rgb(0,0,255);stroke:rgb(0,0,255);stroke-width:0"
         id="polygon335" />
      <polygon
         points="98.348584,37.724075 98.893039,40.839130 100.247952,41.244359 100.653181,39.889446"
         style="fill:rgb(0,0,255);stroke:rgb(0,0,255);stroke-width:0"
         id="polygon337" />
      <line
         x1="89.266996"
         y1="20.892276"
         x2="66.475423"
         y2="20.892276"
         style="stroke:rgb(0,0,255);stroke-width:0.30"
         id="line339" />
      <text
         x="71.137335"
         y="19.510968"
         font-family="Verdana"
         font-size="3.6"
         fill="rgb(255,0,0)"
         text-anchor="inherit"
         id="text341">4 x 6mm</text>
      <!--2.1-->
      <!--Ø%3.3f-->
    </g>
    <g
       id="g343">
      <circle
         cx="104.850000"
         cy="40.650000"
         r="0.500000"
         stroke="none"
         fill="rgb(0,0,255)"
         id="circle345" />
      <line
         x1="98.936149"
         y1="15.194382"
         x2="105.246014"
         y2="42.354604"
         style="stroke:rgb(0,0,255);stroke-width:0.30"
         id="line347" />
      <polygon
         points="104.453986,38.945396 104.749165,35.796925 103.548812,35.049160 102.801047,36.249513"
         style="fill:rgb(0,0,255);stroke:rgb(0,0,255);stroke-width:0"
         id="polygon349" />
      <polygon
         points="105.246014,42.354604 104.950835,45.503075 106.151188,46.250840 106.898953,45.050487"
         style="fill:rgb(0,0,255);stroke:rgb(0,0,255);stroke-width:0"
         id="polygon351" />
      <line
         x1="98.936149"
         y1="15.194382"
         x2="84.432420"
         y2="15.194382"
         style="stroke:rgb(0,0,255);stroke-width:0.30"
         id="line353" />
      <text
         x="86.159054"
         y="14.503729"
         font-family="Verdana"
         font-size="3.6"
         fill="rgb(255,0,0)"
         text-anchor="inherit"
         id="text355">16 x 10mm</text>
      <!--3.5-->
      <!--Ø%3.3f-->
    </g>
    <g
       id="g357">
      <line
         x1="87.000000"
         y1="155.000000"
         x2="87.000000"
         y2="157.421523"
         style="stroke:rgb(0,0,255);stroke-width:0.30"
         id="line359" />
      <line
         x1="97.850000"
         y1="148.800000"
         x2="97.850000"
         y2="157.421523"
         style="stroke:rgb(0,0,255);stroke-width:0.30"
         id="line361" />
      <line
         x1="87.000000"
         y1="156.421523"
         x2="97.850000"
         y2="156.421523"
         style="stroke:rgb(0,0,255);stroke-width:0.30"
         id="line363" />
      <polygon
         points="87.000000,156.421523 90.000000,157.421523 91.000000,156.421523 90.000000,155.421523"
         style="fill:rgb(0,0,255);stroke:rgb(0,0,255);stroke-width:0"
         id="polygon365" />
      <polygon
         points="97.850000,156.421523 94.850000,155.421523 93.850000,156.421523 94.850000,157.421523"
         style="fill:rgb(0,0,255);stroke:rgb(0,0,255);stroke-width:0"
         id="polygon367" />
      <text
         x="86.438496"
         y="162.474109"
         font-family="Verdana"
         font-size="3.6"
         fill="rgb(255,0,0)"
         text-anchor="inherit"
         id="text369">31mm</text>
    </g>
    <g
       id="g371">
      <line
         x1="202.150000"
         y1="148.794309"
         x2="202.150000"
         y2="157.232380"
         style="stroke:rgb(0,0,255);stroke-width:0.30"
         id="line373" />
      <line
         x1="213.000000"
         y1="155.000000"
         x2="213.000000"
         y2="157.232380"
         style="stroke:rgb(0,0,255);stroke-width:0.30"
         id="line375" />
      <line
         x1="202.150000"
         y1="156.232380"
         x2="213.000000"
         y2="156.232380"
         style="stroke:rgb(0,0,255);stroke-width:0.30"
         id="line377" />
      <polygon
         points="202.150000,156.232380 205.150000,157.232380 206.150000,156.232380 205.150000,155.232380"
         style="fill:rgb(0,0,255);stroke:rgb(0,0,255);stroke-width:0"
         id="polygon379" />
      <polygon
         points="213.000000,156.232380 210.000000,155.232380 209.000000,156.232380 210.000000,157.232380"
         style="fill:rgb(0,0,255);stroke:rgb(0,0,255);stroke-width:0"
         id="polygon381" />
      <text
         x="201.437632"
         y="161.528393"
         font-family="Verdana"
         font-size="3.6"
         fill="rgb(255,0,0)"
         text-anchor="inherit"
         id="text383">31mm</text>
    </g>
    <g
       id="g385">
      <line
         x1="205.850000"
         y1="143.200000"
         x2="219.368586"
         y2="143.200000"
         style="stroke:rgb(0,0,255);stroke-width:0.30"
         id="line387" />
      <line
         x1="215.000000"
         y1="153.000000"
         x2="219.368586"
         y2="153.000000"
         style="stroke:rgb(0,0,255);stroke-width:0.30"
         id="line389" />
      <line
         x1="218.368586"
         y1="143.200000"
         x2="218.368586"
         y2="153.000000"
         style="stroke:rgb(0,0,255);stroke-width:0.30"
         id="line391" />
      <polygon
         points="218.368586,143.200000 219.368586,140.200000 218.368586,139.200000 217.368586,140.200000"
         style="fill:rgb(0,0,255);stroke:rgb(0,0,255);stroke-width:0"
         id="polygon393" />
      <polygon
         points="218.368586,153.000000 217.368586,156.000000 218.368586,157.000000 219.368586,156.000000"
         style="fill:rgb(0,0,255);stroke:rgb(0,0,255);stroke-width:0"
         id="polygon395" />
      <text
         x="223.622567"
         y="153.569487"
         font-family="Verdana"
         font-size="3.6"
         fill="rgb(255,0,0)"
         text-anchor="inherit"
         transform="rotate(-90.000000 223.622567,153.569487)"
         id="text397">28mm</text>
    </g>
    <g
       id="g399">
      <line
         x1="205.850000"
         y1="36.800000"
         x2="219.002048"
         y2="36.800000"
         style="stroke:rgb(0,0,255);stroke-width:0.30"
         id="line401" />
      <line
         x1="215.000000"
         y1="27.000000"
         x2="219.002048"
         y2="27.000000"
         style="stroke:rgb(0,0,255);stroke-width:0.30"
         id="line403" />
      <line
         x1="218.002048"
         y1="36.800000"
         x2="218.002048"
         y2="27.000000"
         style="stroke:rgb(0,0,255);stroke-width:0.30"
         id="line405" />
      <polygon
         points="218.002048,36.800000 217.002048,39.800000 218.002048,40.800000 219.002048,39.800000"
         style="fill:rgb(0,0,255);stroke:rgb(0,0,255);stroke-width:0"
         id="polygon407" />
      <polygon
         points="218.002048,27.000000 219.002048,24.000000 218.002048,23.000000 217.002048,24.000000"
         style="fill:rgb(0,0,255);stroke:rgb(0,0,255);stroke-width:0"
         id="polygon409" />
      <text
         x="223.558322"
         y="39.220758"
         font-family="Verdana"
         font-size="3.6"
         fill="rgb(255,0,0)"
         text-anchor="inherit"
         transform="rotate(-90.000000 223.558322,39.220758)"
         id="text411">28mm</text>
    </g>
    <g
       id="g413">
      <line
         x1="96.708233"
         y1="139.350000"
         x2="82.406949"
         y2="139.350000"
         style="stroke:rgb(0,0,255);stroke-width:0.30"
         id="line415" />
      <line
         x1="93.850000"
         y1="143.200000"
         x2="82.406949"
         y2="143.200000"
         style="stroke:rgb(0,0,255);stroke-width:0.30"
         id="line417" />
      <line
         x1="83.406949"
         y1="139.350000"
         x2="83.406949"
         y2="143.200000"
         style="stroke:rgb(0,0,255);stroke-width:0.30"
         id="line419" />
      <polygon
         points="83.406949,139.350000 84.406949,136.350000 83.406949,135.350000 82.406949,136.350000"
         style="fill:rgb(0,0,255);stroke:rgb(0,0,255);stroke-width:0"
         id="polygon421" />
      <polygon
         points="83.406949,143.200000 82.406949,146.200000 83.406949,147.200000 84.406949,146.200000"
         style="fill:rgb(0,0,255);stroke:rgb(0,0,255);stroke-width:0"
         id="polygon423" />
      <text
         x="80.561042"
         y="146.235805"
         font-family="Verdana"
         font-size="3.6"
         fill="rgb(255,0,0)"
         text-anchor="inherit"
         transform="rotate(-90.000000 80.561042,146.235805)"
         id="text425">11mm</text>
    </g>
    <g
       id="g427">
      <line
         x1="93.850000"
         y1="36.800000"
         x2="82.344111"
         y2="36.800000"
         style="stroke:rgb(0,0,255);stroke-width:0.30"
         id="line429" />
      <line
         x1="96.757960"
         y1="40.650000"
         x2="82.344111"
         y2="40.650000"
         style="stroke:rgb(0,0,255);stroke-width:0.30"
         id="line431" />
      <line
         x1="83.344111"
         y1="36.800000"
         x2="83.344111"
         y2="40.650000"
         style="stroke:rgb(0,0,255);stroke-width:0.30"
         id="line433" />
      <polygon
         points="83.344111,36.800000 84.344111,33.800000 83.344111,32.800000 82.344111,33.800000"
         style="fill:rgb(0,0,255);stroke:rgb(0,0,255);stroke-width:0"
         id="polygon435" />
      <polygon
         points="83.344111,40.650000 82.344111,43.650000 83.344111,44.650000 84.344111,43.650000"
         style="fill:rgb(0,0,255);stroke:rgb(0,0,255);stroke-width:0"
         id="polygon437" />
      <text
         x="80.729394"
         y="43.469674"
         font-family="Verdana"
         font-size="3.6"
         fill="rgb(255,0,0)"
         text-anchor="inherit"
         transform="rotate(-90.000000 80.729394,43.469674)"
         id="text439">11mm</text>
    </g>
    <g
       id="g441">
      <line
         x1="195.150000"
         y1="31.573446"
         x2="195.150000"
         y2="21.877905"
         style="stroke:rgb(0,0,255);stroke-width:0.30"
         id="line443" />
      <line
         x1="202.150000"
         y1="32.800000"
         x2="202.150000"
         y2="21.877905"
         style="stroke:rgb(0,0,255);stroke-width:0.30"
         id="line445" />
      <line
         x1="195.150000"
         y1="22.877905"
         x2="202.150000"
         y2="22.877905"
         style="stroke:rgb(0,0,255);stroke-width:0.30"
         id="line447" />
      <polygon
         points="195.150000,22.877905 192.150000,21.877905 191.150000,22.877905 192.150000,23.877905"
         style="fill:rgb(0,0,255);stroke:rgb(0,0,255);stroke-width:0"
         id="polygon449" />
      <polygon
         points="202.150000,22.877905 205.150000,23.877905 206.150000,22.877905 205.150000,21.877905"
         style="fill:rgb(0,0,255);stroke:rgb(0,0,255);stroke-width:0"
         id="polygon451" />
      <text
         x="195.685227"
         y="21.439043"
         font-family="Verdana"
         font-size="3.6"
         fill="rgb(255,0,0)"
         text-anchor="inherit"
         id="text453">20mm</text>
    </g>
    <g
       id="g455">
      <line
         x1="182.900000"
         y1="32.045797"
         x2="182.900000"
         y2="21.734019"
         style="stroke:rgb(0,0,255);stroke-width:0.30"
         id="line457" />
      <line
         x1="195.150000"
         y1="31.573446"
         x2="195.150000"
         y2="21.734019"
         style="stroke:rgb(0,0,255);stroke-width:0.30"
         id="line459" />
      <line
         x1="182.900000"
         y1="22.734019"
         x2="195.150000"
         y2="22.734019"
         style="stroke:rgb(0,0,255);stroke-width:0.30"
         id="line461" />
      <polygon
         points="182.900000,22.734019 185.900000,23.734019 186.900000,22.734019 185.900000,21.734019"
         style="fill:rgb(0,0,255);stroke:rgb(0,0,255);stroke-width:0"
         id="polygon463" />
      <polygon
         points="195.150000,22.734019 192.150000,21.734019 191.150000,22.734019 192.150000,23.734019"
         style="fill:rgb(0,0,255);stroke:rgb(0,0,255);stroke-width:0"
         id="polygon465" />
      <text
         x="182.735469"
         y="20.144067"
         font-family="Verdana"
         font-size="3.6"
         fill="rgb(255,0,0)"
         text-anchor="inherit"
         id="text467">35mm</text>
    </g>
    <g
       id="g469">
      <line
         x1="200.850000"
         y1="52.900000"
         x2="219.043254"
         y2="52.900000"
         style="stroke:rgb(0,0,255);stroke-width:0.30"
         id="line471" />
      <line
         x1="200.850000"
         y1="127.100000"
         x2="219.043254"
         y2="127.100000"
         style="stroke:rgb(0,0,255);stroke-width:0.30"
         id="line473" />
      <line
         x1="218.043254"
         y1="52.900000"
         x2="218.043254"
         y2="127.100000"
         style="stroke:rgb(0,0,255);stroke-width:0.30"
         id="line475" />
      <polygon
         points="218.043254,52.900000 217.043254,55.900000 218.043254,56.900000 219.043254,55.900000"
         style="fill:rgb(0,0,255);stroke:rgb(0,0,255);stroke-width:0"
         id="polygon477" />
      <polygon
         points="218.043254,127.100000 219.043254,124.100000 218.043254,123.100000 217.043254,124.100000"
         style="fill:rgb(0,0,255);stroke:rgb(0,0,255);stroke-width:0"
         id="polygon479" />
      <text
         x="223.055743"
         y="90.582830"
         font-family="Verdana"
         font-size="3.6"
         fill="rgb(255,0,0)"
         text-anchor="inherit"
         transform="rotate(-90.000000 223.055743,90.582830)"
         id="text481">212mm</text>
    </g>
    <g
       transform="translate(87.000308,-86.999009)"
       id="schriftfeldrahmen"
       style="fill:none;stroke:#000000;stroke-width:0.34999999;stroke-miterlimit:4">
      <rect
         id="schriftfeld-aussen"
         width="180"
         height="36"
         x="20"
         y="251" />
      <path
         inkscape:connector-curvature="0"
         id="schriftfeld-h1"
         d="m 20,260 180,0" />
      <path
         inkscape:connector-curvature="0"
         d="m 89,269 111,0"
         id="schriftfeld-h2" />
      <path
         inkscape:connector-curvature="0"
         id="schriftfeld-h3"
         d="m 149,278 51,0" />
      <path
         inkscape:connector-curvature="0"
         id="schriftfeld-v1"
         d="m 89,251 0,36" />
      <path
         inkscape:connector-curvature="0"
         d="m 45,251 0,9"
         id="schriftfeld-v2" />
      <path
         inkscape:connector-curvature="0"
         id="schriftfeld-v3"
         d="m 132,251 0,9" />
      <path
         inkscape:connector-curvature="0"
         id="schriftfeld-v5"
         d="m 89,251 0,36" />
      <path
         inkscape:connector-curvature="0"
         d="m 149,260 0,27"
         id="schriftfeld-v6" />
      <path
         inkscape:connector-curvature="0"
         id="schriftfeld-v7"
         d="m 156,278 0,9" />
      <path
         inkscape:connector-curvature="0"
         d="m 181,278 0,9"
         id="schriftfeld-v8" />
      <path
         inkscape:connector-curvature="0"
         id="schriftfeld-v9"
         d="m 191,278 0,9" />
    </g>
    <g
       transform="translate(87.000308,-86.999009)"
       id="schriftfeldtext2"
       style="font-style:normal;font-weight:normal;font-size:2px;line-height:125%;font-family:osifont;text-align:start;letter-spacing:0px;word-spacing:0px;writing-mode:lr-tb;text-anchor:start;fill:#000000;fill-opacity:1;stroke:none"
       xml:space="preserve"><text
         y="253"
         x="21"
         id="text24"><tspan
           id="tspan5781"
           y="253"
           x="21">Responsible department</tspan></text>
<text
         x="46"
         y="253"
         id="text27"><tspan
           id="tspan5783"
           x="46"
           y="253">Technical reference</tspan></text>
<text
         y="253"
         x="90"
         id="text30"><tspan
           y="253"
           x="90"
           id="tspan5785">Created by</tspan></text>
<text
         y="253"
         x="132.74214"
         id="text36"><tspan
           y="253"
           x="132.74214"
           id="tspan5789">Classification/key words</tspan></text>
<text
         x="21"
         y="262"
         id="text39"><tspan
           x="21"
           y="262"
           id="tspan5791">Legal owner</tspan></text>
<text
         y="262"
         x="90"
         id="text42"><tspan
           id="tspan5793"
           y="262"
           x="90">Document type</tspan></text>
<text
         x="150"
         y="262"
         id="text45"><tspan
           x="150"
           y="262"
           id="tspan5795">Document status</tspan></text>
<text
         x="90"
         y="271"
         id="text48"><tspan
           x="90"
           y="271"
           id="tspan5797">Title, Supplementary title</tspan></text>
<text
         y="271"
         x="150"
         id="text51"><tspan
           id="tspan5799"
           y="271"
           x="150">Identification number</tspan></text>
<text
         x="150"
         y="280"
         id="text54"><tspan
           x="150"
           y="280"
           id="tspan5801">Rev.</tspan></text>
<text
         y="280"
         x="157"
         id="text57"><tspan
           id="tspan5803"
           y="280"
           x="157">Date of issue</tspan></text>
<text
         x="182"
         y="280"
         id="text60"><tspan
           x="182"
           y="280"
           id="tspan5805">Language</tspan></text>
<text
         y="280"
         x="192"
         id="text63"><tspan
           id="tspan5807"
           y="280"
           x="192">Seg./Sh.</tspan></text>
</g>    <text
       sodipodi:linespacing="125%"
       style="font-style:normal;font-weight:normal;font-size:4px;line-height:125%;font-family:osifont;text-align:start;letter-spacing:0px;word-spacing:0px;writing-mode:lr-tb;text-anchor:start;fill:#000000;fill-opacity:1;stroke:none"
       freecad:editable="IdNumber"
       x="237.00032"
       y="189.00101"
       id="text82">
      <tspan
         x="237.00032"
         y="189.00101"
         id="tspan5829">0001</tspan>
    </text>
    <text
       xml:space="preserve"
       style="font-style:normal;font-weight:normal;font-size:4.93888903px;line-height:125%;font-family:sans-serif;text-align:start;letter-spacing:0px;word-spacing:0px;writing-mode:lr-tb;text-anchor:start;fill:#000000;fill-opacity:1;stroke:none;stroke-width:1px;stroke-linecap:butt;stroke-linejoin:miter;stroke-opacity:1"
       x="182.46985"
       y="171.3049"
       id="text4752"
       sodipodi:linespacing="125%"><tspan
         sodipodi:role="line"
         id="tspan4754"
         x="182.46985"
         y="171.3049">Alan C. Assis</tspan></text>
    <text
       xml:space="preserve"
       style="font-style:normal;font-weight:normal;font-size:3.88055563px;line-height:125%;font-family:sans-serif;text-align:start;letter-spacing:0px;word-spacing:0px;writing-mode:lr-tb;text-anchor:start;fill:#000000;fill-opacity:1;stroke:none;stroke-width:1px;stroke-linecap:butt;stroke-linejoin:miter;stroke-opacity:1"
       x="244.21098"
       y="197.9093"
       id="text4756"
       sodipodi:linespacing="125%"><tspan
         sodipodi:role="line"
         id="tspan4758"
         x="244.21098"
         y="197.9093">2015-03-19</tspan></text>
    <text
       xml:space="preserve"
       style="font-style:normal;font-weight:normal;font-size:4.93888903px;line-height:125%;font-family:sans-serif;letter-spacing:0px;word-spacing:0px;fill:#000000;fill-opacity:1;stroke:none;stroke-width:1px;stroke-linecap:butt;stroke-linejoin:miter;stroke-opacity:1"
       x="182.46423"
       y="193.82014"
       id="text4727"
       sodipodi:linespacing="125%"><tspan
         sodipodi:role="line"
         id="tspan4729"
         x="182.46423"
         y="193.82014">Mesa CNC</tspan></text>
    <text
       xml:space="preserve"
       style="font-style:normal;font-weight:normal;font-size:3.88055563px;line-height:125%;font-family:sans-serif;letter-spacing:0px;word-spacing:0px;fill:#000000;fill-opacity:1;stroke:none;stroke-width:1px;stroke-linecap:butt;stroke-linejoin:miter;stroke-opacity:1"
       x="220.40111"
       y="170.90543"
       id="text4731"
       sodipodi:linespacing="125%"><tspan
         sodipodi:role="line"
         id="tspan4733"
         x="220.40111"
         y="170.90543">Alumínio 7075 ou 6061</tspan></text>
    <text
       xml:space="preserve"
       style="font-style:normal;font-weight:normal;font-size:4.93888903px;line-height:125%;font-family:sans-serif;letter-spacing:0px;word-spacing:0px;fill:#000000;fill-opacity:1;stroke:none;stroke-width:1px;stroke-linecap:butt;stroke-linejoin:miter;stroke-opacity:1"
       x="132.57301"
       y="170.46939"
       id="text4735"
       sodipodi:linespacing="125%"><tspan
         sodipodi:role="line"
         id="tspan4737"
         x="132.57301"
         y="170.46939"
         style="font-size:3.88055563px">Tolerância:+/-0.1mm</tspan></text>
  </g>
</svg>
