<?xml version="1.0" encoding="UTF-8" standalone="no"?>
<!-- Created with Inkscape (http://www.inkscape.org/) -->

<svg
   xmlns:dc="http://purl.org/dc/elements/1.1/"
   xmlns:cc="http://creativecommons.org/ns#"
   xmlns:rdf="http://www.w3.org/1999/02/22-rdf-syntax-ns#"
   xmlns:svg="http://www.w3.org/2000/svg"
   xmlns="http://www.w3.org/2000/svg"
   xmlns:sodipodi="http://sodipodi.sourceforge.net/DTD/sodipodi-0.dtd"
   xmlns:inkscape="http://www.inkscape.org/namespaces/inkscape"
   xmlns:freecad="http://www.freecadweb.org/wiki/index.php?title=Svg_Namespace"
   width="297mm"
   height="210mm"
   viewBox="0 0 297 210"
   id="svg5211"
   version="1.1"
   inkscape:version="0.48.1 "
   sodipodi:docname="iso7200-a4-landscape">
  <defs
     id="defs5213" />
  <sodipodi:namedview
     id="base"
     pagecolor="#ffffff"
     bordercolor="#666666"
     borderopacity="1.0"
     inkscape:pageopacity="0.0"
     inkscape:pageshadow="2"
     inkscape:document-units="mm"
     inkscape:current-layer="layer1"
     showgrid="false"
     fit-margin-top="10"
     fit-margin-left="0"
     fit-margin-right="0"
     fit-margin-bottom="0"
     inkscape:window-width="1280"
     inkscape:window-height="962"
     inkscape:window-x="-8"
     inkscape:window-y="-8"
     inkscape:window-maximized="1" />
<!-- Working space 20 10 287 200 -->
<!-- Title block 107 164 287 200 -->
  <metadata
     id="metadata5216">
    <rdf:RDF>
      <cc:Work
         rdf:about="">
        <dc:format>image/svg+xml</dc:format>
        <dc:type
           rdf:resource="http://purl.org/dc/dcmitype/StillImage" />
        <dc:title></dc:title>
      </cc:Work>
    </rdf:RDF>
  </metadata>
  <g
     inkscape:label="Ebene 1"
     inkscape:groupmode="layer"
     id="layer1">
      <rect id="zeichenrahmen" y="10" x="20"
         height="190"
         width="267"
         style="fill:none;stroke:#000000;stroke-width:0.35;stroke-linecap:miter;stroke-miterlimit:4" />
       <!-- width-30, height-20 -->
    <g id="schriftfeld"
       transform="translate(87,-87)">
       <!-- A4 Portrait based for other formats width-210, height-297 -->
       <!--        page       rect   translation
                   w    h    rw   rh   tx   ty
            A4-P  210  297  180  277    0    0
            A4-L  297  210  267  190   87  -87
            A3-L  420  297  390  277  210    0
            A2-L  594  420  564  400  384  123
            A1-L  841  594  811  574  631  297
            A0-L 1189  841 1159  821  979  544

 -->
    <g id="schriftfeldrahmen"
       style="fill:none;stroke:#000000;stroke-width:0.35;stroke-linecap:miter;stroke-miterlimit:4">
      <rect id="schriftfeld-aussen"
         width="180" height="36" x="20" y="251" />
      <path id="schriftfeld-h1" d="M 20,260 H 200" />
      <path d="M 89,269 H 200" id="schriftfeld-h2" />
      <path id="schriftfeld-h3" d="m 149,278 h 51" />
      <path id="schriftfeld-v1" d="m 89,251 v 36" />
      <path d="m 45,251 v 9" id="schriftfeld-v2" />
      <path id="schriftfeld-v3" d="m 132,251 v 9" />
      <path d="m 175,251 v 9" id="schriftfeld-v4" />
      <path id="schriftfeld-v5" d="m 89,251 v 36" />
      <path d="m 149,260 v 27" id="schriftfeld-v6" />
      <path id="schriftfeld-v7" d="m 156,278 v 9" />
      <path d="m 181,278 v 9" id="schriftfeld-v8" />
      <path id="schriftfeld-v9" d="m 191,278 v 9" />
    </g>
    <g id="schriftfeldtext2"
        style="font-size:2px;font-style:normal;font-weight:normal;text-align:start;line-height:125%;letter-spacing:0px;word-spacing:0px;writing-mode:lr-tb;text-anchor:start;fill:#000000;fill-opacity:1;stroke:none;font-family:osifont"
       xml:space="preserve">
    <text y="253" x="21"><tspan id="tspan5781" y="253" x="21">Responsible department</tspan></text>
    <text x="46" y="253"><tspan id="tspan5783" x="46" y="253">Technical reference</tspan></text>
    <text y="253" x="90"><tspan y="253" x="90" id="tspan5785">Created by</tspan></text>
    <text x="133" y="253"><tspan id="tspan5787" x="133" y="253">Approved by</tspan></text>
    <text y="253" x="176"><tspan y="253" x="176" id="tspan5789">Classification/key words</tspan></text>
    <text x="21" y="262"><tspan x="21" y="262" id="tspan5791">Legal owner</tspan></text>
    <text y="262" x="90"><tspan id="tspan5793" y="262" x="90">Document type</tspan></text>
    <text x="150" y="262"><tspan x="150" y="262" id="tspan5795">Document status</tspan></text>
    <text x="90" y="271"><tspan x="90" y="271" id="tspan5797">Title, Supplementary title</tspan></text>
    <text y="271" x="150"><tspan id="tspan5799" y="271" x="150">Identification number</tspan></text>
    <text x="150" y="280"><tspan x="150" y="280" id="tspan5801">Rev.</tspan></text>
    <text y="280" x="157"><tspan id="tspan5803" y="280" x="157">Date of issue</tspan></text>
    <text x="182" y="280"><tspan x="182" y="280" id="tspan5805">Language</tspan></text>
    <text y="280" x="192"><tspan id="tspan5807" y="280" x="192">Seg./Sh.</tspan></text>
    </g>
    <g id="schriftfeldtext4"
       style="font-size:4px;font-style:normal;font-weight:normal;text-align:start;line-height:125%;letter-spacing:0px;word-spacing:0px;writing-mode:lr-tb;text-anchor:start;fill:#000000;fill-opacity:1;stroke:none;font-family:osifont"
       xml:space="preserve">
    <text freecad:editable="Creator" x="90" y="258"><tspan id="tspan5815" x="90" y="258">me</tspan> </text>
    <text freecad:editable="ApprovalPerson" y="258" x="133"><tspan y="258" x="133" id="tspan5817">myself</tspan> </text>
    <text freecad:editable="LegalOwner" y="267" x="21"><tspan id="tspan5821" y="267" x="21">my company</tspan> </text>
    <text freecad:editable="DocumentType" x="90" y="267"><tspan x="90" y="267" id="tspan5823">type</tspan></text>
    <text freecad:editable="Title" y="276" x="90"><tspan id="tspan5827" y="276" x="90">title</tspan></text>
    <text freecad:editable="IdNumber" x="150" y="276"><tspan x="150" y="276" id="tspan5829">0001</tspan></text>
    <text freecad:editable="Date" x="157" y="285"><tspan x="157" y="285" id="tspan5833">2000-00-00</tspan></text>
    <text freecad:editable="OptResponsibleDept" y="258" x="21"><tspan y="258" x="21"></tspan></text>
    <text freecad:editable="OptTechnicalRef" x="46" y="258"><tspan x="46" y="258"></tspan></text>
    <text freecad:editable="Classification" y="258" x="176"><tspan y="258" x="176"></tspan></text>
    <text freecad:editable="OptDocumentStatus" x="150" y="267"><tspan x="150" y="267"></tspan></text>
    <text freecad:editable="OptRevison" x="150" y="285"><tspan x="150" y="285"></tspan></text>
    <text freecad:editable="OptLanguage" x="182" y="285"><tspan x="182" y="285"></tspan></text>
    <text freecad:editable="SegmentsOrSheets" y="285" x="192"><tspan y="285" x="192"></tspan></text>
    <text freecad:editable="OptSupTitle" y="281" x="90"><tspan id="tspan5827" y="281" x="90"></tspan></text>
    <text freecad:editable="OptSupTitle2" y="285" x="90"><tspan id="tspan5827" y="285" x="90"></tspan></text>
    </g>
      </g>
<g id="Bottom View"
   transform="rotate(0,150,90) translate(150,90) scale(0.4,0.4)"
  >
<g   stroke="rgb(0, 0, 0)"
   stroke-width="0.875"
   stroke-linecap="butt"
   stroke-linejoin="miter"
   fill="none"
   transform="scale(1,-1)"
  >
<path id= "1" d=" M -180 180 L 180 180 " />
<path id= "2" d=" M -180 -180 L -180 180 " />
<path id= "3" d=" M 180 180 L 180 -180 " />
<path id= "4" d=" M 180 -180 L -180 -180 " />
<circle cx ="149" cy ="152" r ="3" /><circle cx ="149" cy ="-152" r ="3" /><circle cx ="94" cy ="106" r ="3" /><circle cx ="129" cy ="106" r ="3" /><circle cx ="129" cy ="141" r ="3" /><circle cx ="94" cy ="141" r ="3" /><circle cx ="-129" cy ="106" r ="3" /><circle cx ="-94" cy ="106" r ="3" /><circle cx ="-94" cy ="141" r ="3" /><circle cx ="-129" cy ="141" r ="3" /><circle cx ="129" cy ="-141" r ="3" /><circle cx ="94" cy ="-141" r ="3" /><circle cx ="94" cy ="-106" r ="3" /><circle cx ="129" cy ="-106" r ="3" /><circle cx ="-129" cy ="-106" r ="3" /><circle cx ="-129" cy ="-141" r ="3" /><circle cx ="-94" cy ="-106" r ="3" /><circle cx ="-94" cy ="-141" r ="3" /><circle cx ="-18.5" cy ="-10.5" r ="2.5" /><circle cx ="-18.5" cy ="10.5" r ="2.5" /><circle cx ="18.5" cy ="10.5" r ="2.5" /><circle cx ="18.5" cy ="-10.5" r ="2.5" /><circle cx ="-149" cy ="-152" r ="3" /><circle cx ="-149" cy ="152" r ="3" /></g>
</g>



<g  transform="scale(0.400000,0.400000)" stroke="rgb(0,0,255)"  stroke-width="0.750000" >
<path d="M 504.000000,84.000000 L 499.000000,84.000000 M 494.000000,84.000000 L 479.000000,84.000000 M 474.000000,84.000000 L 469.000000,84.000000 M 464.000000,84.000000 L 449.000000,84.000000 M 444.000000,84.000000 L 439.000000,84.000000 M 434.000000,84.000000 L 419.000000,84.000000 M 414.000000,84.000000 L 409.000000,84.000000 M 404.000000,84.000000 L 389.000000,84.000000 M 384.000000,84.000000 L 379.000000,84.000000 M 374.000000,84.000000 L 359.000000,84.000000 M 354.000000,84.000000 L 349.000000,84.000000 M 344.000000,84.000000 L 329.000000,84.000000 M 324.000000,84.000000 L 319.000000,84.000000 M 314.000000,84.000000 L 299.000000,84.000000 M 294.000000,84.000000 L 289.000000,84.000000 M 284.000000,84.000000 L 269.000000,84.000000 M 264.000000,84.000000 L 259.000000,84.000000 M 254.000000,84.000000 L 239.000000,84.000000 "/>
<path d="M 504.000000,84.000000 L 509.000000,84.000000 "/>
</g> 


<g  transform="scale(0.400000,0.400000)" stroke="rgb(0,0,255)"  stroke-width="0.750000" >
<path d="M 504.000000,119.000000 L 499.000000,119.000000 M 494.000000,119.000000 L 479.000000,119.000000 M 474.000000,119.000000 L 469.000000,119.000000 M 464.000000,119.000000 L 449.000000,119.000000 M 444.000000,119.000000 L 439.000000,119.000000 M 434.000000,119.000000 L 419.000000,119.000000 M 414.000000,119.000000 L 409.000000,119.000000 M 404.000000,119.000000 L 389.000000,119.000000 M 384.000000,119.000000 L 379.000000,119.000000 M 374.000000,119.000000 L 359.000000,119.000000 M 354.000000,119.000000 L 349.000000,119.000000 M 344.000000,119.000000 L 329.000000,119.000000 M 324.000000,119.000000 L 319.000000,119.000000 M 314.000000,119.000000 L 299.000000,119.000000 M 294.000000,119.000000 L 289.000000,119.000000 M 284.000000,119.000000 L 269.000000,119.000000 M 264.000000,119.000000 L 259.000000,119.000000 M 254.000000,119.000000 L 239.000000,119.000000 "/>
<path d="M 504.000000,119.000000 L 509.000000,119.000000 "/>
</g> 


<g  transform="scale(0.400000,0.400000)" stroke="rgb(0,0,255)"  stroke-width="0.750000" >
<path d="M 504.000000,84.000000 L 504.000000,89.000000 M 504.000000,94.000000 L 504.000000,109.000000 M 504.000000,114.000000 L 504.000000,119.000000 M 504.000000,124.000000 L 504.000000,139.000000 M 504.000000,144.000000 L 504.000000,149.000000 M 504.000000,154.000000 L 504.000000,169.000000 M 504.000000,174.000000 L 504.000000,179.000000 M 504.000000,184.000000 L 504.000000,199.000000 M 504.000000,204.000000 L 504.000000,209.000000 M 504.000000,214.000000 L 504.000000,229.000000 M 504.000000,234.000000 L 504.000000,239.000000 M 504.000000,244.000000 L 504.000000,259.000000 M 504.000000,264.000000 L 504.000000,269.000000 M 504.000000,274.000000 L 504.000000,289.000000 M 504.000000,294.000000 L 504.000000,299.000000 M 504.000000,304.000000 L 504.000000,319.000000 M 504.000000,324.000000 L 504.000000,329.000000 M 504.000000,334.000000 L 504.000000,349.000000 M 504.000000,354.000000 L 504.000000,359.000000 M 504.000000,364.000000 L 504.000000,378.920269 "/>
<path d="M 504.000000,84.000000 L 504.000000,79.000000 M 504.000000,74.000000 L 504.000000,69.445074 "/>
</g> 


<g  transform="scale(0.400000,0.400000)" stroke="rgb(0,0,255)"  stroke-width="0.750000" >
<path d="M 226.000000,73.000000 L 231.000000,73.000000 M 236.000000,73.000000 L 251.000000,73.000000 M 256.000000,73.000000 L 261.000000,73.000000 M 266.000000,73.000000 L 281.000000,73.000000 M 286.000000,73.000000 L 291.000000,73.000000 M 296.000000,73.000000 L 311.000000,73.000000 M 316.000000,73.000000 L 321.000000,73.000000 M 326.000000,73.000000 L 341.000000,73.000000 M 346.000000,73.000000 L 351.000000,73.000000 M 356.000000,73.000000 L 371.000000,73.000000 M 376.000000,73.000000 L 381.000000,73.000000 M 386.000000,73.000000 L 401.000000,73.000000 M 406.000000,73.000000 L 411.000000,73.000000 M 416.000000,73.000000 L 431.000000,73.000000 M 436.000000,73.000000 L 441.000000,73.000000 M 446.000000,73.000000 L 461.000000,73.000000 M 466.000000,73.000000 L 471.000000,73.000000 M 476.000000,73.000000 L 491.000000,73.000000 M 496.000000,73.000000 L 501.000000,73.000000 M 506.000000,73.000000 L 521.000000,73.000000 M 526.000000,73.000000 L 531.000000,73.000000 "/>
<path d="M 226.000000,73.000000 L 221.000000,73.000000 "/>
</g> 


<g  transform="scale(0.400000,0.400000)" stroke="rgb(0,0,255)"  stroke-width="0.750000" >
<path d="M 524.000000,73.000000 L 524.000000,78.000000 M 524.000000,83.000000 L 524.000000,98.000000 M 524.000000,103.000000 L 524.000000,108.000000 M 524.000000,113.000000 L 524.000000,128.000000 M 524.000000,133.000000 L 524.000000,138.000000 M 524.000000,143.000000 L 524.000000,158.000000 M 524.000000,163.000000 L 524.000000,168.000000 M 524.000000,173.000000 L 524.000000,188.000000 M 524.000000,193.000000 L 524.000000,198.000000 M 524.000000,203.000000 L 524.000000,218.000000 M 524.000000,223.000000 L 524.000000,228.000000 M 524.000000,233.000000 L 524.000000,248.000000 M 524.000000,253.000000 L 524.000000,258.000000 M 524.000000,263.000000 L 524.000000,278.000000 M 524.000000,283.000000 L 524.000000,288.000000 M 524.000000,293.000000 L 524.000000,308.000000 M 524.000000,313.000000 L 524.000000,318.000000 M 524.000000,323.000000 L 524.000000,338.000000 M 524.000000,343.000000 L 524.000000,348.000000 M 524.000000,353.000000 L 524.000000,368.000000 M 524.000000,373.000000 L 524.000000,378.000000 M 524.000000,383.000000 L 524.000000,388.442769 "/>
<path d="M 524.000000,73.000000 L 524.000000,68.000000 "/>
</g> 


<g  transform="scale(0.400000,0.400000)" stroke="rgb(0,0,255)"  stroke-width="0.750000" >
<path d="M 469.000000,84.000000 L 469.000000,89.000000 M 469.000000,94.000000 L 469.000000,109.000000 M 469.000000,114.000000 L 469.000000,119.000000 M 469.000000,124.000000 L 469.000000,139.000000 M 469.000000,144.000000 L 469.000000,149.000000 M 469.000000,154.000000 L 469.000000,169.000000 M 469.000000,174.000000 L 469.000000,179.000000 M 469.000000,184.000000 L 469.000000,199.000000 M 469.000000,204.000000 L 469.000000,209.000000 M 469.000000,214.000000 L 469.000000,229.000000 M 469.000000,234.000000 L 469.000000,239.000000 M 469.000000,244.000000 L 469.000000,259.000000 M 469.000000,264.000000 L 469.000000,269.000000 M 469.000000,274.000000 L 469.000000,289.000000 M 469.000000,294.000000 L 469.000000,299.000000 M 469.000000,304.000000 L 469.000000,319.000000 M 469.000000,324.000000 L 469.000000,329.000000 M 469.000000,334.000000 L 469.000000,349.000000 M 469.000000,354.000000 L 469.000000,359.000000 M 469.000000,364.000000 L 469.000000,379.000000 "/>
<path d="M 469.000000,84.000000 L 469.000000,79.000000 "/>
</g> 


<g  transform="scale(0.400000,0.400000)" stroke="rgb(0,0,255)"  stroke-width="0.750000" >
<path d="M 226.000000,377.000000 L 231.000000,377.000000 M 236.000000,377.000000 L 251.000000,377.000000 M 256.000000,377.000000 L 261.000000,377.000000 M 266.000000,377.000000 L 281.000000,377.000000 M 286.000000,377.000000 L 291.000000,377.000000 M 296.000000,377.000000 L 311.000000,377.000000 M 316.000000,377.000000 L 321.000000,377.000000 M 326.000000,377.000000 L 341.000000,377.000000 M 346.000000,377.000000 L 351.000000,377.000000 M 356.000000,377.000000 L 371.000000,377.000000 M 376.000000,377.000000 L 381.000000,377.000000 M 386.000000,377.000000 L 401.000000,377.000000 M 406.000000,377.000000 L 411.000000,377.000000 M 416.000000,377.000000 L 431.000000,377.000000 M 436.000000,377.000000 L 441.000000,377.000000 M 446.000000,377.000000 L 461.000000,377.000000 M 466.000000,377.000000 L 471.000000,377.000000 M 476.000000,377.000000 L 491.000000,377.000000 M 496.000000,377.000000 L 501.000000,377.000000 M 506.000000,377.000000 L 521.000000,377.000000 M 526.000000,377.000000 L 531.000000,377.000000 "/>
<path d="M 226.000000,377.000000 L 221.000000,377.000000 "/>
</g> 


<g  transform="scale(0.400000,0.400000)" stroke="rgb(0,0,255)"  stroke-width="0.750000" >
<path d="M 246.000000,331.000000 L 251.000000,331.000000 M 256.000000,331.000000 L 271.000000,331.000000 M 276.000000,331.000000 L 281.000000,331.000000 M 286.000000,331.000000 L 301.000000,331.000000 M 306.000000,331.000000 L 311.000000,331.000000 M 316.000000,331.000000 L 331.000000,331.000000 M 336.000000,331.000000 L 341.000000,331.000000 M 346.000000,331.000000 L 361.000000,331.000000 M 366.000000,331.000000 L 371.000000,331.000000 M 376.000000,331.000000 L 391.000000,331.000000 M 396.000000,331.000000 L 401.000000,331.000000 M 406.000000,331.000000 L 421.000000,331.000000 M 426.000000,331.000000 L 431.000000,331.000000 M 436.000000,331.000000 L 451.000000,331.000000 M 456.000000,331.000000 L 461.000000,331.000000 M 466.000000,331.000000 L 481.000000,331.000000 M 486.000000,331.000000 L 491.000000,331.000000 M 496.000000,331.000000 L 511.000000,331.000000 "/>
<path d="M 246.000000,331.000000 L 241.000000,331.000000 M 236.000000,331.000000 L 227.425924,331.000000 "/>
</g> 


<g  transform="scale(0.400000,0.400000)" stroke="rgb(0,0,255)"  stroke-width="0.750000" >
<path d="M 246.000000,366.000000 L 251.000000,366.000000 M 256.000000,366.000000 L 271.000000,366.000000 M 276.000000,366.000000 L 281.000000,366.000000 M 286.000000,366.000000 L 301.000000,366.000000 M 306.000000,366.000000 L 311.000000,366.000000 M 316.000000,366.000000 L 331.000000,366.000000 M 336.000000,366.000000 L 341.000000,366.000000 M 346.000000,366.000000 L 361.000000,366.000000 M 366.000000,366.000000 L 371.000000,366.000000 M 376.000000,366.000000 L 391.000000,366.000000 M 396.000000,366.000000 L 401.000000,366.000000 M 406.000000,366.000000 L 421.000000,366.000000 M 426.000000,366.000000 L 431.000000,366.000000 M 436.000000,366.000000 L 451.000000,366.000000 M 456.000000,366.000000 L 461.000000,366.000000 M 466.000000,366.000000 L 481.000000,366.000000 M 486.000000,366.000000 L 491.000000,366.000000 M 496.000000,366.000000 L 511.000000,366.000000 "/>
<path d="M 246.000000,366.000000 L 241.000000,366.000000 M 236.000000,366.000000 L 228.993155,366.000000 "/>
</g> 


<g  transform="scale(0.400000,0.400000)" stroke="rgb(0,0,255)"  stroke-width="0.750000" >
<path d="M 356.250000,214.250000 L 361.250000,214.250000 M 366.250000,214.250000 L 381.250000,214.250000 M 386.250000,214.250000 L 391.250000,214.250000 M 396.250000,214.250000 L 403.085894,214.250000 "/>
<path d="M 356.250000,214.250000 L 351.250000,214.250000 "/>
</g> 


<g  transform="scale(0.400000,0.400000)" stroke="rgb(0,0,255)"  stroke-width="0.750000" >
<path d="M 356.250000,235.750000 L 361.250000,235.750000 M 366.250000,235.750000 L 381.250000,235.750000 M 386.250000,235.750000 L 391.250000,235.750000 M 396.250000,235.750000 L 403.206362,235.750000 "/>
<path d="M 356.250000,235.750000 L 351.250000,235.750000 "/>
</g> 


<g  transform="scale(0.400000,0.400000)" stroke="rgb(0,0,255)"  stroke-width="0.750000" >
<path d="M 356.250000,214.250000 L 356.250000,219.250000 M 356.250000,224.250000 L 356.250000,239.250000 "/>
<path d="M 356.250000,214.250000 L 356.250000,209.250000 "/>
</g> 


<g  transform="scale(0.400000,0.400000)" stroke="rgb(0,0,255)"  stroke-width="0.750000" >
<path d="M 393.750000,214.250000 L 393.750000,219.250000 M 393.750000,224.250000 L 393.750000,239.250000 "/>
<path d="M 393.750000,214.250000 L 393.750000,209.250000 "/>
</g> 


<g   >
<line x1="142.500000" y1="81.700000" x2="142.500000" y2="77.063257" style="stroke:rgb(0,0,255);stroke-width:0.30" />
<line x1="157.500000" y1="81.700000" x2="157.500000" y2="77.063257" style="stroke:rgb(0,0,255);stroke-width:0.30" />
<line x1="142.500000" y1="78.063257" x2="157.500000" y2="78.063257" style="stroke:rgb(0,0,255);stroke-width:0.30" />
<polygon points="142.500000,78.063257 145.500000,79.063257 146.500000,78.063257 145.500000,77.063257" style="fill:rgb(0,0,255);stroke:rgb(0,0,255);stroke-width:0" /><polygon points="157.500000,78.063257 154.500000,77.063257 153.500000,78.063257 154.500000,79.063257" style="fill:rgb(0,0,255);stroke:rgb(0,0,255);stroke-width:0" />
<text x="146.454721" y="74.869230" font-family="Verdana" font-size="3.6" fill="rgb(255,0,0)" text-anchor="inherit"  >37mm</text>
</g> 


<g   >
<line x1="163.234358" y1="85.700000" x2="168.908477" y2="85.700000" style="stroke:rgb(0,0,255);stroke-width:0.30" />
<line x1="163.282545" y1="94.300000" x2="168.908477" y2="94.300000" style="stroke:rgb(0,0,255);stroke-width:0.30" />
<line x1="167.908477" y1="85.700000" x2="167.908477" y2="94.300000" style="stroke:rgb(0,0,255);stroke-width:0.30" />
<polygon points="167.908477,85.700000 168.908477,82.700000 167.908477,81.700000 166.908477,82.700000" style="fill:rgb(0,0,255);stroke:rgb(0,0,255);stroke-width:0" /><polygon points="167.908477,94.300000 166.908477,97.300000 167.908477,98.300000 168.908477,97.300000" style="fill:rgb(0,0,255);stroke:rgb(0,0,255);stroke-width:0" />
<text x="172.724626" y="94.352743" font-family="Verdana" font-size="3.6" fill="rgb(255,0,0)" text-anchor="inherit" transform="rotate(-90.000000 172.724626,94.352743)" >21mm</text>
</g> 


<g  transform="scale(0.400000,0.400000)" stroke="rgb(0,0,255)"  stroke-width="0.750000" >
<path d="M 226.000000,73.000000 L 226.000000,78.000000 M 226.000000,83.000000 L 226.000000,98.000000 M 226.000000,103.000000 L 226.000000,108.000000 M 226.000000,113.000000 L 226.000000,128.000000 M 226.000000,133.000000 L 226.000000,138.000000 M 226.000000,143.000000 L 226.000000,158.000000 M 226.000000,163.000000 L 226.000000,168.000000 M 226.000000,173.000000 L 226.000000,188.000000 M 226.000000,193.000000 L 226.000000,198.000000 M 226.000000,203.000000 L 226.000000,218.000000 M 226.000000,223.000000 L 226.000000,228.000000 M 226.000000,233.000000 L 226.000000,248.000000 M 226.000000,253.000000 L 226.000000,258.000000 M 226.000000,263.000000 L 226.000000,278.000000 M 226.000000,283.000000 L 226.000000,288.000000 M 226.000000,293.000000 L 226.000000,308.000000 M 226.000000,313.000000 L 226.000000,318.000000 M 226.000000,323.000000 L 226.000000,338.000000 M 226.000000,343.000000 L 226.000000,348.000000 M 226.000000,353.000000 L 226.000000,368.000000 M 226.000000,373.000000 L 226.000000,378.000000 M 226.000000,383.000000 L 226.000000,388.122086 "/>
<path d="M 226.000000,73.000000 L 226.000000,68.000000 "/>
</g> 


<g   >
<line x1="90.400000" y1="25.200000" x2="90.400000" y2="14.688303" style="stroke:rgb(0,0,255);stroke-width:0.30" />
<line x1="209.600000" y1="25.200000" x2="209.600000" y2="14.688303" style="stroke:rgb(0,0,255);stroke-width:0.30" />
<line x1="90.400000" y1="15.688303" x2="209.600000" y2="15.688303" style="stroke:rgb(0,0,255);stroke-width:0.30" />
<polygon points="90.400000,15.688303 93.400000,16.688303 94.400000,15.688303 93.400000,14.688303" style="fill:rgb(0,0,255);stroke:rgb(0,0,255);stroke-width:0" /><polygon points="209.600000,15.688303 206.600000,14.688303 205.600000,15.688303 206.600000,16.688303" style="fill:rgb(0,0,255);stroke:rgb(0,0,255);stroke-width:0" />
<text x="143.547975" y="14.119473" font-family="Verdana" font-size="3.6" fill="rgb(255,0,0)" text-anchor="inherit"  >298mm</text>
</g> 


<g   >
<line x1="214.400000" y1="29.200000" x2="230.142336" y2="29.200000" style="stroke:rgb(0,0,255);stroke-width:0.30" />
<line x1="214.400000" y1="150.800000" x2="230.142336" y2="150.800000" style="stroke:rgb(0,0,255);stroke-width:0.30" />
<line x1="229.142336" y1="29.200000" x2="229.142336" y2="150.800000" style="stroke:rgb(0,0,255);stroke-width:0.30" />
<polygon points="229.142336,29.200000 228.142336,32.200000 229.142336,33.200000 230.142336,32.200000" style="fill:rgb(0,0,255);stroke:rgb(0,0,255);stroke-width:0" /><polygon points="229.142336,150.800000 230.142336,147.800000 229.142336,146.800000 228.142336,147.800000" style="fill:rgb(0,0,255);stroke:rgb(0,0,255);stroke-width:0" />
<text x="234.214497" y="94.580886" font-family="Verdana" font-size="3.6" fill="rgb(255,0,0)" text-anchor="inherit" transform="rotate(-90.000000 234.214497,94.580886)" >304mm</text>
</g> 


<g   >
<line x1="205.600000" y1="33.600000" x2="213.498595" y2="33.600000" style="stroke:rgb(0,0,255);stroke-width:0.30" />
<line x1="205.600000" y1="47.600000" x2="213.498595" y2="47.600000" style="stroke:rgb(0,0,255);stroke-width:0.30" />
<line x1="212.498595" y1="33.600000" x2="212.498595" y2="47.600000" style="stroke:rgb(0,0,255);stroke-width:0.30" />
<polygon points="212.498595,33.600000 211.498595,36.600000 212.498595,37.600000 213.498595,36.600000" style="fill:rgb(0,0,255);stroke:rgb(0,0,255);stroke-width:0" /><polygon points="212.498595,47.600000 213.498595,44.600000 212.498595,43.600000 211.498595,44.600000" style="fill:rgb(0,0,255);stroke:rgb(0,0,255);stroke-width:0" />
<text x="217.078306" y="42.632947" font-family="Verdana" font-size="3.6" fill="rgb(255,0,0)" text-anchor="inherit" transform="rotate(-90.000000 217.078306,42.632947)" >35mm</text>
</g> 


<g   >
<line x1="187.600000" y1="29.600000" x2="187.600000" y2="25.101778" style="stroke:rgb(0,0,255);stroke-width:0.30" />
<line x1="201.600000" y1="25.778030" x2="201.600000" y2="25.101778" style="stroke:rgb(0,0,255);stroke-width:0.30" />
<line x1="187.600000" y1="26.101778" x2="201.600000" y2="26.101778" style="stroke:rgb(0,0,255);stroke-width:0.30" />
<polygon points="187.600000,26.101778 190.600000,27.101778 191.600000,26.101778 190.600000,25.101778" style="fill:rgb(0,0,255);stroke:rgb(0,0,255);stroke-width:0" /><polygon points="201.600000,26.101778 198.600000,25.101778 197.600000,26.101778 198.600000,27.101778" style="fill:rgb(0,0,255);stroke:rgb(0,0,255);stroke-width:0" />
<text x="192.245267" y="24.286002" font-family="Verdana" font-size="3.6" fill="rgb(255,0,0)" text-anchor="inherit"  >35mm</text>
</g> 


<g   >
<line x1="76.000000" y1="162.000000" x2="64.694770" y2="162.000000" style="stroke:rgb(0,0,255);stroke-width:0.30" />
<line x1="76.000000" y1="18.000000" x2="64.694770" y2="18.000000" style="stroke:rgb(0,0,255);stroke-width:0.30" />
<line x1="65.694770" y1="162.000000" x2="65.694770" y2="18.000000" style="stroke:rgb(0,0,255);stroke-width:0.30" />
<polygon points="65.694770,162.000000 66.694770,159.000000 65.694770,158.000000 64.694770,159.000000" style="fill:rgb(0,0,255);stroke:rgb(0,0,255);stroke-width:0" /><polygon points="65.694770,18.000000 64.694770,21.000000 65.694770,22.000000 66.694770,21.000000" style="fill:rgb(0,0,255);stroke:rgb(0,0,255);stroke-width:0" />
<text x="62.753213" y="92.822461" font-family="Verdana" font-size="3.6" fill="rgb(255,0,0)" text-anchor="inherit" transform="rotate(-90.000000 62.753213,92.822461)" >360mm</text>
</g> 


<g  transform="scale(0.400000,0.400000)" stroke="rgb(0,0,255)"  stroke-width="0.750000" >
<path d="M 246.000000,84.000000 L 246.000000,89.000000 M 246.000000,94.000000 L 246.000000,109.000000 M 246.000000,114.000000 L 246.000000,119.000000 M 246.000000,124.000000 L 246.000000,139.000000 M 246.000000,144.000000 L 246.000000,149.000000 M 246.000000,154.000000 L 246.000000,169.000000 M 246.000000,174.000000 L 246.000000,179.000000 M 246.000000,184.000000 L 246.000000,199.000000 M 246.000000,204.000000 L 246.000000,209.000000 M 246.000000,214.000000 L 246.000000,229.000000 M 246.000000,234.000000 L 246.000000,239.000000 M 246.000000,244.000000 L 246.000000,259.000000 M 246.000000,264.000000 L 246.000000,269.000000 M 246.000000,274.000000 L 246.000000,289.000000 M 246.000000,294.000000 L 246.000000,299.000000 M 246.000000,304.000000 L 246.000000,319.000000 M 246.000000,324.000000 L 246.000000,329.000000 M 246.000000,334.000000 L 246.000000,349.000000 M 246.000000,354.000000 L 246.000000,359.000000 M 246.000000,364.000000 L 246.000000,371.780104 "/>
<path d="M 246.000000,84.000000 L 246.000000,79.000000 "/>
</g> 


<g  transform="scale(0.400000,0.400000)" stroke="rgb(0,0,255)"  stroke-width="0.750000" >
<path d="M 281.000000,84.000000 L 281.000000,89.000000 M 281.000000,94.000000 L 281.000000,109.000000 M 281.000000,114.000000 L 281.000000,119.000000 M 281.000000,124.000000 L 281.000000,139.000000 M 281.000000,144.000000 L 281.000000,149.000000 M 281.000000,154.000000 L 281.000000,169.000000 M 281.000000,174.000000 L 281.000000,179.000000 M 281.000000,184.000000 L 281.000000,199.000000 M 281.000000,204.000000 L 281.000000,209.000000 M 281.000000,214.000000 L 281.000000,229.000000 M 281.000000,234.000000 L 281.000000,239.000000 M 281.000000,244.000000 L 281.000000,259.000000 M 281.000000,264.000000 L 281.000000,269.000000 M 281.000000,274.000000 L 281.000000,289.000000 M 281.000000,294.000000 L 281.000000,299.000000 M 281.000000,304.000000 L 281.000000,319.000000 M 281.000000,324.000000 L 281.000000,329.000000 M 281.000000,334.000000 L 281.000000,349.000000 M 281.000000,354.000000 L 281.000000,359.000000 M 281.000000,364.000000 L 281.000000,371.336055 "/>
<path d="M 281.000000,84.000000 L 281.000000,79.000000 "/>
</g> 


<g   >
<line x1="98.400000" y1="29.600000" x2="98.400000" y2="24.882307" style="stroke:rgb(0,0,255);stroke-width:0.30" />
<line x1="112.400000" y1="29.600000" x2="112.400000" y2="24.882307" style="stroke:rgb(0,0,255);stroke-width:0.30" />
<line x1="98.400000" y1="25.882307" x2="112.400000" y2="25.882307" style="stroke:rgb(0,0,255);stroke-width:0.30" />
<polygon points="98.400000,25.882307 101.400000,26.882307 102.400000,25.882307 101.400000,24.882307" style="fill:rgb(0,0,255);stroke:rgb(0,0,255);stroke-width:0" /><polygon points="112.400000,25.882307 109.400000,24.882307 108.400000,25.882307 109.400000,26.882307" style="fill:rgb(0,0,255);stroke:rgb(0,0,255);stroke-width:0" />
<text x="102.002656" y="24.425126" font-family="Verdana" font-size="3.6" fill="rgb(255,0,0)" text-anchor="inherit"  >35mm</text>
</g> 


<g   >
<line x1="206.400000" y1="146.400000" x2="214.837028" y2="146.400000" style="stroke:rgb(0,0,255);stroke-width:0.30" />
<line x1="206.400000" y1="132.400000" x2="214.837028" y2="132.400000" style="stroke:rgb(0,0,255);stroke-width:0.30" />
<line x1="213.837028" y1="146.400000" x2="213.837028" y2="132.400000" style="stroke:rgb(0,0,255);stroke-width:0.30" />
<polygon points="213.837028,146.400000 214.837028,143.400000 213.837028,142.400000 212.837028,143.400000" style="fill:rgb(0,0,255);stroke:rgb(0,0,255);stroke-width:0" /><polygon points="213.837028,132.400000 212.837028,135.400000 213.837028,136.400000 214.837028,135.400000" style="fill:rgb(0,0,255);stroke:rgb(0,0,255);stroke-width:0" />
<text x="218.302912" y="141.988837" font-family="Verdana" font-size="3.6" fill="rgb(255,0,0)" text-anchor="inherit" transform="rotate(-90.000000 218.302912,141.988837)" >35mm</text>
</g> 


<g   >
 <circle cx ="90.400000" cy ="150.800000" r="0.500000" stroke="none" fill="rgb(0,0,255)" /> 
<line x1="96.870275" y1="157.072141" x2="89.538382" y2="149.964767" style="stroke:rgb(0,0,255);stroke-width:0.30" />
<polygon points="91.261618,151.635233 92.719635,154.441331 94.133678,154.419344 94.111690,153.005301" style="fill:rgb(0,0,255);stroke:rgb(0,0,255);stroke-width:0" />
<polygon points="89.538382,149.964767 88.080365,147.158669 86.666322,147.180656 86.688310,148.594699" style="fill:rgb(0,0,255);stroke:rgb(0,0,255);stroke-width:0" />
<line x1="96.870275" y1="157.072141" x2="113.288966" y2="157.072141" style="stroke:rgb(0,0,255);stroke-width:0.30" />
<text x="99.716182" y="160.246421" font-family="Verdana" font-size="3.6" fill="rgb(255,0,0)" text-anchor="inherit"  >4 x 6mm</text>
<!--2.4-->
<!--Ø%3.3f-->
</g> 


<g   >
<line x1="214.400000" y1="150.800000" x2="230.138767" y2="150.800000" style="stroke:rgb(0,0,255);stroke-width:0.30" />
<line x1="224.000000" y1="162.000000" x2="230.138767" y2="162.000000" style="stroke:rgb(0,0,255);stroke-width:0.30" />
<line x1="229.138767" y1="150.800000" x2="229.138767" y2="162.000000" style="stroke:rgb(0,0,255);stroke-width:0.30" />
<polygon points="229.138767,150.800000 228.138767,153.800000 229.138767,154.800000 230.138767,153.800000" style="fill:rgb(0,0,255);stroke:rgb(0,0,255);stroke-width:0" /><polygon points="229.138767,162.000000 230.138767,159.000000 229.138767,158.000000 228.138767,159.000000" style="fill:rgb(0,0,255);stroke:rgb(0,0,255);stroke-width:0" />
<text x="233.455353" y="160.073393" font-family="Verdana" font-size="3.6" fill="rgb(255,0,0)" text-anchor="inherit" transform="rotate(-90.000000 233.455353,160.073393)" >28mm</text>
</g> 


<g   >
<line x1="224.000000" y1="18.000000" x2="230.159029" y2="18.000000" style="stroke:rgb(0,0,255);stroke-width:0.30" />
<line x1="214.400000" y1="29.200000" x2="230.159029" y2="29.200000" style="stroke:rgb(0,0,255);stroke-width:0.30" />
<line x1="229.159029" y1="18.000000" x2="229.159029" y2="29.200000" style="stroke:rgb(0,0,255);stroke-width:0.30" />
<polygon points="229.159029,18.000000 228.159029,21.000000 229.159029,22.000000 230.159029,21.000000" style="fill:rgb(0,0,255);stroke:rgb(0,0,255);stroke-width:0" /><polygon points="229.159029,29.200000 230.159029,26.200000 229.159029,25.200000 228.159029,26.200000" style="fill:rgb(0,0,255);stroke:rgb(0,0,255);stroke-width:0" />
<text x="233.785000" y="28.218422" font-family="Verdana" font-size="3.6" fill="rgb(255,0,0)" text-anchor="inherit" transform="rotate(-90.000000 233.785000,28.218422)" >28mm</text>
</g> 


<g   >
<line x1="222.000000" y1="16.000000" x2="222.000000" y2="14.670476" style="stroke:rgb(0,0,255);stroke-width:0.30" />
<line x1="209.600000" y1="25.200000" x2="209.600000" y2="14.670476" style="stroke:rgb(0,0,255);stroke-width:0.30" />
<line x1="222.000000" y1="15.670476" x2="209.600000" y2="15.670476" style="stroke:rgb(0,0,255);stroke-width:0.30" />
<polygon points="222.000000,15.670476 219.000000,14.670476 218.000000,15.670476 219.000000,16.670476" style="fill:rgb(0,0,255);stroke:rgb(0,0,255);stroke-width:0" /><polygon points="209.600000,15.670476 212.600000,16.670476 213.600000,15.670476 212.600000,14.670476" style="fill:rgb(0,0,255);stroke:rgb(0,0,255);stroke-width:0" />
<text x="212.218802" y="14.564035" font-family="Verdana" font-size="3.6" fill="rgb(255,0,0)" text-anchor="inherit"  >31mm</text>
</g> 


<g   >
<line x1="78.000000" y1="16.000000" x2="78.000000" y2="14.658566" style="stroke:rgb(0,0,255);stroke-width:0.30" />
<line x1="90.400000" y1="25.200000" x2="90.400000" y2="14.658566" style="stroke:rgb(0,0,255);stroke-width:0.30" />
<line x1="78.000000" y1="15.658566" x2="90.400000" y2="15.658566" style="stroke:rgb(0,0,255);stroke-width:0.30" />
<polygon points="78.000000,15.658566 81.000000,16.658566 82.000000,15.658566 81.000000,14.658566" style="fill:rgb(0,0,255);stroke:rgb(0,0,255);stroke-width:0" /><polygon points="90.400000,15.658566 87.400000,14.658566 86.400000,15.658566 87.400000,16.658566" style="fill:rgb(0,0,255);stroke:rgb(0,0,255);stroke-width:0" />
<text x="80.193142" y="14.138317" font-family="Verdana" font-size="3.6" fill="rgb(255,0,0)" text-anchor="inherit"  >31mm</text>
</g> 


<g   >
<line x1="86.400000" y1="29.200000" x2="83.086657" y2="29.200000" style="stroke:rgb(0,0,255);stroke-width:0.30" />
<line x1="93.600000" y1="33.600000" x2="83.086657" y2="33.600000" style="stroke:rgb(0,0,255);stroke-width:0.30" />
<line x1="84.086657" y1="29.200000" x2="84.086657" y2="33.600000" style="stroke:rgb(0,0,255);stroke-width:0.30" />
<polygon points="84.086657,29.200000 85.086657,26.200000 84.086657,25.200000 83.086657,26.200000" style="fill:rgb(0,0,255);stroke:rgb(0,0,255);stroke-width:0" /><polygon points="84.086657,33.600000 83.086657,36.600000 84.086657,37.600000 85.086657,36.600000" style="fill:rgb(0,0,255);stroke:rgb(0,0,255);stroke-width:0" />
<text x="81.966420" y="34.983904" font-family="Verdana" font-size="3.6" fill="rgb(255,0,0)" text-anchor="inherit" transform="rotate(-90.000000 81.966420,34.983904)" >11mm</text>
</g> 


<g   >
<line x1="89.597262" y1="146.400000" x2="82.012900" y2="146.400000" style="stroke:rgb(0,0,255);stroke-width:0.30" />
<line x1="87.200000" y1="150.800000" x2="82.012900" y2="150.800000" style="stroke:rgb(0,0,255);stroke-width:0.30" />
<line x1="83.012900" y1="146.400000" x2="83.012900" y2="150.800000" style="stroke:rgb(0,0,255);stroke-width:0.30" />
<polygon points="83.012900,146.400000 84.012900,143.400000 83.012900,142.400000 82.012900,143.400000" style="fill:rgb(0,0,255);stroke:rgb(0,0,255);stroke-width:0" /><polygon points="83.012900,150.800000 82.012900,153.800000 83.012900,154.800000 84.012900,153.800000" style="fill:rgb(0,0,255);stroke:rgb(0,0,255);stroke-width:0" />
<text x="81.174007" y="151.708702" font-family="Verdana" font-size="3.6" fill="rgb(255,0,0)" text-anchor="inherit" transform="rotate(-90.000000 81.174007,151.708702)" >11mm</text>
</g> 


<g   >
<line x1="78.000000" y1="20.000000" x2="78.000000" y2="79.069950" style="stroke:rgb(0,0,255);stroke-width:0.30" />
<line x1="142.500000" y1="81.700000" x2="142.500000" y2="77.069950" style="stroke:rgb(0,0,255);stroke-width:0.30" />
<line x1="78.000000" y1="78.069950" x2="142.500000" y2="78.069950" style="stroke:rgb(0,0,255);stroke-width:0.30" />
<polygon points="78.000000,78.069950 81.000000,79.069950 82.000000,78.069950 81.000000,77.069950" style="fill:rgb(0,0,255);stroke:rgb(0,0,255);stroke-width:0" /><polygon points="142.500000,78.069950 139.500000,77.069950 138.500000,78.069950 139.500000,79.069950" style="fill:rgb(0,0,255);stroke:rgb(0,0,255);stroke-width:0" />
<text x="113.670095" y="76.835229" font-family="Verdana" font-size="3.6" fill="rgb(255,0,0)" text-anchor="inherit"  >161.5mm</text>
</g> 


<g   >
<line x1="222.000000" y1="20.000000" x2="222.000000" y2="79.069950" style="stroke:rgb(0,0,255);stroke-width:0.30" />
<line x1="157.500000" y1="81.700000" x2="157.500000" y2="77.069950" style="stroke:rgb(0,0,255);stroke-width:0.30" />
<line x1="222.000000" y1="78.069950" x2="157.500000" y2="78.069950" style="stroke:rgb(0,0,255);stroke-width:0.30" />
<polygon points="222.000000,78.069950 219.000000,77.069950 218.000000,78.069950 219.000000,79.069950" style="fill:rgb(0,0,255);stroke:rgb(0,0,255);stroke-width:0" /><polygon points="157.500000,78.069950 160.500000,79.069950 161.500000,78.069950 160.500000,77.069950" style="fill:rgb(0,0,255);stroke:rgb(0,0,255);stroke-width:0" />
<text x="170.936801" y="76.547456" font-family="Verdana" font-size="3.6" fill="rgb(255,0,0)" text-anchor="inherit"  >161.5mm</text>
</g> 


<g   >
<line x1="220.000000" y1="162.000000" x2="134.815409" y2="162.000000" style="stroke:rgb(0,0,255);stroke-width:0.30" />
<line x1="138.500000" y1="94.300000" x2="134.815409" y2="94.300000" style="stroke:rgb(0,0,255);stroke-width:0.30" />
<line x1="135.815409" y1="162.000000" x2="135.815409" y2="94.300000" style="stroke:rgb(0,0,255);stroke-width:0.30" />
<polygon points="135.815409,162.000000 136.815409,159.000000 135.815409,158.000000 134.815409,159.000000" style="fill:rgb(0,0,255);stroke:rgb(0,0,255);stroke-width:0" /><polygon points="135.815409,94.300000 134.815409,97.300000 135.815409,98.300000 136.815409,97.300000" style="fill:rgb(0,0,255);stroke:rgb(0,0,255);stroke-width:0" />
<text x="133.666363" y="130.682738" font-family="Verdana" font-size="3.6" fill="rgb(255,0,0)" text-anchor="inherit" transform="rotate(-90.000000 133.666363,130.682738)" >169.5mm</text>
</g> 


<g   >
<line x1="220.000000" y1="18.000000" x2="134.892519" y2="18.000000" style="stroke:rgb(0,0,255);stroke-width:0.30" />
<line x1="138.500000" y1="85.700000" x2="134.892519" y2="85.700000" style="stroke:rgb(0,0,255);stroke-width:0.30" />
<line x1="135.892519" y1="18.000000" x2="135.892519" y2="85.700000" style="stroke:rgb(0,0,255);stroke-width:0.30" />
<polygon points="135.892519,18.000000 134.892519,21.000000 135.892519,22.000000 136.892519,21.000000" style="fill:rgb(0,0,255);stroke:rgb(0,0,255);stroke-width:0" /><polygon points="135.892519,85.700000 136.892519,82.700000 135.892519,81.700000 134.892519,82.700000" style="fill:rgb(0,0,255);stroke:rgb(0,0,255);stroke-width:0" />
<text x="134.004257" y="68.636327" font-family="Verdana" font-size="3.6" fill="rgb(255,0,0)" text-anchor="inherit" transform="rotate(-90.000000 134.004257,68.636327)" >169.5mm</text>
</g> 


<g   >
<line x1="112.400000" y1="29.600000" x2="112.400000" y2="25.104496" style="stroke:rgb(0,0,255);stroke-width:0.30" />
<line x1="187.600000" y1="29.600000" x2="187.600000" y2="25.104496" style="stroke:rgb(0,0,255);stroke-width:0.30" />
<line x1="112.400000" y1="26.104496" x2="187.600000" y2="26.104496" style="stroke:rgb(0,0,255);stroke-width:0.30" />
<polygon points="112.400000,26.104496 115.400000,27.104496 116.400000,26.104496 115.400000,25.104496" style="fill:rgb(0,0,255);stroke:rgb(0,0,255);stroke-width:0" /><polygon points="187.600000,26.104496 184.600000,25.104496 183.600000,26.104496 184.600000,27.104496" style="fill:rgb(0,0,255);stroke:rgb(0,0,255);stroke-width:0" />
<text x="143.172521" y="24.863535" font-family="Verdana" font-size="3.6" fill="rgb(255,0,0)" text-anchor="inherit"  >188mm</text>
</g> 


<g   >
<line x1="209.600000" y1="157.377108" x2="209.600000" y2="159.374737" style="stroke:rgb(0,0,255);stroke-width:0.30" />
<line x1="201.600000" y1="153.568108" x2="201.600000" y2="159.374737" style="stroke:rgb(0,0,255);stroke-width:0.30" />
<line x1="209.600000" y1="158.374737" x2="201.600000" y2="158.374737" style="stroke:rgb(0,0,255);stroke-width:0.30" />
<polygon points="209.600000,158.374737 212.600000,159.374737 213.600000,158.374737 212.600000,157.374737" style="fill:rgb(0,0,255);stroke:rgb(0,0,255);stroke-width:0" /><polygon points="201.600000,158.374737 198.600000,157.374737 197.600000,158.374737 198.600000,159.374737" style="fill:rgb(0,0,255);stroke:rgb(0,0,255);stroke-width:0" />
<text x="202.256696" y="161.538901" font-family="Verdana" font-size="3.6" fill="rgb(255,0,0)" text-anchor="inherit"  >20mm</text>
</g> 


<g   >
<line x1="98.400000" y1="29.600000" x2="98.400000" y2="20.344298" style="stroke:rgb(0,0,255);stroke-width:0.30" />
<line x1="90.400000" y1="25.200000" x2="90.400000" y2="20.344298" style="stroke:rgb(0,0,255);stroke-width:0.30" />
<line x1="98.400000" y1="21.344298" x2="90.400000" y2="21.344298" style="stroke:rgb(0,0,255);stroke-width:0.30" />
<polygon points="98.400000,21.344298 101.400000,22.344298 102.400000,21.344298 101.400000,20.344298" style="fill:rgb(0,0,255);stroke:rgb(0,0,255);stroke-width:0" /><polygon points="90.400000,21.344298 87.400000,20.344298 86.400000,21.344298 87.400000,22.344298" style="fill:rgb(0,0,255);stroke:rgb(0,0,255);stroke-width:0" />
<text x="91.069004" y="20.906466" font-family="Verdana" font-size="3.6" fill="rgb(255,0,0)" text-anchor="inherit"  >20mm</text>
</g> 


<g   >
<line x1="78.000000" y1="16.000000" x2="78.000000" y2="6.873453" style="stroke:rgb(0,0,255);stroke-width:0.30" />
<line x1="222.000000" y1="16.000000" x2="222.000000" y2="6.873453" style="stroke:rgb(0,0,255);stroke-width:0.30" />
<line x1="78.000000" y1="7.873453" x2="222.000000" y2="7.873453" style="stroke:rgb(0,0,255);stroke-width:0.30" />
<polygon points="78.000000,7.873453 81.000000,8.873453 82.000000,7.873453 81.000000,6.873453" style="fill:rgb(0,0,255);stroke:rgb(0,0,255);stroke-width:0" /><polygon points="222.000000,7.873453 219.000000,6.873453 218.000000,7.873453 219.000000,8.873453" style="fill:rgb(0,0,255);stroke:rgb(0,0,255);stroke-width:0" />
<text x="164.720917" y="6.837472" font-family="Verdana" font-size="3.6" fill="rgb(255,0,0)" text-anchor="inherit"  >360mm</text>
</g> 


<g   >
 <circle cx ="142.500000" cy ="94.300000" r="0.500000" stroke="none" fill="rgb(0,0,255)" /> 
<line x1="152.102751" y1="108.888757" x2="141.950188" y2="93.464711" style="stroke:rgb(0,0,255);stroke-width:0.30" />
<polygon points="143.049812,95.135289 143.863958,98.190966 145.249058,98.476443 145.534535,97.091343" style="fill:rgb(0,0,255);stroke:rgb(0,0,255);stroke-width:0" />
<polygon points="141.950188,93.464711 141.136042,90.409034 139.750942,90.123557 139.465465,91.508657" style="fill:rgb(0,0,255);stroke:rgb(0,0,255);stroke-width:0" />
<line x1="152.102751" y1="108.888757" x2="170.228985" y2="108.888757" style="stroke:rgb(0,0,255);stroke-width:0.30" />
<text x="154.204343" y="107.837961" font-family="Verdana" font-size="3.6" fill="rgb(255,0,0)" text-anchor="inherit"  >4 x 5mm</text>
<!--2.0-->
<!--Ø%3.3f-->
</g> 


<g   >
 <circle cx ="98.400000" cy ="33.600000" r="0.500000" stroke="none" fill="rgb(0,0,255)" /> 
<line x1="56.921870" y1="54.698359" x2="99.469581" y2="33.055944" style="stroke:rgb(0,0,255);stroke-width:0.30" />
<polygon points="97.330419,34.144056 94.203087,34.612877 93.765149,35.957574 95.109846,36.395512" style="fill:rgb(0,0,255);stroke:rgb(0,0,255);stroke-width:0" />
<polygon points="99.469581,33.055944 102.596913,32.587123 103.034851,31.242426 101.690154,30.804488" style="fill:rgb(0,0,255);stroke:rgb(0,0,255);stroke-width:0" />
<line x1="56.921870" y1="54.698359" x2="29.213214" y2="54.698359" style="stroke:rgb(0,0,255);stroke-width:0.30" />
<text x="30.098463" y="59.311677" font-family="Verdana" font-size="3.6" fill="rgb(255,0,0)" text-anchor="inherit"  >16 x 6mm</text>
<!--2.4-->
<!--Ø%3.3f-->
</g> 


  </g>
</svg>

